<?xml version="1.0" encoding="utf-8"?>
<svg width="144" height="144" viewBox="0 0 125 144" version="1.1" id="svg2" xmlns="http://www.w3.org/2000/svg">
  <g id="g14" transform="translate(-36.425781,-27.212891)">
    <path id="path1" style="display: inline; fill-opacity: 1; fill: rgb(0, 166, 166);" d="m 98.925781,27.212891 -62.5,36 v 71.999999 l 62.5,36 62.499999,-36 V 63.212891 Z"/>
  </g>
  <g id="g7" transform="translate(-36.425781,-27.212891)">
    <path style="display:inline;fill:none;stroke:#ffffff;stroke-width:5.19575;stroke-linecap:square;stroke-dasharray:none;stroke-opacity:0.81;paint-order:stroke fill markers" id="path14" d="m 98.924806,165.442 -57.35643,-33.11475 -2e-6,-66.229497 57.356429,-33.114751 57.356427,33.114748 0,66.2295 z" transform="matrix(0.96220684,0,0,0.96244328,3.7386809,3.7260963)"/>
    <path id="path3" style="color:#000000;fill:#ffffff;fill-opacity:0.81;stroke-width:7.50696;stroke-linecap:square;-inkscape-stroke:none;paint-order:stroke fill markers" d="m 98.925986,39.318735 c -33.041853,0 -59.894572,26.853667 -59.894572,59.894253 0,33.040582 26.852719,59.891812 59.894572,59.891812 33.041854,0 59.892124,-26.85123 59.892124,-59.891812 0,-33.040586 -26.85027,-59.894252 -59.892124,-59.894253 z m 0,6.255019 c 9.431254,0 18.283344,2.434064 25.977044,6.694826 v 2.67793 40.513466 H 72.946499 V 54.94651 52.26858 c 7.694471,-4.2614 16.547476,-6.694826 25.979487,-6.694826 z M 65.438598,57.301916 v 38.15806 3.753012 3.753012 38.15562 c -12.283559,-9.82218 -20.1506,-24.92874 -20.1506,-41.908632 0,-16.98007 7.866825,-32.088217 20.1506,-41.911072 z m 66.972332,0 c 12.28368,9.822834 20.1506,24.930531 20.1506,41.911072 0,16.980362 -7.86714,32.086472 -20.1506,41.908632 V 102.966 99.212988 95.459976 Z M 72.946499,102.966 h 51.956531 v 41.40041 1.79099 c -7.6937,4.26042 -16.54579,6.69238 -25.977044,6.69238 -9.432011,0 -18.285016,-2.43132 -25.979487,-6.69238 v -1.79099 z" transform="matrix(0.79915813,0,0,0.79935805,19.868275,19.90619)"/>
  </g>
</svg>