<svg xmlns="http://www.w3.org/2000/svg" width="1586.52" height="1592" xmlns:v="https://vecta.io/nano"><g fill="#62c78d"><path d="M993.382 1057.657v75.069l65.012 37.535 65.012-37.535v-75.069l-65.012-37.535-65.012 37.535"/><use href="#B"/><path d="M1327.031 1069.924v99.604l86.258 49.801 86.253-49.801v-99.604l-86.253-49.801-86.258 49.801m1.032-702.192v99.006l85.746 49.504 85.733-49.504v-99.006l-85.733-49.504-85.746 49.504m-334.681 41.335v79.15l68.546 39.575 68.545-39.575v-79.15l-68.545-39.576-68.546 39.576"/><use href="#B" y="-1269.17"/></g><g fill="#4264b8"><path d="M774.442 1215.926v38.316a23.02 23.02 0 0 0 11.509 19.933l33.183 19.159c7.121 4.112 15.896 4.112 23.017 0l33.183-19.159c7.123-4.112 11.509-11.711 11.509-19.933v-38.316a23.02 23.02 0 0 0-11.509-19.935l-33.183-19.157c-7.121-4.112-15.896-4.112-23.017 0l-33.183 19.157a23.02 23.02 0 0 0-11.509 19.935m0-914.647v38.317a23.02 23.02 0 0 0 11.509 19.933l33.183 19.159a23.02 23.02 0 0 0 23.017 0l33.183-19.159c7.123-4.112 11.509-11.711 11.509-19.933v-38.317c0-8.223-4.387-15.821-11.509-19.933l-33.183-19.159c-7.121-4.104-15.896-4.104-23.017 0l-33.183 19.159a23.02 23.02 0 0 0-11.509 19.933m-251.178 906.717v32.664c0 5.483 2.925 10.548 7.673 13.289l28.288 16.332c4.748 2.741 10.597 2.741 15.345 0l28.288-16.332c4.748-2.741 7.673-7.807 7.673-13.289v-32.664c0-5.483-2.925-10.548-7.673-13.289l-28.288-16.332c-4.748-2.741-10.597-2.741-15.345 0l-28.288 16.332c-4.748 2.741-7.673 7.807-7.673 13.289"/><path d="M523.264 349.816v32.664c0 5.483 2.925 10.549 7.673 13.289l28.288 16.333a15.35 15.35 0 0 0 15.345 0l28.288-16.333c4.748-2.74 7.673-7.807 7.673-13.289v-32.664c0-5.483-2.925-10.548-7.673-13.289l-28.288-16.332c-4.748-2.741-10.597-2.741-15.345 0l-28.288 16.332c-4.748 2.741-7.673 7.807-7.673 13.289m195.461 1149.037v41.64c0 10.96 5.849 21.093 15.345 26.573l36.061 20.827a30.7 30.7 0 0 0 30.691 0l36.061-20.827c9.496-5.48 15.345-15.614 15.345-26.573v-41.64a30.69 30.69 0 0 0-15.345-26.586l-36.061-20.813c-9.496-5.48-21.195-5.48-30.691 0l-36.061 20.813a30.69 30.69 0 0 0-15.345 26.586m0-1447.342v41.64a30.69 30.69 0 0 0 15.345 26.587l36.061 20.813c9.496 5.48 21.195 5.48 30.691 0l36.061-20.813a30.69 30.69 0 0 0 15.345-26.587v-41.64c0-10.96-5.849-21.093-15.345-26.573L800.822 4.111c-9.496-5.48-21.195-5.48-30.691 0L734.07 24.937c-9.496 5.48-15.345 15.613-15.345 26.573m-42.56 493.102v24.036a14.16 14.16 0 0 0 7.08 12.263l20.816 12.019a14.16 14.16 0 0 0 14.16 0l20.816-12.019a14.16 14.16 0 0 0 7.081-12.263v-24.036a14.16 14.16 0 0 0-7.081-12.264l-20.816-12.017c-4.381-2.531-9.779-2.531-14.16 0l-20.816 12.017a14.16 14.16 0 0 0-7.08 12.264m0 462.661v24.036a14.16 14.16 0 0 0 7.08 12.264l20.816 12.017c4.381 2.531 9.779 2.531 14.16 0l20.816-12.017a14.16 14.16 0 0 0 7.081-12.264v-24.036a14.16 14.16 0 0 0-7.081-12.263l-20.816-12.019a14.16 14.16 0 0 0-14.16 0l-20.816 12.019a14.16 14.16 0 0 0-7.08 12.263"/></g><g fill="#7267ba"><path d="M406.284 510.737c-10.924-6.504-23.464-7.973-34.889-5.069-11.425 2.893-21.744 10.149-28.26 21.084-6.504 10.924-7.973 23.465-5.069 34.889 2.893 11.425 10.149 21.745 21.084 28.26 10.924 6.504 23.465 7.973 34.889 5.069 11.425-2.893 21.745-10.149 28.26-21.084 6.504-10.924 7.973-23.464 5.069-34.889-2.893-11.425-10.149-21.745-21.084-28.26zm.017 570.456c-10.923 6.504-23.464 7.973-34.889 5.069-11.425-2.893-21.744-10.149-28.26-21.084-6.504-10.924-7.973-23.465-5.068-34.889 2.892-11.425 10.148-21.745 21.083-28.26 10.924-6.504 23.465-7.973 34.891-5.069a45.92 45.92 0 0 1 28.26 21.084c6.504 10.924 7.973 23.465 5.068 34.889-2.893 11.425-10.149 21.745-21.084 28.26h0M0 790.885c0-50.073 40.593-90.665 90.666-90.665s90.666 40.592 90.666 90.665-40.593 90.666-90.666 90.666S0 840.959 0 790.885"/><path d="M181.333 522.144c-21.179 0-40.359-8.585-54.251-22.476-13.876-13.876-22.475-33.057-22.475-54.251 0-21.177 8.585-40.357 22.475-54.249 13.876-13.877 33.058-22.476 54.251-22.476 21.177 0 40.357 8.585 54.249 22.476 13.877 13.876 22.476 33.057 22.476 54.249 0 21.179-8.585 40.359-22.476 54.251-13.876 13.876-33.057 22.476-54.249 22.476m247.53-280.874c-18.92 0-36.051-7.667-48.443-20.08-12.405-12.4-20.071-29.52-20.071-48.44s7.665-36.053 20.071-48.44c12.404-12.4 29.524-20.067 48.443-20.067s36.051 7.667 48.443 20.067c12.405 12.4 20.071 29.52 20.071 48.44s-7.665 36.053-20.071 48.44c-12.404 12.4-29.524 20.08-48.443 20.08m-247.53 845.709c-21.179 0-40.359 8.585-54.251 22.476-13.876 13.876-22.475 33.057-22.475 54.251 0 21.179 8.585 40.359 22.475 54.249 13.876 13.877 33.058 22.476 54.251 22.476 21.177 0 40.357-8.585 54.249-22.476 13.877-13.876 22.476-33.057 22.476-54.249 0-21.179-8.585-40.359-22.476-54.251-13.876-13.876-33.057-22.476-54.249-22.476m247.53 263.755c-18.92 0-36.051 7.667-48.443 20.08-12.405 12.4-20.071 29.52-20.071 48.44s7.665 36.053 20.071 48.44c12.404 12.4 29.524 20.067 48.443 20.067s36.051-7.667 48.443-20.067c12.405-12.4 20.071-29.52 20.071-48.44s-7.665-36.053-20.071-48.44c-12.404-12.413-29.524-20.08-48.443-20.08"/></g><path d="M478.543 792.769c0-34.408-24.36-59.549-57.987-59.549s-58.365 25.141-58.365 59.549c0 34.384 24.74 59.124 58.365 59.124s57.987-24.74 57.987-59.124zm-159.266 0c0-56.067 41.753-99.74 96.636-99.74 27.063 0 49.859 8.757 64.172 27.312v-.028l40.972-23.421v191.732h-40.972v-25.521c-13.911 18.555-37.109 29.384-64.172 29.384-54.883 0-96.636-43.675-96.636-99.717m234.02 95.853V696.892h40.972v26.681c10.829-16.633 28.983-26.681 56.044-26.681h13.151v42.915h-18.175c-34.787 0-49.077 18.933-49.077 48.697v100.12h-42.915m111.663-95.855c0-56.067 43.675-99.74 100.12-99.74 49.479 0 88.91 34.005 97.016 80.782h-44.055c-7.345-23.959-26.681-40.592-52.961-40.592-32.465 0-57.205 25.9-57.205 59.549 0 33.224 24.74 59.527 57.205 59.527 26.28 0 45.616-17.015 52.961-40.593h44.055c-7.727 46.376-47.537 80.784-97.016 80.784-56.445 0-100.12-43.675-100.12-99.717m218.707-106.707v-12.391l42.892-24.719v47.939h51.043v39.431h-51.043v89.29c0 15.072 7.347 22.797 24.74 22.797h26.303v40.213h-29.384c-43.673 0-64.551-18.935-64.551-58.747V686.062m140.377 88.531h105.924c-3.483-25.9-23.579-44.455-52.583-44.455-26.66 0-47.157 16.612-53.341 44.455zm-43.675 18.176c0-56.067 42.915-99.74 97.418-99.74 56.043 0 95.854 41.753 95.854 98.578 0 4.621 0 9.645-.76 14.289h-150c5.024 31.304 26.681 49.1 56.825 49.1 23.98 0 42.133-11.991 50.64-30.165h44.076c-14.692 41.753-52.181 67.654-94.716 67.654-56.424 0-99.338-44.076-99.338-99.717m210.4.001c0-56.067 43.673-99.74 100.118-99.74 49.484 0 88.91 34.005 97.017 80.782h-44.053c-7.347-23.959-26.684-40.592-52.964-40.592-32.465 0-57.204 25.9-57.204 59.549 0 33.224 24.739 59.527 57.204 59.527 26.28 0 45.617-17.015 52.964-40.593h44.053c-7.72 46.376-47.533 80.784-97.017 80.784-56.445 0-100.118-43.675-100.118-99.717m217.548 95.854V646.558l42.907-24.667v94.336c11.973-14.692 30.52-23.199 54.107-23.199 47.56 0 81.186 33.625 81.186 86.588v109.006h-42.92V783.479c0-31.304-17.013-49.859-44.84-49.859-28.6 0-47.533 19.313-47.533 49.859v105.144h-42.907" fill="#040606"/><defs ><path id="B" d="M1070.315 1387.387v86.4l74.814 43.187 74.816-43.187v-86.4l-74.816-43.187-74.814 43.187"/></defs></svg>