<!-- https://chatgpt.com/c/683eb64a-387c-8003-843e-3c0d5437ed4f -->
<svg xmlns="http://www.w3.org/2000/svg" width="125" height="144" xmlns:v="https://vecta.io/nano"><defs><pattern id="A" patternUnits="userSpaceOnUse" width="125" height="144" patternTransform="rotate(45)"><path fill="#e40303" d="M0 0h20.83v144H0z"/><path fill="#ff8c00" d="M20.83 0h20.83v144H20.83z"/><path fill="#f6be00" d="M41.66 0h20.83v144H41.66z"/><path fill="#008026" d="M62.49 0h20.83v144H62.49z"/><path fill="#004dff" d="M83.32 0h20.83v144H83.32z"/><path fill="#750787" d="M104.15 0H125v144h-20.85z"/></pattern></defs><path d="M62.5 0L0 36v72l62.5 36 62.5-36V36z" fill="url(#A)"/><path d="M62.499 135.742L7.31 103.871V40.128L62.499 8.257l55.189 31.871v63.742z" fill="none" stroke="#fff" stroke-width="5" paint-order="stroke fill markers"/><path d="M62.5 24.123c-26.406 0-47.865 21.466-47.865 47.877s21.46 47.875 47.865 47.875S110.363 98.411 110.363 72 88.905 24.123 62.5 24.123zm0 5c7.537 0 14.611 1.946 20.76 5.352v2.141V69H41.738V36.615v-2.141A42.71 42.71 0 0 1 62.5 29.122zm-26.762 9.375V69v3 3 30.5C25.922 97.648 19.635 85.573 19.635 72s6.287-25.65 16.104-33.502zm53.521 0C99.076 46.35 105.363 58.426 105.363 72s-6.287 25.649-16.104 33.5V75v-3-3zM41.738 75H83.26v33.094 1.432c-6.148 3.406-13.223 5.35-20.76 5.35s-14.613-1.943-20.762-5.35v-1.432z" fill="#fff" paint-order="stroke fill markers"/></svg>