<svg xmlns="http://www.w3.org/2000/svg" viewBox="0 0.63 54.21 67.57">
    <g id="mark-shield" class="mark-shield" fill="#ae9142">
        <path d="M9 8.91l-3.34-.66 2.22 2.54-2.22 2.54L9 12.67l1.09 3.19 1.09-3.19 3.31.66-2.23-2.54 2.23-2.54-3.31.66-1.09-3.2L9 8.91m1.09-.76l.56 1.66 1.72-.34-1.15 1.32 1.15 1.32-1.72-.34-.56 1.65c-.23-.65-.57-1.65-.57-1.65l-1.71.34 1.15-1.32-1.18-1.32 1.71.34.57-1.66M17.1 32.11c.19-.43.31-.71.43-.92a.34.34 0 01.26-.17h.1v-.12H17a.09.09 0 000 .1h.12c.12 0 .14.07.07.24-.22.58-.47 1.17-.7 1.7l-.23-.54-.3-.76a2.92 2.92 0 01-.2-.56s0-.05.12-.08H16a.08.08 0 000-.12h-1.06v.11h.1c.17 0 .21.1.32.38l.74 1.79c.07.17.14.38.19.55H16.44c.07-.21.27-.71.44-1.1zM19 33.08c0 .45 0 .46.23.48h.09a.09.09 0 010 .12h-1.14a.09.09 0 010-.12h.09c.2 0 .23 0 .23-.48V31.5c0-.45 0-.47-.23-.49h-.09v-.12h1.11v.12h-.09c-.19 0-.23 0-.23.49zM20.69 31.24c0-.17 0-.18-.11-.18h-.23c-.38 0-.49 0-.65.39a.11.11 0 01-.13 0c.07-.23.13-.49.16-.65h.09c0 .11.08.12.36.12h1.68c.2 0 .26 0 .31-.12a.08.08 0 01.06 0 2.81 2.81 0 00-.07.68.09.09 0 01-.12 0c-.06-.33-.13-.41-.57-.41h-.24c-.11 0-.11 0-.11.18v1.84c0 .45 0 .46.23.48h.15a.09.09 0 010 .12h-1.2a.08.08 0 010-.12h.17c.19 0 .23 0 .23-.48zM23.48 32.71c.13 0 .16 0 .2.12l.18.51c.05.18 0 .21-.11.22h-.1a.09.09 0 000 .12h1.06a.09.09 0 000-.12h-.06c-.22 0-.24-.07-.34-.35l-.61-1.78c-.07-.19-.12-.38-.19-.58a.08.08 0 00-.07 0 .77.77 0 01-.3.2.66.66 0 01-.08.31l-.58 1.51c-.09.23-.16.41-.21.52s-.1.18-.23.2h-.13a.09.09 0 000 .12h.87v-.12h-.13c-.16 0-.17 0-.09-.29l.15-.44c0-.12.06-.12.17-.12zm-.48-.19c-.1 0-.14 0-.07-.18l.18-.5.12-.34a1.83 1.83 0 01.12.34l.18.51c0 .14 0 .17-.1.17zM16.52 36.16v-.32a.69.69 0 01.31-.06c.64 0 1.09.41 1.09 1.25s-.31 1.25-1 1.25c-.41 0-.44-.22-.44-.63zm-.45 1.65c0 .45 0 .47-.21.49h-.09v.12h1.05a1.85 1.85 0 001-.21 1.35 1.35 0 00.65-1.21 1.29 1.29 0 00-.79-1.27 2.15 2.15 0 00-.91-.15 9.09 9.09 0 00-1 0 .11.11 0 000 .12h.08c.19 0 .19.08.19.49zM19 36.23c0-.44 0-.46-.23-.49h-.07a.08.08 0 010-.12h1.08a.09.09 0 010 .12h-.1c-.19 0-.22 0-.22.49v1c0 .57.17 1.07.74 1.07s.76-.42.76-1.06v-.54a2.32 2.32 0 00-.08-.83.28.28 0 00-.2-.11h-.08v-.12h.89a.08.08 0 010 .12h-.09c-.07 0-.15 0-.18.1a3.62 3.62 0 00-.05.83v.51a1.4 1.4 0 01-.28 1 1 1 0 01-.8.32 1.13 1.13 0 01-.85-.27 1.21 1.21 0 01-.27-.91zM22.73 36.23c0-.44 0-.45.23-.48h.09v-.13h-1.13v.13H22c.2 0 .23 0 .23.48v1.58c0 .44 0 .46-.23.48h-.12v.12h2a3.5 3.5 0 00.17-.61.08.08 0 00-.12 0c-.19.43-.26.45-.72.45s-.39 0-.44-.09a.77.77 0 01-.07-.44z"/>
        <path d="M41.74 27.47v-2.23a15.61 15.61 0 01-7.91.58c-4.75-.68-6.72.62-6.72.62s-2-1.3-6.73-.62a15.61 15.61 0 01-7.91-.58v2.23h-1.33v16.91h13.8a2.77 2.77 0 002.17.85 2.76 2.76 0 002.16-.85h13.8V27.47zM26.53 42.68s-1.68-1.14-6.43-.53-6.46-.49-6.46-.49V26.81s2 .79 6.76.18 6.13.53 6.13.53zm14.06-1s-1.72 1.09-6.47.48-6.42.53-6.42.53V27.53s1.38-1.14 6.13-.53 6.76-.19 6.76-.19z"/>
        <path d="M31 31.63a.07.07 0 01-.11 0 .7.7 0 00-.71-.59c-.47 0-.93.37-.93 1.19s.48 1.28.95 1.28a.82.82 0 00.77-.6.07.07 0 01.11 0 1.78 1.78 0 01-.18.61h-.13a1.89 1.89 0 01-.57.1 1.54 1.54 0 01-.93-.27 1.29 1.29 0 01-.52-1.11 1.38 1.38 0 01.46-1.07 1.62 1.62 0 011-.34 2.45 2.45 0 01.63.09h.1c0 .1 0 .33.05.63M31.72 31.5c0-.45 0-.47-.23-.5h-.07v-.12h1.81c0 .06 0 .4.07.58a.09.09 0 01-.13 0c-.07-.25-.13-.35-.26-.39a1.76 1.76 0 00-.33 0h-.22c-.17 0-.17 0-.17.25v.77c0 .11 0 .11.09.11h.14c.36 0 .43 0 .46-.19v-.15h.13c.02 0 0 .26 0 .43v.44c0 .13-.1 0-.13 0v-.17c0-.18-.1-.19-.46-.19h-.14c-.09 0-.09 0-.09.11V33c0 .22 0 .37.07.44s.06.1.4.1c.53 0 .56-.12.7-.46a.09.09 0 01.13 0 2.9 2.9 0 01-.17.62h-2a.08.08 0 010-.12h.15c.2 0 .23 0 .23-.49zM34.58 31.42v-.32c0-.03 0-.05.17-.05.66 0 1.11.4 1.11 1.24s-.32 1.25-1 1.25c-.42 0-.31-.22-.31-.63zm-.45 1.65c0 .46 0 .47-.22.49h-.09v.12h1a1.74 1.74 0 00.9-.2 1.37 1.37 0 00.71-1.22 1.29 1.29 0 00-.8-1.27 2.1 2.1 0 00-.86-.14h-.91a.09.09 0 000 .12h.08c.19 0 .19.07.19.48zM38.13 31c.62 0 .87.74.87 1.38 0 .85-.35 1.21-.79 1.21-.65 0-.88-.79-.88-1.38 0-.9.42-1.21.8-1.21m0-.17a1.39 1.39 0 00-1.37 1.5 1.35 1.35 0 001.37 1.43 1.37 1.37 0 001.35-1.46 1.35 1.35 0 00-1.35-1.47M29.79 38.31a1.41 1.41 0 01-.12-.65.08.08 0 01.12 0c.08.22.31.67.71.67a.44.44 0 00.49-.45.68.68 0 00-.42-.62l-.18-.1a1 1 0 01-.58-.82c0-.42.31-.77.91-.77a2.52 2.52 0 01.56.08 2.06 2.06 0 01.09.57.09.09 0 01-.13 0 .6.6 0 00-.56-.51.43.43 0 00-.47.45.62.62 0 00.4.51l.25.15a.94.94 0 01.57.83.84.84 0 01-1 .83 1.26 1.26 0 01-.68-.18M32.22 36.26c0-.39 0-.45-.18-.47h-.15v-.12a6.2 6.2 0 01.91 0 1.74 1.74 0 01.86.17.74.74 0 01.35.64.86.86 0 01-.92.82H33a.08.08 0 010-.1.64.64 0 00.51-.7.59.59 0 00-.59-.65c-.2 0-.2 0-.2.18v1.85c0 .45 0 .47.22.49h.15v.12h-1.17v-.12H32c.19 0 .23 0 .23-.49zM34.65 37.81c0 .45 0 .47-.23.49h-.16v.12h2a2.32 2.32 0 00.18-.61.11.11 0 00-.14 0c-.14.34-.18.46-.7.45-.35 0-.42 0-.47-.09a.77.77 0 01-.07-.44v-.47c0-.11 0-.12.1-.12h.2c.36 0 .43 0 .46.19v.17h.14c.02 0 0-.28 0-.45v-.41c0-.11-.1 0-.14 0v.14c0 .19-.1.19-.46.19h-.2c-.09 0-.1 0-.1-.11V36c0-.24 0-.25.18-.25h.28a1.08 1.08 0 01.32 0c.14 0 .2.14.26.38h.13c0-.18 0-.52-.06-.59h-1.81v.13h.07c.19 0 .23 0 .23.49zM37 38.31a1.29 1.29 0 01-.12-.65h.13c.08.22.29.67.7.67a.43.43 0 00.48-.45.69.69 0 00-.41-.62l-.18-.1a1 1 0 01-.58-.82c0-.42.3-.77.9-.77a2.53 2.53 0 01.57.08 2.1 2.1 0 01.08.57h-.13a.59.59 0 00-.55-.51.43.43 0 00-.47.45.62.62 0 00.39.51l.26.15a.93.93 0 01.56.83.84.84 0 01-.95.83 1.26 1.26 0 01-.68-.18"/>
        <path d="M27.1.63H0v24.64C0 48.76 14.93 61.34 27.1 68.2c12.18-6.86 27.11-19.44 27.11-42.93V.63zm0 63.25a51.47 51.47 0 01-4-2.52 8 8 0 014-1.21 8 8 0 014 1.21c-1.38 1-2.69 1.76-4 2.52m9.41-6.77a3.22 3.22 0 01-1.67.94 7.72 7.72 0 01-1 .09c-2.75 0-3.37-1.65-6.73-1.65s-4 1.65-6.74 1.65a7.61 7.61 0 01-1-.09 3.22 3.22 0 01-1.67-.94 37.14 37.14 0 01-3.78-3.84c2.53 0 3.16 1.54 6.44 1.54 2.76 0 3.37-1.66 6.74-1.66s4 1.66 6.73 1.66c3.29 0 3.9-1.53 6.44-1.54a36.08 36.08 0 01-3.77 3.84m14-31.46a40.79 40.79 0 01-7.46 24.08 6.75 6.75 0 00-2.18-.32c-2.82 0-3.66 1.65-7 1.65-2 0-2.91-.9-4.58-1.37v-4s-.5.7-2.16.7-2.12-.76-2.12-.76v4c-1.67.47-2.54 1.38-4.58 1.38-3.36 0-4.2-1.66-7-1.66a6.78 6.78 0 00-2.19.32A40.66 40.66 0 013.7 25.65V4.33h46.81z"/>
        <path d="M29.26 20.9h9.33l3.15 1.82v-7.43l-3.15 1.82h-9.32V9.9l1.83-3.16h-8L25 9.9v7.21h-9.38l-3.15-1.82v7.43l3.15-1.82H25v3.79a6.69 6.69 0 012.16.65 6.63 6.63 0 012.16-.65V20.9zM23.55 37.05h.13c0-.11.09-.25.26-.25a.72.72 0 01.29.1c.34.15.38.17.49.17s.4-.14.44-.47h-.12c0 .18-.12.27-.26.27s-.1 0-.39-.15a1.19 1.19 0 00-.45-.15s-.35 0-.42.46"/>
    </g>
</svg>