<svg xmlns="http://www.w3.org/2000/svg" viewBox="186.64 51.8 1019 706.39" zoomAndPan="magnify" xmlns:v="https://vecta.io/nano"><style><![CDATA[.B{fill:none}.C{stroke:#000}.D{stroke-width:3}.E{fill:#fff}.F{fill:#02b4b4}.G{stroke-width:1.5}]]></style><defs><clipPath id="A"><path d="M514.04 103.92h234.91v65.227H514.04z"/></clipPath><clipPath id="B"><path d="M525.29 103.92h212.25a11.25 11.25 0 0 1 7.953 3.293c2.109 2.109 3.297 4.973 3.297 7.957v42.727c0 2.981-1.187 5.844-3.297 7.953s-4.973 3.297-7.953 3.297H525.29c-2.984 0-5.844-1.187-7.953-3.297s-3.297-4.973-3.297-7.953V115.17c0-2.984 1.188-5.848 3.297-7.957s4.969-3.293 7.953-3.293z"/></clipPath><clipPath id="C"><path d="M514.05 103.92h234.73v65.25H514.05z"/></clipPath><clipPath id="D"><path d="M525.3 103.92h212.21c2.984 0 5.844 1.184 7.953 3.293s3.297 4.973 3.297 7.953v42.719c0 2.984-1.187 5.844-3.297 7.953s-4.969 3.297-7.953 3.297H525.3c-2.984 0-5.848-1.187-7.957-3.297s-3.293-4.969-3.293-7.953v-42.719a11.25 11.25 0 0 1 3.293-7.953c2.109-2.109 4.973-3.293 7.957-3.293z"/></clipPath><clipPath id="E"><path d="M514.04 231.3h234.91v65.227H514.04z"/></clipPath><clipPath id="F"><path d="M525.29 231.3h212.25c2.981 0 5.844 1.188 7.953 3.297s3.297 4.973 3.297 7.953v42.727c0 2.984-1.187 5.848-3.297 7.957a11.25 11.25 0 0 1-7.953 3.293H525.29c-2.984 0-5.844-1.184-7.953-3.293s-3.297-4.973-3.297-7.957V242.55c0-2.981 1.188-5.844 3.297-7.953a11.25 11.25 0 0 1 7.953-3.297z"/></clipPath><clipPath id="G"><path d="M514.05 231.3h234.73v65.25H514.05z"/></clipPath><clipPath id="H"><path d="M525.3 231.3h212.21c2.984 0 5.844 1.188 7.953 3.297a11.25 11.25 0 0 1 3.297 7.953v42.719c0 2.984-1.187 5.844-3.297 7.953s-4.969 3.293-7.953 3.293H525.3c-2.984 0-5.848-1.184-7.957-3.293s-3.293-4.969-3.293-7.953V242.55c0-2.984 1.184-5.844 3.293-7.953s4.973-3.297 7.957-3.297z"/></clipPath><clipPath id="I"><path d="M514.04 373.39h234.91v65.223H514.04z"/></clipPath><clipPath id="J"><path d="M525.29 373.39h212.25a11.25 11.25 0 0 1 7.953 3.293c2.109 2.109 3.297 4.973 3.297 7.957v42.723c0 2.984-1.187 5.848-3.297 7.957a11.25 11.25 0 0 1-7.953 3.293H525.29c-2.984 0-5.844-1.184-7.953-3.293s-3.297-4.973-3.297-7.957V384.64c0-2.984 1.188-5.848 3.297-7.957s4.969-3.293 7.953-3.293z"/></clipPath><clipPath id="K"><path d="M514.05 373.39h234.73v65.25H514.05z"/></clipPath><clipPath id="L"><path d="M525.3 373.39h212.21c2.984 0 5.844 1.184 7.953 3.293s3.297 4.973 3.297 7.953v42.719c0 2.984-1.187 5.844-3.297 7.953a11.25 11.25 0 0 1-7.953 3.297H525.3c-2.984 0-5.848-1.187-7.957-3.297s-3.293-4.969-3.293-7.953v-42.719a11.25 11.25 0 0 1 3.293-7.953c2.109-2.109 4.973-3.293 7.957-3.293z"/></clipPath><clipPath id="M"><path d="M514.04 516.75h234.91v65.227H514.04z"/></clipPath><clipPath id="N"><path d="M525.29 516.75h212.25c2.981 0 5.844 1.188 7.953 3.297s3.297 4.969 3.297 7.953v42.727c0 2.984-1.187 5.844-3.297 7.953a11.24 11.24 0 0 1-7.953 3.297H525.29a11.23 11.23 0 0 1-7.953-3.297c-2.109-2.109-3.297-4.969-3.297-7.953V528c0-2.984 1.188-5.844 3.297-7.953a11.25 11.25 0 0 1 7.953-3.297z"/></clipPath><clipPath id="O"><path d="M514.05 516.75h234.73v65.246H514.05z"/></clipPath><clipPath id="P"><path d="M525.3 516.75h212.21c2.984 0 5.844 1.188 7.953 3.297A11.25 11.25 0 0 1 748.76 528v42.719c0 2.981-1.187 5.844-3.297 7.953s-4.969 3.293-7.953 3.293H525.3c-2.984 0-5.848-1.184-7.957-3.293a11.25 11.25 0 0 1-3.293-7.953V528c0-2.984 1.184-5.844 3.293-7.953s4.973-3.297 7.957-3.297z"/></clipPath><clipPath id="Q"><path d="M502.35 536.73h27.648v27.406H502.35z"/></clipPath><clipPath id="R"><path d="M513.6 536.73h5.172c2.984 0 5.844 1.184 7.953 3.293s3.297 4.973 3.297 7.957v4.906c0 2.984-1.187 5.844-3.297 7.953s-4.969 3.297-7.953 3.297H513.6c-2.984 0-5.848-1.187-7.957-3.297s-3.293-4.969-3.293-7.953v-4.906c0-2.984 1.184-5.848 3.293-7.957s4.973-3.293 7.957-3.293z"/></clipPath><clipPath id="S"><path d="M502.35 536.73h27.672v27.668H502.35z"/></clipPath><clipPath id="T"><path d="M513.6 536.73h5.172c2.984 0 5.844 1.184 7.953 3.293s3.293 4.969 3.293 7.953v4.906a11.25 11.25 0 0 1-3.293 7.953c-2.109 2.109-4.969 3.293-7.953 3.293H513.6a11.25 11.25 0 0 1-7.953-3.293c-2.106-2.109-3.293-4.973-3.293-7.953v-4.906a11.26 11.26 0 0 1 3.293-7.953 11.25 11.25 0 0 1 7.953-3.293z"/></clipPath><clipPath id="U"><path d="M502.35 124.91h27.648v27.406H502.35z"/></clipPath><clipPath id="V"><path d="M513.6 124.91h5.172c2.984 0 5.844 1.184 7.953 3.293s3.297 4.973 3.297 7.957v4.906c0 2.981-1.187 5.844-3.297 7.953s-4.969 3.297-7.953 3.297H513.6c-2.984 0-5.848-1.187-7.957-3.297a11.25 11.25 0 0 1-3.293-7.953v-4.906c0-2.984 1.184-5.848 3.293-7.957s4.973-3.293 7.957-3.293z"/></clipPath><clipPath id="W"><path d="M502.35 124.91h27.672v27.668H502.35z"/></clipPath><clipPath id="X"><path d="M513.6 124.91h5.172c2.984 0 5.844 1.184 7.953 3.293s3.293 4.969 3.293 7.953v4.902c0 2.984-1.184 5.844-3.293 7.953a11.25 11.25 0 0 1-7.953 3.297H513.6c-2.981 0-5.844-1.187-7.953-3.297a11.26 11.26 0 0 1-3.293-7.953v-4.902a11.26 11.26 0 0 1 3.293-7.953 11.25 11.25 0 0 1 7.953-3.293z"/></clipPath><clipPath id="Y"><path d="M502.35 252.7h27.648v27.406H502.35z"/></clipPath><clipPath id="Z"><path d="M513.6 252.7h5.172c2.984 0 5.844 1.184 7.953 3.293s3.297 4.973 3.297 7.957v4.906c0 2.981-1.187 5.844-3.297 7.953s-4.969 3.297-7.953 3.297H513.6c-2.984 0-5.848-1.187-7.957-3.297a11.25 11.25 0 0 1-3.293-7.953v-4.906c0-2.984 1.184-5.848 3.293-7.957s4.973-3.293 7.957-3.293z"/></clipPath><clipPath id="a"><path d="M502.35 252.7h27.672v27.668H502.35z"/></clipPath><clipPath id="b"><path d="M513.6 252.7h5.172c2.984 0 5.844 1.184 7.953 3.293s3.293 4.969 3.293 7.953v4.902c0 2.984-1.184 5.844-3.293 7.953a11.25 11.25 0 0 1-7.953 3.297H513.6c-2.981 0-5.844-1.187-7.953-3.297a11.26 11.26 0 0 1-3.293-7.953v-4.902a11.26 11.26 0 0 1 3.293-7.953 11.25 11.25 0 0 1 7.953-3.293z"/></clipPath><clipPath id="c"><path d="M502.35 390.05h27.648v27.406H502.35z"/></clipPath><clipPath id="d"><path d="M513.6 390.05h5.172c2.984 0 5.844 1.184 7.953 3.293s3.297 4.973 3.297 7.957v4.906c0 2.981-1.187 5.844-3.297 7.953s-4.969 3.297-7.953 3.297H513.6c-2.984 0-5.848-1.187-7.957-3.297a11.25 11.25 0 0 1-3.293-7.953V401.3c0-2.984 1.184-5.848 3.293-7.957s4.973-3.293 7.957-3.293z"/></clipPath><clipPath id="e"><path d="M502.35 390.05h27.672v27.668H502.35z"/></clipPath><clipPath id="f"><path d="M513.6 390.05h5.172c2.984 0 5.844 1.184 7.953 3.293s3.293 4.969 3.293 7.953v4.902c0 2.984-1.184 5.844-3.293 7.953s-4.969 3.297-7.953 3.297H513.6c-2.981 0-5.844-1.187-7.953-3.297a11.26 11.26 0 0 1-3.293-7.953v-4.902a11.26 11.26 0 0 1 3.293-7.953 11.25 11.25 0 0 1 7.953-3.293z"/></clipPath><clipPath id="g"><path d="M188.39 210.65h64.496v254.22H188.39z"/></clipPath><clipPath id="h"><path d="M188.64 453.37V221.98c0-2.984 1.188-5.848 3.297-7.957a11.25 11.25 0 0 1 7.953-3.293h41.746a11.26 11.26 0 0 1 7.957 3.293c2.109 2.109 3.293 4.973 3.293 7.957v231.39c0 2.984-1.184 5.844-3.293 7.953s-4.973 3.297-7.957 3.297H199.89c-2.981 0-5.844-1.184-7.953-3.297s-3.297-4.969-3.297-7.953z"/></clipPath><clipPath id="i"><path d="M188.64 210.37h64.359v254.25H188.64z"/></clipPath><clipPath id="j"><path d="M188.64 453.37V221.98c0-2.984 1.188-5.844 3.297-7.953s4.973-3.297 7.953-3.297h41.746c2.981 0 5.844 1.188 7.953 3.297s3.293 4.969 3.293 7.953v231.39c0 2.984-1.184 5.844-3.293 7.953s-4.973 3.297-7.953 3.297H199.89c-2.981 0-5.844-1.187-7.953-3.297s-3.297-4.969-3.297-7.953z"/></clipPath><clipPath id="k"><path d="M514.04 657.41h234.91v65.227H514.04z"/></clipPath><clipPath id="l"><path d="M525.29 657.41h212.25c2.981 0 5.844 1.188 7.953 3.297s3.297 4.969 3.297 7.953v42.727c0 2.984-1.187 5.844-3.297 7.953s-4.973 3.297-7.953 3.297H525.29c-2.984 0-5.844-1.187-7.953-3.297s-3.297-4.969-3.297-7.953V668.66c0-2.984 1.188-5.844 3.297-7.953a11.25 11.25 0 0 1 7.953-3.297z"/></clipPath><clipPath id="m"><path d="M514.05 657.41h234.73v65.25H514.05z"/></clipPath><clipPath id="n"><path d="M525.3 657.41h212.21c2.984 0 5.844 1.188 7.953 3.297a11.25 11.25 0 0 1 3.297 7.953v42.719c0 2.981-1.187 5.844-3.297 7.953s-4.969 3.293-7.953 3.293H525.3c-2.984 0-5.848-1.184-7.957-3.293a11.25 11.25 0 0 1-3.293-7.953V668.66c0-2.984 1.184-5.844 3.293-7.953s4.973-3.297 7.957-3.297z"/></clipPath><clipPath id="o"><path d="M502.35 677.39h27.648v27.406H502.35z"/></clipPath><clipPath id="p"><path d="M513.6 677.39h5.172c2.984 0 5.844 1.184 7.953 3.293s3.297 4.973 3.297 7.957v4.906c0 2.984-1.187 5.844-3.297 7.953s-4.969 3.297-7.953 3.297H513.6c-2.984 0-5.848-1.187-7.957-3.297s-3.293-4.969-3.293-7.953v-4.906c0-2.984 1.184-5.848 3.293-7.957s4.973-3.293 7.957-3.293z"/></clipPath><clipPath id="q"><path d="M502.35 677.39h27.672v27.613H502.35z"/></clipPath><clipPath id="r"><path d="M513.6 677.39h5.172c2.984 0 5.844 1.184 7.953 3.293s3.293 4.969 3.293 7.953v4.906a11.25 11.25 0 0 1-3.293 7.953c-2.109 2.109-4.969 3.293-7.953 3.293H513.6a11.25 11.25 0 0 1-7.953-3.293c-2.106-2.109-3.293-4.973-3.293-7.953v-4.906a11.26 11.26 0 0 1 3.293-7.953 11.25 11.25 0 0 1 7.953-3.293z"/></clipPath><clipPath id="s"><path d="M917.25 80.312h286.66v104.84H917.25z"/></clipPath><clipPath id="t"><path d="M928.5 80.312h263.89c2.984 0 5.848 1.188 7.957 3.297s3.293 4.969 3.293 7.953v82.336c0 2.984-1.184 5.848-3.293 7.957s-4.973 3.293-7.957 3.293H928.5a11.26 11.26 0 0 1-7.957-3.293c-2.109-2.109-3.293-4.973-3.293-7.957V91.562c0-2.984 1.184-5.844 3.293-7.953s4.973-3.297 7.957-3.297z"/></clipPath><clipPath id="u"><path d="m917.25 80.312h286.5v105h-286.5z"/></clipPath><clipPath id="v"><path d="M928.5 80.312h263.89c2.984 0 5.844 1.188 7.953 3.297s3.297 4.969 3.297 7.953v82.336c0 2.984-1.187 5.848-3.297 7.957s-4.969 3.293-7.953 3.293H928.5c-2.984 0-5.844-1.184-7.953-3.293a11.24 11.24 0 0 1-3.297-7.957V91.562a11.23 11.23 0 0 1 3.297-7.953c2.109-2.109 4.969-3.297 7.953-3.297z"/></clipPath><clipPath id="w"><path d="M917.25 220.96h286.66V325.8H917.25z"/></clipPath><clipPath id="x"><path d="M928.5 220.96h263.89c2.984 0 5.848 1.188 7.957 3.297s3.293 4.969 3.293 7.953v82.336c0 2.984-1.184 5.848-3.293 7.957s-4.973 3.293-7.957 3.293H928.5a11.26 11.26 0 0 1-7.957-3.293c-2.109-2.109-3.293-4.973-3.293-7.957V232.21c0-2.984 1.184-5.844 3.293-7.953s4.973-3.297 7.957-3.297z"/></clipPath><clipPath id="y"><path d="m917.25 220.96h286.5v105h-286.5z"/></clipPath><clipPath id="z"><path d="M928.5 220.96h263.89c2.984 0 5.844 1.188 7.953 3.297s3.297 4.969 3.297 7.953v82.336c0 2.984-1.187 5.848-3.297 7.957s-4.969 3.293-7.953 3.293H928.5c-2.984 0-5.844-1.184-7.953-3.293a11.24 11.24 0 0 1-3.297-7.957V232.21a11.23 11.23 0 0 1 3.297-7.953c2.109-2.109 4.969-3.297 7.953-3.297z"/></clipPath><clipPath id="AA"><path d="M916 364.49h287.89v104.84H916z"/></clipPath><clipPath id="AB"><path d="M927.25 364.49h265.15a11.24 11.24 0 0 1 7.957 3.297c2.109 2.109 3.293 4.969 3.293 7.953v82.336c0 2.984-1.184 5.848-3.293 7.957s-4.973 3.293-7.957 3.293H927.25c-2.984 0-5.844-1.184-7.953-3.293S916 461.06 916 458.076V375.74c0-2.984 1.188-5.844 3.297-7.953a11.23 11.23 0 0 1 7.953-3.297z"/></clipPath><clipPath id="AC"><path d="M916 364.49h288v105H916z"/></clipPath><clipPath id="AD"><path d="M927.25 364.49h265.15a11.24 11.24 0 0 1 7.957 3.297c2.109 2.109 3.293 4.969 3.293 7.953v82.336c0 2.984-1.184 5.844-3.293 7.953s-4.973 3.297-7.957 3.297H927.25c-2.984 0-5.844-1.187-7.953-3.297a11.25 11.25 0 0 1-3.297-7.953V375.74c0-2.984 1.188-5.844 3.297-7.953a11.23 11.23 0 0 1 7.953-3.297z"/></clipPath><clipPath id="AE"><path d="M968.33 53.805h188.19V94.84H968.33z"/></clipPath><clipPath id="AF"><path d="M979.58 53.805h165.58c2.984 0 5.848 1.184 7.957 3.293s3.293 4.973 3.293 7.957V83.59a11.26 11.26 0 0 1-3.293 7.957c-2.109 2.109-4.973 3.293-7.957 3.293H979.58c-2.984 0-5.848-1.184-7.957-3.293a11.26 11.26 0 0 1-3.293-7.957V65.055c0-2.984 1.184-5.848 3.293-7.957s4.973-3.293 7.957-3.293z"/></clipPath><clipPath id="AG"><path d="M968.34 53.805h188.23V95H968.34z"/></clipPath><clipPath id="AH"><path d="M979.59 53.805h165.54a11.25 11.25 0 0 1 7.953 3.293c2.109 2.109 3.293 4.969 3.293 7.953v18.531c0 2.984-1.184 5.844-3.293 7.953s-4.973 3.297-7.953 3.297H979.59a11.24 11.24 0 0 1-7.953-3.297c-2.109-2.109-3.297-4.969-3.297-7.953V65.051c0-2.984 1.188-5.844 3.297-7.953s4.969-3.293 7.953-3.293z"/></clipPath><clipPath id="AI"><path d="M966.76 198.88h188.19v41.035H966.76z"/></clipPath><clipPath id="AJ"><path d="M978.01 198.88h165.58c2.984 0 5.848 1.184 7.957 3.293s3.293 4.973 3.293 7.957v18.535c0 2.984-1.184 5.844-3.293 7.953s-4.973 3.297-7.957 3.297H978.01c-2.984 0-5.848-1.187-7.957-3.297s-3.293-4.969-3.293-7.953V210.13c0-2.984 1.184-5.848 3.293-7.957s4.973-3.293 7.957-3.293z"/></clipPath><clipPath id="AK"><path d="M966.77 198.88H1155v41.121H966.77z"/></clipPath><clipPath id="AL"><path d="M978.02 198.88h165.54c2.984 0 5.844 1.184 7.953 3.293s3.293 4.969 3.293 7.953v18.531c0 2.984-1.184 5.844-3.293 7.953a11.25 11.25 0 0 1-7.953 3.297H978.02c-2.984 0-5.844-1.187-7.953-3.297s-3.297-4.969-3.297-7.953v-18.531c0-2.984 1.188-5.844 3.297-7.953s4.969-3.293 7.953-3.293z"/></clipPath><clipPath id="AM"><path d="M966.76 343.35h188.19v41.035H966.76z"/></clipPath><clipPath id="AN"><path d="M978.01 343.35h165.58c2.984 0 5.848 1.184 7.957 3.293s3.293 4.973 3.293 7.957v18.535c0 2.984-1.184 5.844-3.293 7.953s-4.973 3.297-7.957 3.297H978.01c-2.984 0-5.848-1.187-7.957-3.297s-3.293-4.969-3.293-7.953V354.6c0-2.984 1.184-5.848 3.293-7.957s4.973-3.293 7.957-3.293z"/></clipPath><clipPath id="AO"><path d="M966.77 343.35H1155v41.25H966.77z"/></clipPath><clipPath id="AP"><path d="M978.02 343.35h165.54c2.984 0 5.844 1.184 7.953 3.293s3.293 4.969 3.293 7.953v18.531c0 2.984-1.184 5.844-3.293 7.953a11.25 11.25 0 0 1-7.953 3.297H978.02c-2.984 0-5.844-1.187-7.953-3.297s-3.297-4.969-3.297-7.953v-18.531c0-2.984 1.188-5.844 3.297-7.953s4.969-3.293 7.953-3.293z"/></clipPath><clipPath id="AQ"><path d="M917.25 505.84h286.66v104.84H917.25z"/></clipPath><clipPath id="AR"><path d="M928.5 505.84h263.89c2.984 0 5.848 1.188 7.957 3.297s3.293 4.969 3.293 7.953v82.34a11.25 11.25 0 0 1-3.293 7.953c-2.109 2.109-4.973 3.297-7.957 3.297H928.5c-2.984 0-5.844-1.187-7.957-3.297a11.25 11.25 0 0 1-3.293-7.953v-82.34c0-2.984 1.184-5.844 3.293-7.953s4.973-3.297 7.957-3.297z"/></clipPath><clipPath id="AS"><path d="m917.25 505.84h286.5v105h-286.5z"/></clipPath><clipPath id="AT"><path d="M928.5 505.84h263.89c2.984 0 5.844 1.188 7.953 3.297s3.297 4.969 3.297 7.953v82.336c0 2.984-1.187 5.848-3.297 7.957s-4.969 3.293-7.953 3.293H928.5c-2.984 0-5.844-1.184-7.953-3.293a11.24 11.24 0 0 1-3.297-7.957V517.09a11.23 11.23 0 0 1 3.297-7.953c2.109-2.109 4.969-3.297 7.953-3.297z"/></clipPath><clipPath id="AU"><path d="M968.33 482.7h188.19v41.035H968.33z"/></clipPath><clipPath id="AV"><path d="M979.58 482.7h165.58a11.24 11.24 0 0 1 7.957 3.297c2.109 2.109 3.293 4.969 3.293 7.953v18.535c0 2.984-1.184 5.848-3.293 7.957s-4.973 3.293-7.957 3.293H979.58c-2.984 0-5.848-1.184-7.957-3.293s-3.293-4.973-3.293-7.957V493.95c0-2.984 1.184-5.844 3.293-7.953a11.24 11.24 0 0 1 7.957-3.297z"/></clipPath><clipPath id="AW"><path d="M968.34 482.7h188.23v41.25H968.34z"/></clipPath><clipPath id="AX"><path d="M979.59 482.7h165.54a11.25 11.25 0 0 1 11.246 11.246v18.535a11.25 11.25 0 0 1-11.246 11.246H979.59c-2.984 0-5.848-1.184-7.953-3.293s-3.297-4.973-3.297-7.953v-18.535c0-2.981 1.188-5.844 3.297-7.953s4.969-3.293 7.953-3.293z"/></clipPath><clipPath id="AY"><path d="M917.25 651.36h286.66V756.2H917.25z"/></clipPath><clipPath id="AZ"><path d="M928.5 651.36h263.89a11.24 11.24 0 0 1 7.957 3.297c2.109 2.109 3.293 4.969 3.293 7.953v82.336c0 2.984-1.184 5.848-3.293 7.957s-4.973 3.293-7.957 3.293H928.5a11.26 11.26 0 0 1-7.957-3.293c-2.109-2.109-3.293-4.973-3.293-7.957V662.61c0-2.984 1.184-5.844 3.293-7.953s4.973-3.297 7.957-3.297z"/></clipPath><clipPath id="Aa"><path d="m917.25 651.36h286.5v105h-286.5z"/></clipPath><clipPath id="Ab"><path d="M928.5 651.36h263.89a11.23 11.23 0 0 1 7.953 3.297c2.109 2.109 3.297 4.969 3.297 7.953v82.336c0 2.984-1.187 5.844-3.297 7.953a11.23 11.23 0 0 1-7.953 3.297H928.5a11.23 11.23 0 0 1-11.25-11.25V662.61a11.23 11.23 0 0 1 11.25-11.25z"/></clipPath><clipPath id="Ac"><path d="M968.33 628.22h188.19v41.035H968.33z"/></clipPath><clipPath id="Ad"><path d="M979.58 628.22h165.58c2.984 0 5.848 1.184 7.957 3.293s3.293 4.973 3.293 7.957v18.535c0 2.984-1.184 5.844-3.293 7.953a11.24 11.24 0 0 1-7.957 3.297H979.58a11.24 11.24 0 0 1-7.957-3.297c-2.109-2.109-3.293-4.969-3.293-7.953V639.47c0-2.984 1.184-5.848 3.293-7.957s4.973-3.293 7.957-3.293z"/></clipPath><clipPath id="Ae"><path d="M968.34 628.22h188.23v41.25H968.34z"/></clipPath><clipPath id="Af"><path d="M979.59 628.22h165.54a11.25 11.25 0 0 1 7.953 3.293c2.109 2.109 3.293 4.969 3.293 7.953v18.531c0 2.984-1.184 5.844-3.293 7.953s-4.973 3.297-7.953 3.297H979.59a11.24 11.24 0 0 1-7.953-3.297c-2.109-2.109-3.297-4.969-3.297-7.953v-18.531c0-2.984 1.188-5.844 3.297-7.953s4.969-3.293 7.953-3.293z"/></clipPath><clipPath id="Ag"><path d="M903.42 679.81h27.727v27.406H903.42z"/></clipPath><clipPath id="Ah"><path d="M914.67 679.81h5.172c2.984 0 5.844 1.184 7.953 3.293s3.297 4.973 3.297 7.957v4.906c0 2.981-1.187 5.844-3.297 7.953a11.25 11.25 0 0 1-7.953 3.297h-5.172c-2.984 0-5.848-1.187-7.957-3.297a11.25 11.25 0 0 1-3.293-7.953v-4.906c0-2.984 1.184-5.848 3.293-7.957s4.973-3.293 7.957-3.293z"/></clipPath><clipPath id="Ai"><path d="M903.42 679.81h27.672v27.668H903.42z"/></clipPath><clipPath id="Aj"><path d="M914.66 679.81h5.172c2.984 0 5.844 1.184 7.953 3.293s3.293 4.969 3.293 7.953v4.902c0 2.984-1.184 5.844-3.293 7.953s-4.969 3.297-7.953 3.297h-5.172c-2.981 0-5.84-1.187-7.949-3.297s-3.297-4.969-3.297-7.953v-4.902c0-2.984 1.188-5.844 3.297-7.953a11.24 11.24 0 0 1 7.949-3.293z"/></clipPath><clipPath id="Ak"><path d="M903.42 536.65h27.727v27.402H903.42z"/></clipPath><clipPath id="Al"><path d="M914.67 536.65h5.172c2.984 0 5.844 1.184 7.953 3.293s3.297 4.973 3.297 7.957v4.902c0 2.984-1.187 5.848-3.297 7.957s-4.969 3.293-7.953 3.293h-5.172c-2.984 0-5.848-1.184-7.957-3.293s-3.293-4.973-3.293-7.957V547.9c0-2.984 1.184-5.848 3.293-7.957s4.973-3.293 7.957-3.293z"/></clipPath><clipPath id="Am"><path d="M903.42 536.65h27.672v27.668H903.42z"/></clipPath><clipPath id="An"><path d="M914.66 536.65h5.172c2.984 0 5.844 1.184 7.953 3.293s3.293 4.969 3.293 7.953v4.902c0 2.984-1.184 5.844-3.293 7.953s-4.969 3.297-7.953 3.297h-5.172c-2.981 0-5.84-1.187-7.949-3.297s-3.297-4.969-3.297-7.953v-4.902c0-2.984 1.188-5.844 3.297-7.953a11.24 11.24 0 0 1 7.949-3.293z"/></clipPath><clipPath id="Ao"><path d="M903.42 395.8h27.727v27.406H903.42z"/></clipPath><clipPath id="Ap"><path d="M914.67 395.8h5.172c2.984 0 5.844 1.188 7.953 3.297a11.25 11.25 0 0 1 3.297 7.953v4.906c0 2.984-1.187 5.848-3.297 7.957s-4.969 3.293-7.953 3.293h-5.172c-2.984 0-5.848-1.184-7.957-3.293s-3.293-4.973-3.293-7.957v-4.906c0-2.984 1.184-5.844 3.293-7.953s4.973-3.297 7.957-3.297z"/></clipPath><clipPath id="Aq"><path d="M903.42 395.8h27.672v27.672H903.42z"/></clipPath><clipPath id="Ar"><path d="M914.66 395.8h5.172c2.984 0 5.844 1.188 7.953 3.297s3.293 4.969 3.293 7.953v4.902c0 2.984-1.184 5.844-3.293 7.953s-4.969 3.293-7.953 3.293h-5.172a11.24 11.24 0 0 1-7.949-3.293c-2.109-2.109-3.297-4.969-3.297-7.953v-4.902c0-2.984 1.188-5.844 3.297-7.953s4.969-3.297 7.949-3.297z"/></clipPath><clipPath id="As"><path d="M903.42 250.21h27.727v27.406H903.42z"/></clipPath><clipPath id="At"><path d="M914.67 250.21h5.172c2.984 0 5.844 1.188 7.953 3.297s3.297 4.973 3.297 7.953v4.906c0 2.984-1.187 5.848-3.297 7.957s-4.969 3.293-7.953 3.293h-5.172c-2.984 0-5.848-1.184-7.957-3.293s-3.293-4.973-3.293-7.957v-4.906a11.25 11.25 0 0 1 3.293-7.953c2.109-2.109 4.973-3.297 7.957-3.297z"/></clipPath><clipPath id="Au"><path d="M903.42 250.21h27.672v27.672H903.42z"/></clipPath><clipPath id="Av"><path d="M914.66 250.21h5.172c2.984 0 5.844 1.188 7.953 3.297s3.293 4.969 3.293 7.953v4.902c0 2.984-1.184 5.844-3.293 7.953s-4.969 3.293-7.953 3.293h-5.172a11.24 11.24 0 0 1-7.949-3.293c-2.109-2.109-3.297-4.969-3.297-7.953v-4.902c0-2.984 1.188-5.844 3.297-7.953s4.969-3.297 7.949-3.297z"/></clipPath><clipPath id="Aw"><path d="M903.42 122.54h27.727v27.406H903.42z"/></clipPath><clipPath id="Ax"><path d="M914.67 122.54h5.172c2.984 0 5.844 1.188 7.953 3.297a11.25 11.25 0 0 1 3.297 7.953v4.906c0 2.984-1.187 5.844-3.297 7.953a11.23 11.23 0 0 1-7.953 3.297h-5.172a11.24 11.24 0 0 1-7.957-3.297c-2.109-2.109-3.293-4.969-3.293-7.953v-4.906c0-2.984 1.184-5.844 3.293-7.953s4.973-3.297 7.957-3.297z"/></clipPath><clipPath id="Ay"><path d="M903.42 122.54h27.672v27.457H903.42z"/></clipPath><clipPath id="Az"><path d="M914.66 122.54h5.172c2.984 0 5.844 1.184 7.953 3.293a11.25 11.25 0 0 1 3.293 7.953v4.906a11.25 11.25 0 0 1-3.293 7.953c-2.109 2.109-4.969 3.293-7.953 3.293h-5.172a11.24 11.24 0 0 1-7.949-3.293c-2.109-2.109-3.297-4.973-3.297-7.953v-4.906c0-2.981 1.188-5.844 3.297-7.953a11.24 11.24 0 0 1 7.949-3.293z"/></clipPath><path id="BA" d="M514.04 103.92H748.7v65.227H514.04z"/><path id="BB" d="M502.35 536.73h27.617v27.406H502.35z"/><path id="BC" d="M513.596 536.731h5.172c2.984 0 5.844 1.184 7.953 3.293s3.293 4.969 3.293 7.953v4.906a11.25 11.25 0 0 1-3.293 7.953c-2.109 2.109-4.969 3.293-7.953 3.293h-5.172a11.25 11.25 0 0 1-7.953-3.293c-2.105-2.109-3.293-4.973-3.293-7.953v-4.906a11.26 11.26 0 0 1 3.293-7.953 11.25 11.25 0 0 1 7.953-3.293z"/><path id="BD" d="M567.86 558.881c-1.094 0-2.078-.187-2.953-.562-.867-.375-1.606-.926-2.219-1.656s-1.094-1.629-1.437-2.703c-.336-1.082-.5-2.328-.5-3.734s.164-2.644.5-3.719c.344-1.07.82-1.973 1.438-2.703a5.89 5.89 0 0 1 2.219-1.672c.875-.383 1.859-.578 2.953-.578 1.07 0 2.047.195 2.922.578.883.375 1.633.934 2.25 1.672.613.73 1.086 1.633 1.422 2.703s.5 2.313.5 3.719-.168 2.652-.5 3.734c-.336 1.074-.809 1.977-1.422 2.703s-1.367 1.281-2.25 1.656c-.875.375-1.852.563-2.922.563zm0-1.797c.719 0 1.379-.125 1.984-.375a4.43 4.43 0 0 0 1.578-1.109c.438-.477.773-1.051 1.016-1.719.238-.676.359-1.43.359-2.266v-2.781c0-.832-.121-1.582-.359-2.25-.242-.676-.578-1.254-1.016-1.734s-.965-.844-1.578-1.094a5.01 5.01 0 0 0-1.984-.391c-.719 0-1.387.133-2 .391a4.48 4.48 0 0 0-1.578 1.094c-.437.48-.777 1.059-1.016 1.734-.242.668-.359 1.418-.359 2.25v2.781c0 .836.117 1.59.359 2.266.238.668.578 1.242 1.016 1.719.445.48.973.852 1.578 1.109.613.25 1.281.375 2 .375z"/><path id="BE" d="M584.441 558.881c-2.137 0-3.797-.723-4.984-2.172-1.18-1.445-1.766-3.578-1.766-6.391s.586-4.973 1.766-6.484c1.188-1.519 2.848-2.281 4.984-2.281 1.406 0 2.582.324 3.531.969.957.637 1.695 1.539 2.219 2.703l-1.625.984c-.336-.863-.844-1.551-1.531-2.062-.687-.52-1.555-.781-2.594-.781-.719 0-1.367.137-1.937.406-.562.273-1.043.664-1.437 1.172-.398.5-.699 1.102-.906 1.797-.211.688-.312 1.465-.312 2.328v2.5c0 1.731.398 3.086 1.203 4.063.801.969 1.93 1.453 3.391 1.453 1.07 0 1.969-.273 2.688-.828s1.242-1.281 1.578-2.187l1.609 1c-.531 1.188-1.293 2.121-2.281 2.797s-2.187 1.016-3.594 1.016z"/><path id="BF" d="M626.49 558.6h-2.016v-16.75h6.672c1.469 0 2.613.414 3.438 1.234.82.813 1.234 1.984 1.234 3.516 0 1.231-.289 2.242-.859 3.031-.562.793-1.398 1.32-2.5 1.578l3.844 7.391h-2.281l-3.625-7.203h-3.906zm4.656-8.922c.801 0 1.422-.207 1.859-.625s.656-1.008.656-1.781v-1.25c0-.77-.219-1.359-.656-1.766-.437-.414-1.059-.625-1.859-.625h-4.656v6.047z"/><path id="BG" d="M655.094 558.6v-16.75h10.219v1.781h-8.203v5.609h7.719v1.781h-7.719v5.797h8.203v1.781z"/><path id="BH" d="M210.679 418.109v8.25h7.391v1.969h-16.328v-1.969h7.203v-8.25h-7.203v-1.969h16.328v1.969z"/><path id="BI" d="M218.07 401.579l-4.812 1.625v6.609l4.813 1.625v2l-16.328-5.719v-2.5l16.328-5.703zm-14.5 4.875v.125l7.953 2.766v-5.641z"/><path id="BJ" d="M218.07 363.864h-1.641v-2.297h-13.047v2.297h-1.641v-6.547h1.641v2.297h13.047v-2.297h1.641z"/><path id="BK" d="M201.742 337.218v-5.484c0-1.008.172-1.926.516-2.75a5.61 5.61 0 0 1 1.531-2.125c.68-.582 1.527-1.031 2.547-1.344s2.215-.469 3.578-.469c1.356 0 2.543.156 3.563.469s1.871.762 2.547 1.344a5.57 5.57 0 0 1 1.531 2.125c.344.824.516 1.742.516 2.75v5.484zm14.594-5.484c0-.664-.109-1.281-.328-1.844a4 4 0 0 0-1-1.453c-.437-.406-.969-.719-1.594-.937-.633-.227-1.359-.344-2.172-.344h-2.672c-.812 0-1.531.117-2.156.344-.633.219-1.172.531-1.609.938a3.87 3.87 0 0 0-.984 1.453 4.9 4.9 0 0 0-.344 1.844v3.516h12.859z"/><path id="BL" d="M218.351 309.909c0 1.063-.184 2.023-.547 2.875a5.83 5.83 0 0 1-1.609 2.172c-.719.594-1.602 1.059-2.656 1.391-1.051.324-2.258.484-3.625.484-1.375 0-2.582-.16-3.625-.484-1.051-.332-1.937-.797-2.656-1.391a5.83 5.83 0 0 1-1.625-2.172c-.363-.852-.547-1.812-.547-2.875 0-1.039.184-1.988.547-2.844a5.67 5.67 0 0 1 1.625-2.187c.719-.602 1.606-1.066 2.656-1.391 1.043-.332 2.25-.5 3.625-.5 1.367 0 2.574.168 3.625.5 1.055.324 1.938.789 2.656 1.391.711.594 1.246 1.324 1.609 2.188.363.855.547 1.805.547 2.844zm-1.75 0a4.95 4.95 0 0 0-.375-1.937 4.33 4.33 0 0 0-1.078-1.531 4.88 4.88 0 0 0-1.687-.984c-.656-.238-1.391-.359-2.203-.359h-2.703c-.812 0-1.547.121-2.203.359a4.88 4.88 0 0 0-1.687.984 4.33 4.33 0 0 0-1.078 1.531c-.25.594-.375 1.242-.375 1.938s.125 1.344.375 1.938a4.46 4.46 0 0 0 1.078 1.547 4.76 4.76 0 0 0 1.688.984c.656.23 1.391.344 2.203.344h2.703c.813 0 1.547-.113 2.203-.344a4.76 4.76 0 0 0 1.688-.984 4.46 4.46 0 0 0 1.078-1.547c.25-.594.375-1.238.375-1.937z"/><path id="BM" d="M636.408 145.94v-1.687h2.359v-13.391h-2.359v-1.672h6.719v1.672h-2.344v13.391h2.344v1.688z"/><path id="BN" d="M572.419 271.37l-1.672-4.937h-6.781l-1.672 4.938h-2.047l5.859-16.75h2.563l5.859 16.75zm-5.016-14.875h-.125l-2.828 8.156h5.781z"/><path id="BO" d="M613.161 261.151l-2.016-3.719h-.062v13.938h-1.969v-16.75h2.328l6.125 10.219 2.016 3.719h.063V254.62h1.969v16.75h-2.328z"/><path id="BP" d="M604.395 399.831V414.8h-2.016v-14.969h-5.328v-1.781h12.672v1.781z"/><path id="BQ" d="M578.978 699.25v-1.687h2.359v-13.391h-2.359V682.5h6.719v1.672h-2.344v13.391h2.344v1.688z"/><path id="BR" d="M952.757 108.151h-.047c-.105.387-.359.711-.766.969-.398.258-.918.391-1.562.391a3.45 3.45 0 0 1-1.406-.281 2.88 2.88 0 0 1-1.094-.828c-.305-.363-.543-.812-.719-1.344-.168-.539-.25-1.164-.25-1.875 0-.695.082-1.316.25-1.859s.406-.988.719-1.344c.313-.363.688-.641 1.125-.828a3.56 3.56 0 0 1 1.469-.297c.75 0 1.375.168 1.875.5a3.35 3.35 0 0 1 1.172 1.328l-.828.5a2.38 2.38 0 0 0-.875-1.047c-.375-.258-.824-.391-1.344-.391-.375 0-.715.07-1.016.203s-.562.324-.781.563-.391.527-.516.859c-.117.336-.172.711-.172 1.125v1.359c0 .418.055.797.172 1.141.125.336.297.621.516.859s.484.43.797.563c.32.137.688.203 1.094.203.281 0 .551-.035.813-.109.258-.082.488-.195.688-.344.195-.156.348-.348.453-.578.113-.227.172-.5.172-.812v-.828h-1.844v-.891h2.828v4.313h-.922z"/><path id="BS" d="M955.659 109.37v-8.375h5.125v.891h-4.109v2.797h3.859v.891h-3.859v2.906h4.109v.891z"/><path id="BT" d="M964.691 104.261l-1-1.859h-.047v6.969h-.984v-8.375h1.172l3.063 5.109 1 1.859h.047v-6.969h.984v8.375h-1.172z"/><path id="BU" d="M984.229 109.37l-.844-2.469h-3.375l-.844 2.469h-1.016l2.922-8.375h1.281l2.938 8.375zm-2.5-7.437h-.062l-1.422 4.078h2.891z"/><path id="BV" d="M1004.875 103.183h.938l.656 2.672.656 2.719h.031l.75-2.719.781-2.672h.859l.797 2.672.766 2.719h.031l.625-2.719.672-2.672h.906l-1.641 6.188h-1.187l-.875-2.969-.531-1.891h-.031l-.516 1.891-.875 2.969h-1.156z"/><path id="BW" d="M1015.2 101.729c-.211 0-.359-.047-.453-.141-.094-.102-.141-.238-.141-.406v-.156c0-.156.047-.281.141-.375.094-.102.242-.156.453-.156s.359.055.453.156c.094.094.141.219.141.375v.156c0 .168-.047.305-.141.406-.094.094-.246.141-.453.141zm-.484 1.453h.969v6.188h-.969z"/><path id="BX" d="M1018.747 109.37c-.344 0-.605-.094-.781-.281-.168-.187-.25-.426-.25-.719v-7.875h.969v8.031h.906v.844z"/><path id="BY" d="M1027.116 100.495h.969v3.688h.047c.156-.383.383-.672.688-.859.313-.195.688-.297 1.125-.297.383 0 .734.078 1.047.234s.578.375.797.656c.219.273.383.609.5 1.016.113.398.172.844.172 1.344 0 .492-.059.938-.172 1.344-.117.398-.281.734-.5 1.016s-.484.5-.797.656c-.312.145-.664.219-1.047.219-.844 0-1.449-.383-1.812-1.156h-.047v1.016h-.969zm2.563 8.156c.539 0 .969-.164 1.281-.5.313-.344.469-.789.469-1.344v-1.062c0-.551-.156-.992-.469-1.328-.312-.344-.742-.516-1.281-.516a2.05 2.05 0 0 0-.625.094c-.199.055-.371.133-.516.234a1.18 1.18 0 0 0-.328.391c-.086.148-.125.305-.125.469v2.297c0 .199.039.375.125.531a1.32 1.32 0 0 0 .328.406 1.76 1.76 0 0 0 .516.25c.195.055.406.078.625.078z"/><path id="BZ" d="M1036.344 109.511a2.91 2.91 0 0 1-1.141-.219 2.64 2.64 0 0 1-.891-.656c-.242-.281-.43-.617-.562-1.016-.125-.406-.187-.852-.187-1.344s.063-.93.188-1.328c.133-.406.32-.75.563-1.031a2.64 2.64 0 0 1 .891-.656 2.72 2.72 0 0 1 1.141-.234c.414 0 .785.078 1.109.234.332.156.613.371.844.641a2.63 2.63 0 0 1 .547.953 3.7 3.7 0 0 1 .188 1.203v.453h-4.453v.297c0 .262.039.508.125.734s.203.43.359.594.344.297.563.391c.227.094.488.141.781.141.395 0 .738-.086 1.031-.266.289-.187.516-.453.672-.797l.688.5c-.199.418-.512.758-.937 1.016s-.934.391-1.516.391zm0-5.672a1.8 1.8 0 0 0-.719.141 1.69 1.69 0 0 0-.562.391c-.148.168-.266.367-.359.594a2.13 2.13 0 0 0-.125.75v.078h3.406v-.125c0-.551-.152-.992-.453-1.328-.293-.332-.687-.5-1.187-.5z"/><path id="Ba" d="M1044.791 109.37c-.336 0-.59-.094-.766-.281-.168-.187-.25-.43-.25-.734v-4.344h-1.031v-.828h.578c.207 0 .348-.039.422-.125.082-.082.125-.227.125-.437v-1.156h.859v1.719h1.359v.828h-1.359v4.516h1.266v.844z"/><path id="Bb" d="M1047.716 100.495h.969v3.688h.047c.145-.352.352-.633.625-.844.281-.207.656-.312 1.125-.312.633 0 1.141.211 1.516.625s.563 1 .563 1.75v3.969h-.969v-3.797c0-1.113-.469-1.672-1.406-1.672-.187 0-.375.027-.562.078-.18.043-.34.109-.484.203a1.02 1.02 0 0 0-.328.375c-.086.148-.125.32-.125.516v4.297h-.969z"/><path id="Bc" d="M1063.916 109.37v-6.187h.969v1.141h.063c.102-.301.301-.566.594-.797s.688-.344 1.188-.344h.375v.953h-.562c-.523 0-.93.102-1.219.297s-.437.445-.437.734v4.203z"/><path id="Bd" d="M1074.916 103.183h.969v1h.047c.156-.383.383-.672.688-.859.313-.195.688-.297 1.125-.297.383 0 .734.078 1.047.234s.578.375.797.656c.219.273.383.609.5 1.016.113.398.172.844.172 1.344 0 .492-.059.938-.172 1.344-.117.398-.281.734-.5 1.016s-.484.5-.797.656c-.312.145-.664.219-1.047.219-.844 0-1.449-.383-1.812-1.156h-.047v3.422h-.969zm2.563 5.469c.539 0 .969-.164 1.281-.5.313-.344.469-.789.469-1.344v-1.062c0-.551-.156-.992-.469-1.328-.312-.344-.742-.516-1.281-.516a2.05 2.05 0 0 0-.625.094c-.199.055-.371.133-.516.234a1.18 1.18 0 0 0-.328.391c-.086.148-.125.305-.125.469v2.297c0 .199.039.375.125.531a1.32 1.32 0 0 0 .328.406 1.76 1.76 0 0 0 .516.25c.195.055.406.078.625.078z"/><path id="Be" d="M1084.159 109.511a2.91 2.91 0 0 1-1.141-.219 2.64 2.64 0 0 1-.891-.656c-.242-.281-.43-.617-.562-1.016-.137-.406-.203-.852-.203-1.344s.066-.93.203-1.328c.133-.406.32-.75.563-1.031a2.64 2.64 0 0 1 .891-.656 2.72 2.72 0 0 1 1.141-.234c.414 0 .789.078 1.125.234a2.64 2.64 0 0 1 .891.656 2.94 2.94 0 0 1 .578 1.031c.133.398.203.84.203 1.328s-.07.938-.203 1.344c-.137.398-.328.734-.578 1.016a2.64 2.64 0 0 1-.891.656 2.82 2.82 0 0 1-1.125.219zm0-.844c.52 0 .941-.16 1.266-.484.332-.32.5-.812.5-1.469v-.891c0-.656-.168-1.141-.5-1.453-.324-.32-.746-.484-1.266-.484s-.949.164-1.281.484c-.324.313-.484.797-.484 1.453v.891c0 .656.16 1.148.484 1.469.332.324.758.484 1.281.484z"/><path id="Bf" d="M1090.475 109.511c-.574 0-1.055-.109-1.437-.328a3.28 3.28 0 0 1-1-.875l.672-.562c.238.313.504.555.797.719.301.156.648.234 1.047.234.406 0 .723-.086.953-.266s.344-.426.344-.75c0-.238-.078-.441-.234-.609-.156-.176-.437-.297-.844-.359l-.5-.062c-.281-.039-.543-.102-.781-.187a2.36 2.36 0 0 1-.641-.328c-.18-.145-.32-.32-.422-.531a1.81 1.81 0 0 1-.141-.75c0-.301.051-.566.156-.797a1.56 1.56 0 0 1 .469-.562c.195-.156.43-.27.703-.344.27-.082.563-.125.875-.125.5 0 .922.09 1.266.266a2.77 2.77 0 0 1 .891.734l-.625.578c-.137-.187-.34-.359-.609-.516-.262-.156-.594-.234-1-.234-.398 0-.699.09-.906.266-.199.168-.297.398-.297.688 0 .305.098.523.297.656.207.137.504.242.891.313l.484.063c.688.105 1.172.305 1.453.594.289.293.438.68.438 1.156 0 .594-.203 1.063-.609 1.406s-.969.516-1.687.516z"/><path id="Bg" d="M1116.544 103.183h.938l-2.766 7.625c-.074.188-.148.344-.219.469s-.164.219-.266.281c-.105.07-.234.125-.391.156a2.33 2.33 0 0 1-.562.063h-.5v-.844h.969l.469-1.328-2.312-6.422h.953l1.5 4.203.281 1.016h.063l.344-1.016z"/><path id="Bh" d="M1121.959 104.011h-1.016v-.828h1.016v-1.25c0-.437.109-.785.328-1.047.227-.258.57-.391 1.031-.391h.922v.828h-1.328v1.859h1.328v.828h-1.328v5.359h-.953z"/><path id="Bi" d="M1144.634 110.058c0 .633-.25 1.102-.75 1.406s-1.25.453-2.25.453c-.969 0-1.668-.137-2.094-.406a1.25 1.25 0 0 1-.625-1.125c0-.336.086-.594.266-.781s.414-.328.719-.422v-.125c-.367-.176-.547-.461-.547-.859 0-.312.098-.551.297-.719s.453-.285.766-.359v-.047c-.367-.176-.652-.426-.859-.75-.199-.332-.297-.719-.297-1.156 0-.312.051-.598.156-.859a2.04 2.04 0 0 1 .469-.672 2.17 2.17 0 0 1 .734-.453c.289-.102.613-.156.969-.156a2.69 2.69 0 0 1 1.172.25v-.109c0-.238.051-.437.156-.594.113-.156.301-.234.563-.234h.922v.844h-1.172v.391c.219.188.391.418.516.688a2.15 2.15 0 0 1 .188.906 2.24 2.24 0 0 1-.172.875 1.8 1.8 0 0 1-.469.672c-.211.188-.461.336-.75.438a2.71 2.71 0 0 1-.953.156 2.76 2.76 0 0 1-.594-.062c-.211.055-.398.137-.562.25-.168.105-.25.258-.25.453 0 .18.082.305.25.375.176.063.406.094.688.094h1.328c.77 0 1.328.148 1.672.438s.516.691.516 1.203zm-.891.063c0-.242-.094-.437-.281-.594-.187-.148-.523-.219-1-.219h-2.078c-.375.176-.562.457-.562.844 0 .27.098.5.297.688.207.195.555.297 1.047.297h.875c.539 0 .957-.086 1.25-.25a.82.82 0 0 0 .453-.766zm-2.156-3.578c.406 0 .727-.098.969-.297.25-.195.375-.5.375-.906v-.344c0-.406-.125-.703-.375-.891-.242-.195-.562-.297-.969-.297s-.73.102-.969.297c-.242.188-.359.484-.359.891v.344c0 .406.117.711.359.906s.563.297.969.297z"/><path id="Bj" d="M1152.316 109.37v-6.187h.969v1h.047c.145-.352.352-.633.625-.844.281-.207.656-.312 1.125-.312.633 0 1.141.211 1.516.625s.563 1 .563 1.75v3.969h-.969v-3.797c0-1.113-.469-1.672-1.406-1.672-.187 0-.375.027-.562.078-.18.043-.34.109-.484.203a1.02 1.02 0 0 0-.328.375c-.086.148-.125.32-.125.516v4.297z"/><path id="Bk" d="M1165.916 109.37v-6.187h.969v1h.047c.07-.156.148-.301.234-.437.094-.145.207-.27.344-.375s.289-.187.469-.25.383-.094.625-.094a2.24 2.24 0 0 1 1.125.297c.344.199.598.523.766.969h.016a1.93 1.93 0 0 1 .625-.875c.313-.258.734-.391 1.266-.391.633 0 1.129.211 1.484.625s.531 1 .531 1.75v3.969h-.953v-3.797c0-.551-.109-.969-.328-1.25s-.562-.422-1.031-.422a2.02 2.02 0 0 0-.562.078c-.168.043-.32.109-.453.203a1.02 1.02 0 0 0-.328.375c-.074.148-.109.32-.109.516v4.297h-.969v-3.797c0-.551-.109-.969-.328-1.25-.211-.281-.543-.422-1-.422a1.97 1.97 0 0 0-.547.078c-.18.043-.336.109-.469.203a1.02 1.02 0 0 0-.328.375c-.086.148-.125.32-.125.516v4.297z"/><path id="Bl" d="M1181.628 109.511c-.437 0-.828-.074-1.172-.219-.344-.156-.637-.375-.875-.656-.23-.281-.406-.617-.531-1.016-.125-.406-.187-.852-.187-1.344 0-.5.063-.945.188-1.344.125-.406.301-.742.531-1.016.238-.281.531-.5.875-.656s.734-.234 1.172-.234c.613 0 1.102.137 1.469.406a2.54 2.54 0 0 1 .844 1.047l-.797.422c-.117-.32-.305-.57-.562-.75-.25-.176-.57-.266-.953-.266-.293 0-.547.047-.766.141a1.53 1.53 0 0 0-.531.391c-.148.156-.258.352-.328.578s-.109.48-.109.75v1.063c0 .543.145.992.438 1.344.289.344.723.516 1.297.516.77 0 1.328-.359 1.672-1.078l.703.469a2.4 2.4 0 0 1-.891 1.063c-.398.258-.891.391-1.484.391z"/><path id="Bm" d="M951.194 124.854h-.047c-.375.773-.98 1.156-1.812 1.156a2.46 2.46 0 0 1-1.047-.219c-.312-.156-.578-.375-.797-.656s-.391-.617-.516-1.016c-.117-.406-.172-.852-.172-1.344 0-.5.055-.945.172-1.344.125-.406.297-.742.516-1.016.219-.281.484-.5.797-.656s.66-.234 1.047-.234c.426 0 .789.102 1.094.297.313.188.551.477.719.859h.047v-3.687h.953v8.875h-.953zm-1.594.297a2.29 2.29 0 0 0 .609-.078 1.86 1.86 0 0 0 .516-.25c.145-.113.258-.25.344-.406s.125-.332.125-.531v-2.297c0-.164-.043-.32-.125-.469a1.18 1.18 0 0 0-.344-.391c-.148-.102-.32-.18-.516-.234-.199-.062-.402-.094-.609-.094-.555 0-.984.172-1.297.516-.312.336-.469.777-.469 1.328v1.063c0 .555.156 1 .469 1.344.313.336.742.5 1.297.5z"/><path id="Bn" d="M958.686 125.87c-.355 0-.609-.094-.766-.281-.156-.195-.258-.441-.297-.734h-.062c-.137.387-.359.68-.672.875-.312.188-.684.281-1.109.281-.656 0-1.168-.164-1.531-.5s-.547-.789-.547-1.375.211-1.031.641-1.344 1.094-.469 2-.469h1.219v-.609c0-.437-.121-.77-.359-1-.242-.238-.609-.359-1.109-.359-.375 0-.687.09-.937.266a2.03 2.03 0 0 0-.625.672l-.578-.547c.164-.332.43-.617.797-.859.375-.238.836-.359 1.391-.359.758 0 1.348.188 1.766.563.414.367.625.875.625 1.531v3.406h.703v.844zm-2.75-.672a2.48 2.48 0 0 0 .656-.078 1.86 1.86 0 0 0 .516-.25c.145-.102.254-.223.328-.359.082-.133.125-.281.125-.437v-1.016h-1.266c-.555 0-.961.078-1.219.234a.76.76 0 0 0-.375.688v.266c0 .305.109.539.328.703.227.168.531.25.906.25z"/><path id="Bo" d="M971.825 124.464c.258 0 .445.07.563.203.113.125.172.293.172.5v.172c0 .336-.102.695-.297 1.094a3.08 3.08 0 0 1-.797 1.031h-.797a5.12 5.12 0 0 0 .578-.719c.145-.23.254-.484.328-.766-.168-.043-.289-.113-.359-.219-.074-.113-.109-.254-.109-.422v-.172c0-.207.055-.375.172-.5.113-.133.297-.203.547-.203z"/><path id="Bp" d="M928.5 220.969h263.895c2.984 0 5.844 1.187 7.953 3.297s3.297 4.969 3.297 7.953v82.335c0 2.984-1.187 5.848-3.297 7.957s-4.969 3.293-7.953 3.293H928.5c-2.984 0-5.844-1.184-7.953-3.293a11.24 11.24 0 0 1-3.297-7.957v-82.335a11.23 11.23 0 0 1 3.297-7.953c2.109-2.109 4.969-3.297 7.953-3.297z"/><path id="Bq" d="M1067.563 81.011v-1.25h1.75v-9.937h-1.75v-1.25h5v1.25h-1.75v9.938h1.75v1.25z"/><path id="Br" d="M1079.631 81.23c-1.574 0-2.805-.535-3.687-1.609-.875-1.082-1.312-2.664-1.312-4.75 0-2.094.438-3.695 1.313-4.812.883-1.125 2.113-1.687 3.688-1.687 1.051 0 1.926.242 2.625.719.707.469 1.258 1.137 1.656 2l-1.203.734c-.25-.645-.633-1.16-1.141-1.547s-1.156-.578-1.937-.578a3.25 3.25 0 0 0-1.437.313 2.9 2.9 0 0 0-1.062.859c-.293.375-.516.824-.672 1.344-.148.512-.219 1.086-.219 1.719v1.859c0 1.281.297 2.289.891 3.016.594.719 1.426 1.078 2.5 1.078.801 0 1.469-.203 2-.609s.922-.945 1.172-1.625l1.203.734c-.398.887-.965 1.586-1.703 2.094-.73.5-1.621.75-2.672.75z"/><path id="Bs" d="M1089.741 81.23c-1 0-1.859-.195-2.578-.578-.711-.383-1.312-.914-1.812-1.594l1.109-.937c.438.586.922 1.027 1.453 1.328s1.16.453 1.891.453c.883 0 1.563-.211 2.031-.641s.703-.992.703-1.703c0-.594-.18-1.051-.531-1.375s-.945-.578-1.766-.766l-1.016-.234c-1.137-.258-2.008-.648-2.609-1.172-.594-.531-.891-1.281-.891-2.25 0-.539.098-1.023.297-1.453.207-.426.488-.781.844-1.062.363-.289.797-.508 1.297-.656.508-.145 1.066-.219 1.672-.219.938 0 1.738.172 2.406.516.676.344 1.242.852 1.703 1.516l-1.109.813c-.344-.477-.762-.852-1.25-1.125s-1.094-.406-1.812-.406c-.805 0-1.434.172-1.891.516-.461.336-.687.84-.687 1.516 0 .594.191 1.043.578 1.344.395.305.984.543 1.766.719l1.016.234c1.219.273 2.098.688 2.641 1.25.551.555.828 1.293.828 2.219a4.02 4.02 0 0 1-.297 1.563 3.27 3.27 0 0 1-.844 1.172c-.367.313-.812.563-1.344.75-.531.176-1.133.266-1.797.266z"/><path id="Bt" d="M1031.684 225.77l-4.125-12.438h1.594l2.047 6.281 1.375 4.656h.094l1.406-4.656 2.063-6.281h1.547l-4.172 12.438z"/><path id="Bu" d="M1039.656 225.77v-12.438h7.594v1.328h-6.094v4.156h5.734v1.328h-5.734v4.313h6.094v1.313z"/><path id="Bv" d="M1061.056 213.332h4.172c.77 0 1.469.133 2.094.391.633.262 1.172.652 1.609 1.172.445.523.789 1.172 1.031 1.953.238.773.359 1.672.359 2.703s-.121 1.938-.359 2.719-.586 1.434-1.031 1.953c-.437.512-.977.898-1.609 1.156-.625.262-1.324.391-2.094.391h-4.172zm4.172 11.125c.508 0 .977-.082 1.406-.25a3 3 0 0 0 1.094-.766c.313-.332.551-.738.719-1.219.176-.488.266-1.039.266-1.656v-2.031c0-.613-.09-1.16-.266-1.641-.168-.477-.406-.883-.719-1.219-.305-.332-.668-.582-1.094-.75a3.68 3.68 0 0 0-1.406-.266h-2.672v9.797z"/><path id="Bw" d="M1057.544 359.761v11.109h-1.5v-11.109h-3.953v-1.328h9.406v1.328z"/><path id="Bx" d="M1059.356 497.152h5.109c1.031 0 1.836.293 2.422.875.594.586.891 1.359.891 2.328 0 .469-.07.867-.203 1.188a2.26 2.26 0 0 1-.5.797c-.199.199-.418.352-.656.453-.23.105-.449.172-.656.203v.109c.227.012.484.074.766.188.281.105.547.273.797.5s.457.527.625.891c.176.367.266.805.266 1.313s-.086.984-.25 1.422a3.39 3.39 0 0 1-.672 1.141c-.281.324-.621.578-1.016.766-.387.18-.812.266-1.281.266h-5.641zm1.5 11.125h3.688c.633 0 1.133-.16 1.5-.484.375-.332.563-.812.563-1.437v-.609c0-.633-.187-1.113-.562-1.437-.367-.32-.867-.484-1.5-.484h-3.687zm0-5.734h3.438c.594 0 1.055-.145 1.391-.437.332-.301.5-.734.5-1.297v-.609c0-.551-.168-.973-.5-1.266-.336-.301-.797-.453-1.391-.453h-3.437z"/><path id="By" d="M948.337 541.64v-.937h1.313v-7.453h-1.312v-.937h3.75v.938h-1.312v7.453h1.313v.938z"/><path id="Bz" d="M954.406 535.687h-1.125v-.937h1.125v-1.391c0-.477.117-.863.359-1.156.25-.301.629-.453 1.141-.453h1.047v.938h-1.484v2.063h1.484v.938h-1.484v5.953h-1.062z"/><path id="CA" d="M965.761 534.749h1.047l-3.078 8.5-.25.5c-.074.145-.172.254-.297.328-.117.082-.262.141-.437.172a2.78 2.78 0 0 1-.625.063h-.547v-.937h1.078l.531-1.469-2.578-7.156h1.063l1.656 4.688.313 1.125h.078l.375-1.125z"/><path id="CB" d="M970.774 541.796a3.18 3.18 0 0 1-1.266-.25c-.387-.164-.715-.406-.984-.719-.273-.32-.484-.703-.641-1.141-.148-.445-.219-.945-.219-1.5 0-.539.07-1.031.219-1.469.156-.445.367-.828.641-1.141a2.65 2.65 0 0 1 .984-.734 3.18 3.18 0 0 1 1.266-.25c.469 0 .891.086 1.266.25.383.168.711.414.984.734.281.313.492.695.641 1.141.156.438.234.93.234 1.469a4.51 4.51 0 0 1-.234 1.5c-.148.438-.359.82-.641 1.141a2.72 2.72 0 0 1-.984.719c-.375.164-.797.25-1.266.25zm0-.937c.582 0 1.055-.176 1.422-.531.363-.363.547-.91.547-1.641v-.984c0-.727-.184-1.269-.547-1.625-.367-.363-.84-.547-1.422-.547-.574 0-1.043.184-1.406.547-.367.355-.547.898-.547 1.625v.984c0 .73.18 1.277.547 1.641.363.355.832.531 1.406.531z"/><path id="CC" d="M979.911 540.515h-.062a3.44 3.44 0 0 1-.266.484c-.094.148-.219.281-.375.406a1.45 1.45 0 0 1-.547.281c-.211.07-.461.109-.75.109-.711 0-1.277-.227-1.703-.687-.418-.457-.625-1.102-.625-1.937v-4.422h1.078v4.234c0 1.242.523 1.859 1.578 1.859a2.29 2.29 0 0 0 .609-.078 2.01 2.01 0 0 0 .547-.25c.156-.102.281-.238.375-.406s.141-.363.141-.594v-4.766h1.063v6.891h-1.062z"/><path id="CD" d="M986.401 531.749h1.063v4.125h.047c.176-.395.414-.707.719-.937.313-.227.723-.344 1.234-.344.719 0 1.281.23 1.688.688.414.461.625 1.106.625 1.938v4.422h-1.062v-4.234c0-1.238-.523-1.859-1.562-1.859a2.49 2.49 0 0 0-.625.078c-.199.055-.383.137-.547.25-.156.105-.281.242-.375.406s-.141.359-.141.578v4.781h-1.062z"/><path id="CE" d="M998.991 541.64c-.398 0-.684-.102-.859-.312-.18-.219-.289-.488-.328-.812h-.062c-.156.43-.406.75-.75.969-.344.207-.758.313-1.234.313-.742 0-1.312-.187-1.719-.562-.398-.375-.594-.879-.594-1.516 0-.656.234-1.156.703-1.5.477-.344 1.223-.516 2.234-.516h1.359v-.687c0-.488-.137-.859-.406-1.109-.262-.258-.668-.391-1.219-.391-.43 0-.781.094-1.062.281-.273.18-.5.422-.687.734l-.641-.594c.188-.375.484-.691.891-.953s.922-.391 1.547-.391c.832 0 1.477.203 1.938.609.469.406.703.977.703 1.703v3.797h.797v.938zm-3.062-.75c.258 0 .5-.031.719-.094.227-.062.422-.148.578-.266.164-.113.289-.242.375-.391a.95.95 0 0 0 .141-.5v-1.141h-1.422c-.617 0-1.062.09-1.344.266s-.422.438-.422.781v.281c0 .336.117.594.359.781.25.188.586.281 1.016.281z"/><path id="CF" d="M1002.636 541.64l-2.422-6.891h1.078l1.203 3.422.75 2.344h.063l.75-2.344 1.219-3.422h1.031l-2.422 6.891z"/><path id="CG" d="M1010.334 541.796c-.48 0-.906-.086-1.281-.25a2.86 2.86 0 0 1-.984-.719 3.36 3.36 0 0 1-.625-1.141c-.148-.445-.219-.945-.219-1.5 0-.539.07-1.031.219-1.469.145-.445.352-.828.625-1.141.281-.32.609-.566.984-.734s.801-.25 1.281-.25a2.99 2.99 0 0 1 1.234.25 2.77 2.77 0 0 1 .938.703c.258.293.457.648.594 1.063a4.31 4.31 0 0 1 .203 1.344v.516h-4.953v.313a2.41 2.41 0 0 0 .141.828 2.05 2.05 0 0 0 .391.656 1.8 1.8 0 0 0 .641.438c.258.105.551.156.875.156.438 0 .816-.098 1.141-.297.32-.207.57-.504.75-.891l.766.547c-.219.48-.57.867-1.047 1.156-.469.281-1.027.422-1.672.422zm0-6.312a2.05 2.05 0 0 0-.812.156c-.242.105-.449.25-.625.438a2.05 2.05 0 0 0-.406.656c-.094.25-.141.527-.141.828v.094h3.813v-.141c0-.613-.168-1.102-.5-1.469-.336-.375-.777-.562-1.328-.562z"/><path id="CH" d="M1018.141 534.749h1.063v1.125h.047c.188-.437.445-.758.781-.969.344-.207.758-.312 1.25-.312.426 0 .813.086 1.156.25a2.46 2.46 0 0 1 .875.719c.25.313.438.695.563 1.141.133.438.203.934.203 1.484s-.07 1.055-.203 1.5c-.125.449-.312.828-.562 1.141a2.42 2.42 0 0 1-.875.719c-.344.164-.73.25-1.156.25-.937 0-1.617-.426-2.031-1.281h-.047v3.797h-1.062zm2.844 6.094c.602 0 1.078-.187 1.422-.562.352-.383.531-.883.531-1.5v-1.172c0-.613-.18-1.109-.531-1.484-.344-.383-.82-.578-1.422-.578a2.22 2.22 0 0 0-.687.109c-.219.063-.414.152-.578.266a1.38 1.38 0 0 0-.375.422 1.07 1.07 0 0 0-.141.531v2.563c0 .219.047.418.141.594s.219.328.375.453c.164.117.359.203.578.266s.445.094.688.094z"/><path id="CI" d="M1025.941 541.64v-6.891h1.063v1.266h.063c.125-.332.348-.625.672-.875.32-.258.766-.391 1.328-.391h.406v1.063h-.625c-.586 0-1.039.109-1.359.328s-.484.496-.484.828v4.672z"/><path id="CJ" d="M1040.203 541.796c-.637 0-1.172-.121-1.609-.359-.43-.25-.797-.578-1.109-.984l.766-.609c.258.336.551.594.875.781.332.18.719.266 1.156.266.457 0 .813-.094 1.063-.281.258-.195.391-.477.391-.844 0-.258-.09-.484-.266-.672-.18-.195-.492-.332-.937-.406l-.547-.078c-.324-.039-.621-.109-.891-.203a2.63 2.63 0 0 1-.703-.375 1.65 1.65 0 0 1-.469-.578c-.105-.238-.156-.516-.156-.828a1.97 1.97 0 0 1 .188-.891c.125-.258.297-.473.516-.641s.477-.289.781-.375.625-.125.969-.125c.563 0 1.031.102 1.406.297.383.188.719.461 1 .813l-.703.641c-.156-.219-.383-.41-.672-.578-.293-.176-.664-.266-1.109-.266s-.789.094-1.016.281c-.219.188-.328.449-.328.781 0 .344.109.594.328.75.227.148.555.258.984.328l.531.078c.77.117 1.316.336 1.641.656s.484.75.484 1.281c0 .668-.23 1.195-.687 1.578-.461.375-1.086.563-1.875.563z"/><path id="CK" d="M1052.041 541.64v-6.891h1.063v1.125h.047c.176-.395.414-.707.719-.937.313-.227.723-.344 1.234-.344.719 0 1.281.23 1.688.688.414.461.625 1.106.625 1.938v4.422h-1.062v-4.234c0-1.238-.523-1.859-1.562-1.859a2.49 2.49 0 0 0-.625.078c-.199.055-.383.137-.547.25-.156.105-.281.242-.375.406s-.141.359-.141.578v4.781z"/><path id="CL" d="M1062.203 541.796c-.48 0-.914-.086-1.297-.25a2.51 2.51 0 0 1-.969-.719 3.35 3.35 0 0 1-.609-1.141c-.137-.445-.203-.945-.203-1.5s.066-1.047.203-1.484c.145-.445.348-.828.609-1.141a2.55 2.55 0 0 1 .969-.719c.383-.164.816-.25 1.297-.25.688 0 1.234.152 1.641.453.414.293.727.68.938 1.156l-.891.453c-.125-.352-.336-.629-.625-.828-.281-.195-.637-.297-1.062-.297a2.14 2.14 0 0 0-.844.156c-.242.105-.445.25-.609.438-.156.18-.277.398-.359.656a2.91 2.91 0 0 0-.109.828v1.172c0 .605.16 1.106.484 1.5.32.387.801.578 1.438.578.863 0 1.488-.398 1.875-1.203l.766.516c-.219.5-.555.898-1 1.188-.437.289-.984.438-1.641.438z"/><path id="CM" d="M1083.941 531.749h1.063v4.125h.047c.188-.437.445-.758.781-.969.344-.207.758-.312 1.25-.312.426 0 .813.086 1.156.25a2.46 2.46 0 0 1 .875.719c.25.313.438.695.563 1.141.133.438.203.934.203 1.484s-.07 1.055-.203 1.5c-.125.449-.312.828-.562 1.141a2.42 2.42 0 0 1-.875.719c-.344.164-.73.25-1.156.25-.937 0-1.617-.426-2.031-1.281h-.047v1.125h-1.062zm2.844 9.094c.602 0 1.078-.187 1.422-.562.352-.383.531-.883.531-1.5v-1.172c0-.613-.18-1.109-.531-1.484-.344-.383-.82-.578-1.422-.578a2.22 2.22 0 0 0-.687.109c-.219.063-.414.152-.578.266a1.38 1.38 0 0 0-.375.422 1.07 1.07 0 0 0-.141.531v2.563c0 .219.047.418.141.594s.219.328.375.453c.164.117.359.203.578.266s.445.094.688.094z"/><path id="CN" d="M1134.747 540.515h-.062c-.418.855-1.09 1.281-2.016 1.281-.43 0-.812-.086-1.156-.25s-.641-.406-.891-.719c-.242-.312-.43-.691-.562-1.141a5.55 5.55 0 0 1-.187-1.5c0-.551.063-1.047.188-1.484.133-.445.32-.828.563-1.141a2.58 2.58 0 0 1 .891-.719c.344-.164.727-.25 1.156-.25.477 0 .891.105 1.234.313s.602.531.781.969h.063v-4.125h1.063v9.891h-1.062zm-1.781.328c.238 0 .469-.031.688-.094s.406-.148.563-.266c.164-.125.297-.273.391-.453s.141-.375.141-.594v-2.562a1.07 1.07 0 0 0-.141-.531c-.094-.164-.227-.305-.391-.422-.156-.113-.344-.203-.562-.266a2.24 2.24 0 0 0-.687-.109c-.605 0-1.086.195-1.437.578-.344.375-.516.871-.516 1.484v1.172c0 .617.172 1.117.516 1.5.352.375.832.563 1.438.563z"/><path id="CO" d="M1146.756 541.64c-.375 0-.664-.102-.859-.312-.187-.207-.281-.484-.281-.828v-4.812h-1.125v-.937h.641c.227 0 .383-.047.469-.141s.125-.254.125-.484v-1.281h.969v1.906h1.5v.938h-1.5v5.016h1.406v.938z"/><path id="CP" d="M972.852 552.749h1.031l.734 2.969.734 3.031h.031l.844-3.031.859-2.969h.953l.891 2.969.859 3.031h.031l.703-3.031.75-2.969h1l-1.828 6.891h-1.328l-.953-3.312-.609-2.094h-.016l-.594 2.094-.969 3.313h-1.297z"/><path id="CQ" d="M1000.026 559.64c-.375 0-.656-.102-.844-.312s-.281-.473-.281-.797v-8.781h1.063v8.953h1.016v.938z"/><path id="CR" d="M1017.572 551.124c-.23 0-.398-.051-.5-.156-.105-.113-.156-.258-.156-.437v-.172c0-.176.051-.32.156-.437s.27-.172.5-.172.395.059.5.172.156.262.156.438v.172a.63.63 0 0 1-.156.438c-.105.105-.273.156-.5.156zm-.531 1.625h1.063v6.891h-1.062z"/><path id="CS" d="M1116.659 559.64l-3.094-9.328h1.203l1.531 4.703 1.031 3.5h.063l1.063-3.5 1.547-4.703h1.172l-3.141 9.328z"/><path id="CT" d="M1122.65 550.312h3.828c.77 0 1.375.219 1.813.656.445.438.672 1.023.672 1.75 0 .344-.055.641-.156.891a1.68 1.68 0 0 1-.375.594c-.148.156-.309.273-.484.344a2.69 2.69 0 0 1-.5.156v.078a1.97 1.97 0 0 1 .578.141c.207.074.406.199.594.375.188.168.344.391.469.672.125.273.188.594.188.969 0 .387-.062.746-.187 1.078-.117.324-.281.605-.5.844-.211.242-.461.434-.75.578a2.22 2.22 0 0 1-.953.203h-4.234zm1.109 8.344h2.766c.477 0 .852-.117 1.125-.359.281-.25.422-.613.422-1.094v-.453c0-.469-.141-.82-.422-1.062-.273-.25-.648-.375-1.125-.375h-2.766zm0-4.312h2.578c.445 0 .797-.109 1.047-.328s.375-.539.375-.969v-.453c0-.414-.125-.734-.375-.953-.25-.227-.602-.344-1.047-.344h-2.578z"/><path id="CU" d="M1131.45 550.312h3.125c.57 0 1.094.102 1.563.297a3.29 3.29 0 0 1 1.219.875c.332.387.586.871.766 1.453s.266 1.266.266 2.047c0 .773-.09 1.449-.266 2.031s-.434 1.07-.766 1.453-.742.68-1.219.875c-.469.199-.992.297-1.562.297h-3.125zm3.125 8.344a2.88 2.88 0 0 0 1.047-.187 2.33 2.33 0 0 0 .828-.578c.227-.25.406-.551.531-.906.133-.363.203-.781.203-1.25v-1.516c0-.469-.07-.879-.203-1.234-.125-.363-.305-.672-.531-.922a2.2 2.2 0 0 0-.828-.562 2.73 2.73 0 0 0-1.047-.203h-2.016v7.359z"/><path id="CV" d="M1149.378 555.421h-4.719v4.219h-1.109v-9.328h1.109v4.125h4.719v-4.125h1.125v9.328h-1.125z"/><path id="CW" d="M980.173 595.796c-.281 0-.492-.07-.625-.203-.125-.145-.187-.332-.187-.562v-.172c0-.238.063-.426.188-.562.133-.145.344-.219.625-.219.289 0 .5.074.625.219.125.137.188.324.188.563v.172c0 .23-.062.418-.187.563-.125.133-.336.203-.625.203z"/><path id="CX" d="M948.675 257.096v8.344h-1.109v-8.344h-2.969v-.984h7.047v.984z"/><path id="CY" d="M1057.741 406.7v-6.891h1.063v1.125h.047a3.66 3.66 0 0 1 .281-.5c.102-.156.227-.289.375-.406.145-.125.316-.219.516-.281s.426-.094.688-.094c.457 0 .875.109 1.25.328.383.211.672.563.859 1.063h.031a2.06 2.06 0 0 1 .703-.969c.344-.281.805-.422 1.391-.422.707 0 1.258.23 1.656.688s.594 1.106.594 1.938v4.422h-1.062v-4.234c0-.613-.125-1.078-.375-1.391-.242-.312-.621-.469-1.141-.469-.219 0-.422.027-.609.078a1.66 1.66 0 0 0-.516.25c-.148.105-.266.242-.359.406-.086.168-.125.359-.125.578v4.781h-1.078v-4.234c0-.613-.121-1.078-.359-1.391s-.617-.469-1.125-.469c-.211 0-.414.027-.609.078s-.375.137-.531.25c-.148.105-.266.242-.359.406s-.141.359-.141.578v4.781z"/><path id="CZ" d="M1135.253 407.466c0 .707-.281 1.227-.844 1.563-.555.332-1.387.5-2.5.5-1.086 0-1.859-.148-2.328-.437s-.703-.711-.703-1.25c0-.375.094-.668.281-.875.195-.211.469-.363.813-.469v-.141a1 1 0 0 1-.609-.969c0-.344.109-.602.328-.781.219-.187.504-.328.859-.422v-.047c-.418-.195-.742-.477-.969-.844-.219-.363-.328-.785-.328-1.266 0-.352.063-.676.188-.969s.297-.539.516-.75c.227-.207.5-.367.813-.484.32-.113.68-.172 1.078-.172.488 0 .922.09 1.297.266v-.125c0-.27.063-.488.188-.656.125-.176.332-.266.625-.266h1.016v.938h-1.297v.438c.25.219.441.48.578.781.133.293.203.625.203 1 0 .344-.062.668-.187.969a2.15 2.15 0 0 1-.531.75c-.219.211-.492.371-.812.484s-.684.172-1.078.172c-.219 0-.437-.02-.656-.062-.242.063-.453.156-.641.281-.18.117-.266.277-.266.484s.094.352.281.422c.195.074.453.109.766.109h1.469c.852 0 1.473.164 1.859.484.395.324.594.77.594 1.344zm-1.016.078c0-.281-.105-.508-.312-.672-.211-.156-.578-.234-1.109-.234h-2.297c-.43.195-.641.508-.641.938a1.02 1.02 0 0 0 .328.766c.227.219.617.328 1.172.328h.984c.594 0 1.051-.094 1.375-.281a.91.91 0 0 0 .5-.844zm-2.391-4c.457 0 .816-.109 1.078-.328.27-.219.406-.551.406-1v-.375c0-.457-.137-.797-.406-1.016-.262-.219-.621-.328-1.078-.328-.449 0-.809.109-1.078.328-.262.219-.391.559-.391 1.016v.375c0 .449.129.781.391 1 .27.219.629.328 1.078.328z"/><path id="Ca" d="M903.42 679.81h27.621v27.406H903.42z"/><path id="Cb" d="M914.665 679.812h5.172c2.984 0 5.844 1.184 7.953 3.293s3.293 4.969 3.293 7.953v4.902c0 2.984-1.184 5.844-3.293 7.953s-4.969 3.297-7.953 3.297h-5.172c-2.981 0-5.84-1.187-7.949-3.297s-3.297-4.969-3.297-7.953v-4.902c0-2.984 1.187-5.844 3.297-7.953a11.24 11.24 0 0 1 7.949-3.293z"/><path id="Cc" d="M914.665 395.799h5.172c2.984 0 5.844 1.187 7.953 3.297s3.293 4.969 3.293 7.953v4.902c0 2.984-1.184 5.844-3.293 7.953s-4.969 3.293-7.953 3.293h-5.172a11.24 11.24 0 0 1-7.949-3.293c-2.109-2.109-3.297-4.969-3.297-7.953v-4.902c0-2.984 1.187-5.844 3.297-7.953s4.969-3.297 7.949-3.297z"/></defs><g clip-path="url(#A)" class="E"><g clip-path="url(#B)"><use href="#BA"/></g></g><g clip-path="url(#C)" class="B C D"><g clip-path="url(#D)"><path d="M525.3 103.921h212.212c2.984 0 5.844 1.184 7.953 3.293s3.297 4.973 3.297 7.953v42.718c0 2.984-1.187 5.844-3.297 7.953s-4.969 3.297-7.953 3.297H525.3c-2.984 0-5.848-1.187-7.957-3.297s-3.293-4.969-3.293-7.953v-42.719a11.25 11.25 0 0 1 3.293-7.953c2.109-2.109 4.973-3.293 7.957-3.293z"/></g></g><g clip-path="url(#E)" class="E"><g clip-path="url(#F)"><path d="M514.04 231.3H748.7v65.227H514.04z"/></g></g><g clip-path="url(#G)" class="B C D"><g clip-path="url(#H)"><path d="M525.3 231.298h212.212c2.984 0 5.844 1.187 7.953 3.297s3.297 4.969 3.297 7.953v42.719c0 2.984-1.187 5.844-3.297 7.953s-4.969 3.293-7.953 3.293H525.3a11.25 11.25 0 0 1-7.957-3.293c-2.109-2.109-3.293-4.969-3.293-7.953v-42.719c0-2.984 1.184-5.844 3.293-7.953s4.973-3.297 7.957-3.297z"/></g></g><g clip-path="url(#I)" class="E"><g clip-path="url(#J)"><path d="M514.04 373.39H748.7v65.223H514.04z"/></g></g><g clip-path="url(#K)" class="B C D"><g clip-path="url(#L)"><path d="M525.3 373.391h212.212c2.984 0 5.844 1.184 7.953 3.293s3.297 4.973 3.297 7.953v42.719c0 2.984-1.187 5.844-3.297 7.953s-4.969 3.297-7.953 3.297H525.3c-2.984 0-5.848-1.187-7.957-3.297s-3.293-4.969-3.293-7.953v-42.719a11.25 11.25 0 0 1 3.293-7.953c2.109-2.109 4.973-3.293 7.957-3.293z"/></g></g><g clip-path="url(#M)" class="E"><g clip-path="url(#N)"><path d="M514.04 516.75H748.7v65.227H514.04z"/></g></g><g clip-path="url(#O)" class="B C D"><g clip-path="url(#P)"><path d="M525.3 516.749h212.212c2.984 0 5.844 1.187 7.953 3.297s3.297 4.969 3.297 7.953v42.719c0 2.981-1.187 5.844-3.297 7.953s-4.969 3.293-7.953 3.293H525.3a11.25 11.25 0 0 1-11.25-11.246v-42.719c0-2.984 1.184-5.844 3.293-7.953s4.973-3.297 7.957-3.297z"/></g></g><g clip-path="url(#Q)" class="F"><g clip-path="url(#R)"><use href="#BB"/></g></g><g clip-path="url(#S)" class="B C D"><g clip-path="url(#T)"><use href="#BC"/></g></g><path d="M470.251 552.11V139.452m-.002 411.819h32.105" class="B C G"/><use href="#BD"/><use href="#BE"/><use href="#BE" x="14.86"/><path d="M610.135 541.85v10.359c0 1.606.297 2.82.891 3.641s1.633 1.234 3.125 1.234 2.523-.41 3.109-1.234c.594-.82.891-2.035.891-3.641V541.85h2.016v9.891c0 1.211-.109 2.262-.328 3.156-.211.898-.555 1.641-1.031 2.234s-1.109 1.039-1.891 1.328c-.773.281-1.719.422-2.844.422-1.117 0-2.055-.141-2.812-.422a4.19 4.19 0 0 1-1.844-1.328c-.461-.594-.793-1.336-1-2.234-.199-.895-.297-1.945-.297-3.156v-9.891z"/><use href="#BF"/><path d="M641.8 558.6h-2.016v-16.75h6.672c1.469 0 2.613.414 3.438 1.234.82.813 1.234 1.984 1.234 3.516 0 1.231-.289 2.242-.859 3.031-.562.793-1.398 1.32-2.5 1.578l3.844 7.391h-2.281l-3.625-7.203H641.8zm4.656-8.922c.801 0 1.422-.207 1.859-.625s.656-1.008.656-1.781v-1.25c0-.77-.219-1.359-.656-1.766-.437-.414-1.059-.625-1.859-.625H641.8v6.047z"/><use href="#BG"/><path d="M673.081 548.381l-2.016-3.719h-.062V558.6h-1.969v-16.75h2.328l6.125 10.219 2.016 3.719h.063V541.85h1.969v16.75h-2.328z"/><use href="#BE" x="107.42"/><use href="#BG" x="45.72"/><g clip-path="url(#U)" class="F"><g clip-path="url(#V)"><path d="M502.35 124.91h27.617v27.406H502.35z"/></g></g><g clip-path="url(#W)" class="B C D"><g clip-path="url(#X)"><path d="M513.596 124.911h5.172c2.984 0 5.844 1.184 7.953 3.293s3.293 4.969 3.293 7.953v4.902c0 2.984-1.184 5.844-3.293 7.953s-4.969 3.297-7.953 3.297h-5.172c-2.981 0-5.844-1.187-7.953-3.297a11.26 11.26 0 0 1-3.293-7.953v-4.902a11.26 11.26 0 0 1 3.293-7.953 11.25 11.25 0 0 1 7.953-3.293z"/></g></g><g clip-path="url(#Y)" class="F"><g clip-path="url(#Z)"><path d="M502.35 252.7h27.617v27.406H502.35z"/></g></g><g clip-path="url(#a)" class="B C D"><g clip-path="url(#b)"><path d="M513.596 252.702h5.172c2.984 0 5.844 1.184 7.953 3.293s3.293 4.969 3.293 7.953v4.902c0 2.984-1.184 5.844-3.293 7.953a11.25 11.25 0 0 1-7.953 3.297h-5.172c-2.981 0-5.844-1.187-7.953-3.297a11.26 11.26 0 0 1-3.293-7.953v-4.902a11.26 11.26 0 0 1 3.293-7.953 11.25 11.25 0 0 1 7.953-3.293z"/></g></g><g clip-path="url(#c)" class="F"><g clip-path="url(#d)"><path d="M502.35 390.05h27.617v27.406H502.35z"/></g></g><g clip-path="url(#e)" class="B C D"><g clip-path="url(#f)"><path d="M513.596 390.051h5.172c2.984 0 5.844 1.184 7.953 3.293s3.293 4.969 3.293 7.953v4.906a11.24 11.24 0 0 1-3.293 7.949c-2.109 2.109-4.969 3.297-7.953 3.297h-5.172c-2.981 0-5.844-1.187-7.953-3.297s-3.293-4.969-3.293-7.949v-4.906a11.26 11.26 0 0 1 3.293-7.953 11.25 11.25 0 0 1 7.953-3.293z"/></g></g><path d="M470.249 138.621h32.105m-249.463 199.05h216.518m1.67-71.269h32.105m-32.105 136.509h32.105" class="B C G"/><g clip-path="url(#g)" class="E"><g clip-path="url(#h)"><path d="M188.64 464.62V210.65h64.246v253.97z"/></g></g><g clip-path="url(#i)" class="B C D"><g clip-path="url(#j)"><path d="M188.638 453.371v-231.39c0-2.984 1.187-5.844 3.297-7.953s4.973-3.297 7.953-3.297h41.746c2.981 0 5.844 1.187 7.953 3.297s3.293 4.969 3.293 7.953v231.39c0 2.984-1.184 5.844-3.293 7.953s-4.973 3.297-7.953 3.297h-41.746c-2.981 0-5.844-1.187-7.953-3.297a11.25 11.25 0 0 1-3.297-7.953z"/></g></g><path d="M218.07 446.893l-16.328 3.969v-2.078l7.859-1.75 6.109-1.359v-.047l-6.109-1.531-7.859-2.047v-2.25l7.859-1.984 6.078-1.531v-.062l-6.078-1.406-7.859-1.844v-2.016l16.328 4.188v2.172l-8.141 2.141-5.984 1.484v.047l5.984 1.547 8.141 2.172z"/><use href="#BH"/><use href="#BI"/><path d="M203.476 391.318h14.594v1.969h-14.594v5.188h-1.734V386.13h1.734zm6.578-17.671l2.563 2.313h5.453v1.969h-16.328v-1.969h8.672v-.062l-2.828-2.344-5.844-4.937v-2.406l7 6.078 9.328-6.5v2.438z"/><use href="#BJ"/><path d="M208.101 349.795l-3.625 1.969v.063h13.594v1.922h-16.328v-2.266l9.969-5.969 3.625-1.969v-.062h-13.594v-1.922h16.328v2.266z"/><use href="#BK"/><use href="#BL"/><path d="M218.07 299.468h-16.328v-9.734h1.734v7.766h5.469v-7.094h1.734v7.094h7.391z"/><use href="#BK" y="-56.34"/><use href="#BI" y="-146.61"/><path d="M203.476 244.708h14.594v1.969h-14.594v5.188h-1.734V239.52h1.734z"/><use href="#BI" y="-174.96"/><use href="#BK" x="24.75" y="59.86"/><use href="#BL" x="24.75" y="65.38"/><use href="#BJ" x="24.75" y="-3.77"/><use href="#BH" x="24.75" y="-83.87"/><use href="#BI" x="24.75" y="-83.87"/><path d="M242.82 309.219l-16.328 5.422v-2.109l8.234-2.687 6.125-1.797v-.125l-6.125-1.844-8.234-2.703v-2.047l16.328 5.5zm0-10.511h-16.328v-9.969h1.734v8h5.469v-7.531h1.734v7.531h5.656v-8h1.734zm-4.859-15.645h-3.844c-.062-1.281-.375-2.281-.937-3-.562-.727-1.332-1.094-2.312-1.094h-.328c-.789 0-1.426.25-1.906.75s-.719 1.172-.719 2.016c0 .906.262 1.633.781 2.172.512.531 1.168.891 1.969 1.078l-.656 1.734c-.5-.145-.977-.352-1.437-.625a4.42 4.42 0 0 1-1.219-1.031c-.352-.414-.629-.898-.828-1.453-.207-.562-.312-1.211-.312-1.953 0-1.445.402-2.594 1.203-3.437.793-.844 1.867-1.266 3.219-1.266.75 0 1.402.133 1.953.391s1.027.594 1.422 1a5.17 5.17 0 0 1 .938 1.375 6.6 6.6 0 0 1 .484 1.547h2.531zm5.141-.906c0 .5-.125.867-.375 1.094-.25.219-.578.328-.984.328h-.297c-.406 0-.734-.109-.984-.328-.25-.227-.375-.594-.375-1.094s.125-.863.375-1.094.578-.344.984-.344h.297c.406 0 .734.117.984.344s.375.594.375 1.094z"/><use href="#BD" x="39.23" y="-412.66"/><path d="M630.811 131.831h-.109l-1.422 2.813-4 7.281-4.016-7.281-1.422-2.812h-.109v14.109h-1.969v-16.75h2.688l4.797 9.016h.125l4.813-9.016h2.594v16.75h-1.969z"/><use href="#BM"/><path d="M652.671 146.221c-2.137 0-3.797-.723-4.984-2.172-1.18-1.445-1.766-3.578-1.766-6.391s.586-4.973 1.766-6.484c1.188-1.519 2.848-2.281 4.984-2.281 1.406 0 2.582.324 3.531.969.957.637 1.695 1.539 2.219 2.703l-1.625.984c-.336-.863-.844-1.551-1.531-2.062-.687-.52-1.555-.781-2.594-.781-.719 0-1.367.137-1.937.406a4.03 4.03 0 0 0-1.437 1.172c-.398.5-.699 1.102-.906 1.797-.211.688-.312 1.465-.312 2.328v2.5c0 1.73.398 3.086 1.203 4.063.801.969 1.93 1.453 3.391 1.453 1.07 0 1.969-.273 2.688-.828s1.242-1.281 1.578-2.187l1.609 1c-.531 1.188-1.293 2.121-2.281 2.797s-2.187 1.016-3.594 1.016zm13.647 0c-1.367 0-2.527-.258-3.484-.766-.961-.52-1.773-1.238-2.437-2.156l1.484-1.25c.594.781 1.25 1.383 1.969 1.797.719.406 1.566.609 2.547.609 1.195 0 2.109-.285 2.734-.859.633-.582.953-1.352.953-2.312 0-.801-.242-1.414-.719-1.844-.48-.437-1.273-.781-2.375-1.031l-1.375-.312c-1.531-.352-2.703-.883-3.516-1.594-.805-.719-1.203-1.723-1.203-3.016 0-.738.133-1.394.406-1.969s.648-1.051 1.141-1.437 1.07-.676 1.75-.875c.676-.207 1.426-.312 2.25-.312 1.258 0 2.336.234 3.234.703.906.469 1.672 1.152 2.297 2.047l-1.5 1.094c-.469-.633-1.031-1.133-1.687-1.5-.656-.375-1.477-.562-2.453-.562-1.062 0-1.906.23-2.531.688-.617.461-.922 1.141-.922 2.047 0 .805.258 1.406.781 1.813s1.305.73 2.359.969l1.375.313c1.644.375 2.836.938 3.578 1.688s1.109 1.75 1.109 3c0 .773-.137 1.469-.406 2.094a4.29 4.29 0 0 1-1.141 1.578c-.492.43-1.094.762-1.812 1-.711.238-1.512.359-2.406.359z"/><path d="M748.792 263.909h154.627m-155.038 145.59h155.033" class="B C G"/><use href="#BN"/><path d="M577.264 254.62h6.891c1.383 0 2.473.391 3.266 1.172s1.188 1.828 1.188 3.141c0 .625-.09 1.156-.266 1.594-.168.43-.391.781-.672 1.063a2.68 2.68 0 0 1-.891.625 4.1 4.1 0 0 1-.875.281v.141c.301.012.641.09 1.016.234s.727.375 1.063.688a3.78 3.78 0 0 1 .859 1.203c.227.492.344 1.078.344 1.766a5.51 5.51 0 0 1-.328 1.922c-.211.586-.508 1.094-.891 1.531a4.27 4.27 0 0 1-1.375 1.016c-.523.25-1.094.375-1.719.375h-7.609zm2.016 14.969h4.969c.863 0 1.539-.219 2.031-.656.5-.437.75-1.082.75-1.937v-.812c0-.844-.25-1.484-.75-1.922-.492-.445-1.168-.672-2.031-.672h-4.969zm0-7.719h4.625c.801 0 1.426-.195 1.875-.594.445-.406.672-.984.672-1.734v-.812c0-.758-.227-1.336-.672-1.734s-1.074-.594-1.875-.594h-4.625zm15.505-7.25v10.359c0 1.606.297 2.82.891 3.641s1.633 1.234 3.125 1.234 2.523-.41 3.109-1.234c.594-.82.891-2.035.891-3.641V254.62h2.016v9.891c0 1.211-.109 2.262-.328 3.156-.211.898-.555 1.641-1.031 2.234s-1.109 1.039-1.891 1.328c-.773.281-1.719.422-2.844.422-1.117 0-2.055-.141-2.812-.422a4.19 4.19 0 0 1-1.844-1.328c-.461-.594-.793-1.336-1-2.234-.199-.895-.297-1.945-.297-3.156v-9.891z"/><use href="#BO"/><path d="M626.034 254.62h5.609c1.039 0 1.984.18 2.828.531.852.344 1.578.867 2.172 1.563.602.699 1.066 1.574 1.391 2.625.32 1.043.484 2.262.484 3.656s-.164 2.621-.484 3.672c-.324 1.043-.789 1.914-1.391 2.609-.594.688-1.32 1.211-2.172 1.563-.844.355-1.789.531-2.828.531h-5.609zm5.609 14.969c.688 0 1.316-.113 1.891-.344a4.01 4.01 0 0 0 1.5-1.016c.414-.445.738-.992.969-1.641.227-.656.344-1.398.344-2.234v-2.734c0-.82-.117-1.555-.344-2.203a4.71 4.71 0 0 0-.969-1.656c-.418-.445-.918-.785-1.5-1.016-.574-.227-1.203-.344-1.891-.344h-3.594v13.188z"/><use href="#BN" x="80.16"/><use href="#BO" x="48.32"/><use href="#BE" x="95.82" y="-287.23"/><use href="#BG" x="34.11" y="-287.23"/><use href="#BP"/><use href="#BF" x="-12.04" y="-143.8"/><use href="#BN" x="65.81" y="143.43"/><use href="#BM" x="5.88" y="268.86"/><use href="#BP" x="53.88"/><path d="M748.381 550.352h155.033" class="B C G"/><g clip-path="url(#k)" class="E"><g clip-path="url(#l)"><path d="M514.04 657.41H748.7v65.227H514.04z"/></g></g><g clip-path="url(#m)" class="B C D"><g clip-path="url(#n)"><path d="M525.3 657.409h212.212c2.984 0 5.844 1.187 7.953 3.297s3.297 4.969 3.297 7.953v42.718c0 2.981-1.187 5.844-3.297 7.953s-4.969 3.293-7.953 3.293H525.3a11.25 11.25 0 0 1-11.25-11.246v-42.718c0-2.984 1.184-5.844 3.293-7.953s4.973-3.297 7.957-3.297z"/></g></g><g clip-path="url(#o)" class="F"><g clip-path="url(#p)"><path d="M502.35 677.39h27.617v27.406H502.35z"/></g></g><g clip-path="url(#q)" class="B C D"><g clip-path="url(#r)"><path d="M513.596 677.391h5.172c2.984 0 5.844 1.184 7.953 3.293s3.293 4.969 3.293 7.953v4.906a11.25 11.25 0 0 1-3.293 7.953c-2.109 2.109-4.969 3.293-7.953 3.293h-5.172a11.25 11.25 0 0 1-7.953-3.293c-2.105-2.109-3.293-4.973-3.293-7.953v-4.906a11.26 11.26 0 0 1 3.293-7.953 11.25 11.25 0 0 1 7.953-3.293z"/></g></g><path d="M470.251 692.76V280.102m-.002 411.819h32.105" class="B C G"/><path d="M551.334 699.25V682.5h10.219v1.781h-8.203v5.609h7.719v1.781h-7.719v5.797h8.203v1.781zm13.95 0V682.5h6.672c1.5 0 2.648.43 3.453 1.281.813.855 1.219 2.027 1.219 3.516s-.406 2.664-1.219 3.516c-.805.855-1.953 1.281-3.453 1.281H567.3v7.156zm2.016-8.922h4.656c.801 0 1.422-.207 1.859-.625s.656-1.008.656-1.781v-1.25c0-.77-.219-1.359-.656-1.766-.437-.414-1.059-.625-1.859-.625H567.3z"/><use href="#BQ"/><path d="M589.324 682.5h5.609c1.039 0 1.984.18 2.828.531a5.55 5.55 0 0 1 2.172 1.563c.602.699 1.066 1.574 1.391 2.625.32 1.043.484 2.262.484 3.656s-.164 2.621-.484 3.672c-.324 1.043-.789 1.914-1.391 2.609-.594.688-1.32 1.211-2.172 1.563-.844.355-1.789.531-2.828.531h-5.609zm5.609 14.969c.688 0 1.316-.113 1.891-.344a4.01 4.01 0 0 0 1.5-1.016c.414-.445.738-.992.969-1.641.227-.656.344-1.398.344-2.234V689.5c0-.82-.117-1.555-.344-2.203a4.71 4.71 0 0 0-.969-1.656c-.418-.445-.918-.785-1.5-1.016-.574-.227-1.203-.344-1.891-.344h-3.594v13.188zm10.451 1.781V682.5h10.219v1.781H607.4v5.609h7.719v1.781H607.4v5.797h8.203v1.781zm26.987-14.109h-.109l-1.422 2.813-4 7.281-4.016-7.281-1.422-2.812h-.109v14.109h-1.969V682.5h2.688l4.797 9.016h.125l4.813-9.016h2.594v16.75h-1.969z"/><use href="#BQ" x="58.99"/><use href="#BD" x="86.73" y="140.65"/><path d="M665.264 699.25V682.5h2.016v14.969h7.125v1.781z"/><use href="#BD" x="115.65" y="140.65"/><path d="M705.028 696.797h-.062c-.211.793-.719 1.449-1.531 1.969-.812.508-1.856.766-3.125.766-1.031 0-1.977-.187-2.828-.562a6.01 6.01 0 0 1-2.203-1.656c-.605-.727-1.078-1.629-1.422-2.703-.344-1.082-.516-2.328-.516-3.734 0-1.394.164-2.629.5-3.703.344-1.082.82-1.988 1.438-2.719.625-.727 1.375-1.285 2.25-1.672.883-.383 1.863-.578 2.938-.578 1.508 0 2.766.34 3.766 1.016 1.008.668 1.785 1.555 2.328 2.656l-1.656 1.016a4.65 4.65 0 0 0-1.703-2.109c-.762-.508-1.672-.766-2.734-.766a5.15 5.15 0 0 0-2.016.391 4.68 4.68 0 0 0-1.578 1.109c-.437.48-.777 1.059-1.016 1.734s-.359 1.43-.359 2.25v2.719c0 .836.117 1.59.359 2.266s.578 1.262 1.016 1.75c.445.48.988.852 1.625 1.109.645.262 1.367.391 2.172.391a5.97 5.97 0 0 0 1.641-.219c.52-.156.973-.383 1.359-.687.395-.301.703-.68.922-1.141.227-.457.344-1 .344-1.625v-1.656h-3.703v-1.766h5.672v8.609h-1.875zm9.63 2.453v-6.625l-5.766-10.125h2.297l4.469 8.063h.078l4.453-8.062h2.313l-5.828 10.047v6.703z"/><path d="M748.792 693.512h154.627" class="B C G"/><g clip-path="url(#s)" class="E"><g clip-path="url(#t)"><path d="M917.25 80.312h286.25v104.84H917.25z"/></g></g><g clip-path="url(#u)" class="B C D"><g clip-path="url(#v)"><path d="M928.5 80.312h263.895c2.984 0 5.844 1.187 7.953 3.297a11.25 11.25 0 0 1 3.297 7.953v82.335c0 2.984-1.187 5.848-3.297 7.957s-4.969 3.293-7.953 3.293H928.5c-2.984 0-5.844-1.184-7.953-3.293a11.24 11.24 0 0 1-3.297-7.957V91.562a11.23 11.23 0 0 1 3.297-7.953c2.109-2.109 4.969-3.297 7.953-3.297z"/></g></g><use href="#BR"/><use href="#BS"/><use href="#BT"/><path d="M971.139 100.995h3.453c.695 0 1.242.199 1.641.594.395.387.594.906.594 1.563a2.02 2.02 0 0 1-.141.797 1.54 1.54 0 0 1-.328.531 1.45 1.45 0 0 1-.453.313 1.57 1.57 0 0 1-.437.141v.063c.145.012.313.055.5.125a1.67 1.67 0 0 1 .547.344c.164.156.305.359.422.609.113.242.172.531.172.875a2.73 2.73 0 0 1-.172.969c-.105.293-.25.547-.437.766-.187.211-.418.375-.687.5-.262.125-.547.188-.859.188h-3.812zm1.016 7.484h2.484c.426 0 .766-.109 1.016-.328s.375-.539.375-.969v-.406c0-.426-.125-.75-.375-.969s-.59-.328-1.016-.328h-2.484zm0-3.859h2.313c.406 0 .719-.098.938-.297.227-.207.344-.5.344-.875v-.406c0-.375-.117-.66-.344-.859-.219-.195-.531-.297-.937-.297h-2.312z"/><use href="#BU"/><use href="#BT" x="24.01"/><path d="M997.353 105.261l-1.187 1.313v2.797h-1.016v-8.375h1.016v4.453h.031l1.203-1.453 2.531-3h1.234l-3.109 3.594 3.328 4.781h-1.25z"/><use href="#BV"/><use href="#BW"/><use href="#BX"/><use href="#BX" x="3.3"/><use href="#BY"/><use href="#BZ"/><use href="#Ba"/><use href="#Bb"/><use href="#BZ" x="20.5"/><use href="#Bc"/><use href="#BZ" x="34.3"/><use href="#Bd"/><use href="#Be"/><use href="#Bf"/><use href="#BW" x="79.7"/><use href="#Ba" x="54"/><use href="#Be" x="19.8"/><use href="#Bc" x="44.4"/><use href="#Bg"/><use href="#Bh"/><use href="#Be" x="43.6"/><use href="#Bc" x="68.3"/><use href="#Bi"/><use href="#BZ" x="111.7"/><use href="#Bj"/><use href="#Be" x="77.3"/><use href="#Bk"/><use href="#BW" x="161.6"/><use href="#Bl"/><use href="#Bm"/><use href="#Bn"/><use href="#Ba" x="-82.82" y="16.5"/><use href="#Bn" x="10.62"/><use href="#Bo"/><path d="M979.759 126.011c-.68 0-1.258-.133-1.734-.391a3.86 3.86 0 0 1-1.234-1.062l.75-.625c.289.387.613.684.969.891.363.199.789.297 1.281.297.602 0 1.063-.141 1.375-.422.32-.289.484-.676.484-1.156 0-.395-.125-.703-.375-.922-.242-.219-.637-.391-1.187-.516l-.672-.156c-.773-.176-1.359-.441-1.766-.797s-.609-.859-.609-1.516c0-.363.066-.687.203-.969.133-.289.32-.531.563-.719a2.5 2.5 0 0 1 .891-.437 3.94 3.94 0 0 1 1.125-.156c.625 0 1.16.117 1.609.344a3.12 3.12 0 0 1 1.156 1.016l-.75.563c-.23-.32-.512-.57-.844-.75-.324-.187-.73-.281-1.219-.281-.543 0-.969.117-1.281.344-.305.219-.453.559-.453 1.016 0 .406.129.715.391.922.258.199.656.355 1.188.469l.688.156c.82.188 1.414.469 1.781.844s.547.875.547 1.5c0 .387-.07.734-.203 1.047a2.06 2.06 0 0 1-.562.797c-.25.211-.555.375-.906.5a3.96 3.96 0 0 1-1.203.172zm5.636-.141h-1.016v-8.375h3.344c.738 0 1.313.203 1.719.609.414.406.625.996.625 1.766 0 .617-.148 1.121-.437 1.516-.281.398-.699.656-1.25.781l1.922 3.703h-1.141l-1.812-3.594h-1.953zm2.328-4.469c.395 0 .703-.102.922-.312.227-.207.344-.5.344-.875v-.625c0-.383-.117-.68-.344-.891-.219-.207-.527-.312-.922-.312h-2.328v3.016z"/><use href="#BU" x="13.08" y="16.5"/><use href="#Bh" x="-119.1" y="16.5"/><use href="#Be" x="-75.4" y="16.5"/><use href="#Bc" x="-50.8" y="16.5"/><use href="#Bk" x="-145.6" y="16.5"/><use href="#BZ" x="-3.2" y="16.5"/><use href="#Ba" x="-6" y="16.5"/><use href="#Bn" x="87.43"/><use href="#Bi" x="-91.4" y="16.5"/><use href="#BZ" x="20.3" y="16.5"/><use href="#Bi" x="-78.5" y="16.5"/><use href="#Be" x="-14.5" y="16.5"/><use href="#Bk" x="-91.9" y="16.5"/><use href="#BW" x="69.8" y="16.5"/><use href="#Bl" x="-91.8" y="16.5"/><use href="#Bf" x="4.9" y="16.5"/><use href="#Bn" x="148.03"/><use href="#Bj" x="-43.7" y="16.5"/><use href="#Bm" x="168.19"/><use href="#Ba" x="-96.19" y="33"/><use href="#Bc" x="-112.48" y="33"/><use href="#Bn" x="1.66" y="16.5"/><use href="#Bj" x="-190.07" y="33"/><use href="#Bf" x="-119.55" y="33"/><use href="#Bl" x="-204.41" y="33"/><use href="#Bc" x="-82.97" y="33"/><use href="#BW" x="-29.36" y="33"/><use href="#Bd" x="-86.56" y="33"/><use href="#Ba" x="-48.1" y="33"/><use href="#Be" x="-82.29" y="33"/><use href="#Bk" x="-159.7" y="33"/><use href="#BW" x="2" y="33"/><use href="#Bl" x="-159.6" y="33"/><use href="#Bf" x="-62.9" y="33"/><use href="#Bo" x="60.4" y="16.5"/><path d="M1037.809 142.37v-8.375h3.344c.75 0 1.328.215 1.734.641s.609 1.016.609 1.766c0 .742-.203 1.324-.609 1.75s-.984.641-1.734.641h-2.328v3.578zm1.016-4.469h2.328c.395 0 .703-.102.922-.312.227-.207.344-.5.344-.875v-.625c0-.383-.117-.68-.344-.891-.219-.207-.527-.312-.922-.312h-2.328z"/><use href="#Bc" x="-18.9" y="33"/><use href="#Be" x="-32.4" y="33"/><use href="#Ba" x="12.7" y="33"/><use href="#BZ" x="26.3" y="33"/><use href="#Be" x="-14.9" y="33"/><use href="#Bk" x="-92.3" y="33"/><use href="#BZ" x="50.1" y="33"/><path d="M1099.563 142.37h-1.203l-2.203-3.516h-.016l-2.203 3.516h-1.156l2.75-4.266-2.672-4.109h1.219l2.094 3.328h.031l2.141-3.328h1.156l-2.687 4.078z"/><use href="#Bl" x="-78.5" y="33"/><use href="#Bb" x="59.2" y="33"/><use href="#Bn" x="159.53" y="16.5"/><use href="#Bj" x="-32.2" y="33"/><use href="#Bi" x="-12.5" y="33"/><use href="#BZ" x="99.3" y="33"/><use href="#Bh" x="21.1" y="33"/><use href="#Be" x="64.8" y="33"/><use href="#Bc" x="89.4" y="33"/><use href="#Bd" x="-127.69" y="49.5"/><use href="#Bc" x="-109.73" y="49.5"/><use href="#Be" x="-123.23" y="49.5"/><use href="#Ba" x="-78.11" y="49.5"/><use href="#BZ" x="-64.49" y="49.5"/><use href="#Be" x="-105.71" y="49.5"/><use href="#Bk" x="-183.09" y="49.5"/><use href="#BW" x="-21.41" y="49.5"/><use href="#Bl" x="-183.01" y="49.5"/><use href="#Bf" x="-86.3" y="49.5"/><use href="#Bn" x="56.83" y="33"/><use href="#Bj" x="-134.9" y="49.5"/><use href="#Bm" x="76.99" y="33"/><use href="#Bk" x="-131.9" y="49.5"/><use href="#BW" x="29.8" y="49.5"/><use href="#Bl" x="-131.8" y="49.5"/><use href="#Bc" x="-10.4" y="49.5"/><use href="#Be" x="-23.9" y="49.5"/><use href="#Bn" x="110.53" y="33"/><use href="#Bc" x="7.2" y="49.5"/><use href="#Bc" x="11.6" y="49.5"/><use href="#Bn" x="125.73" y="33"/><use href="#Bg" x="-26.4" y="49.5"/><use href="#BV" x="89.6" y="49.5"/><use href="#BW" x="89.6" y="49.5"/><use href="#BX" x="89.6" y="49.5"/><use href="#BX" x="92.9" y="49.5"/><use href="#BY" x="89.6" y="49.5"/><use href="#BZ" x="89.6" y="49.5"/><use href="#Bf" x="-141.39" y="66"/><path d="M956.894 174.354h-.062c-.062.148-.141.293-.234.438a1.64 1.64 0 0 1-.328.375 1.62 1.62 0 0 1-.5.25c-.187.063-.414.094-.672.094-.637 0-1.148-.203-1.531-.609-.375-.414-.562-1-.562-1.75v-3.969h.969v3.797c0 1.117.473 1.672 1.422 1.672.188 0 .367-.02.547-.062a1.62 1.62 0 0 0 .469-.219c.145-.102.258-.227.344-.375.094-.145.141-.32.141-.531v-4.281h.953v6.188h-.953z"/><use href="#BY" x="-67.23" y="66"/><use href="#Bk" x="-199.07" y="66"/><use href="#BW" x="-37.39" y="66"/><use href="#Ba" x="-63.09" y="66"/><use href="#Ba" x="-58.88" y="66"/><use href="#BZ" x="-45.27" y="66"/><use href="#Bm" x="48.11" y="49.5"/><use href="#Ba" x="-38.3" y="66"/><use href="#Be" x="-72.5" y="66"/><use href="#BR" x="71.69" y="66"/><use href="#BS" x="71.65" y="66"/><path d="M1037.45 175.511a3.7 3.7 0 0 1-1.469-.281 3.01 3.01 0 0 1-1.125-.828c-.305-.363-.539-.812-.703-1.344-.168-.539-.25-1.164-.25-1.875s.082-1.328.25-1.859c.164-.539.398-.992.703-1.359a3.06 3.06 0 0 1 1.125-.828c.437-.187.926-.281 1.469-.281.531 0 1.016.094 1.453.281.445.188.82.465 1.125.828.313.367.551.82.719 1.359.164.531.25 1.152.25 1.859s-.086 1.336-.25 1.875c-.168.531-.406.98-.719 1.344-.305.367-.68.641-1.125.828-.437.188-.922.281-1.453.281zm0-.891a2.56 2.56 0 0 0 .984-.187 2.24 2.24 0 0 0 .797-.562 2.43 2.43 0 0 0 .5-.859 3.27 3.27 0 0 0 .188-1.125v-1.406c0-.414-.062-.789-.187-1.125-.117-.332-.281-.617-.5-.859a2.11 2.11 0 0 0-.797-.547 2.44 2.44 0 0 0-.984-.203c-.367 0-.699.07-1 .203a2.16 2.16 0 0 0-.781.547 2.66 2.66 0 0 0-.516.859c-.117.336-.172.711-.172 1.125v1.406c0 .406.055.781.172 1.125.125.336.297.621.516.859a2.25 2.25 0 0 0 .781.563c.301.125.633.188 1 .188zm5.875.891c-.25 0-.434-.062-.547-.187s-.172-.289-.172-.5v-.156c0-.207.055-.375.172-.5.113-.133.297-.203.547-.203.258 0 .445.07.563.203a.72.72 0 0 1 .172.5v.156c0 .211-.059.375-.172.5s-.305.188-.562.188z"/><g clip-path="url(#w)" class="E"><g clip-path="url(#x)"><path d="M917.25 220.96h286.25V325.8H917.25z"/></g></g><g clip-path="url(#y)" class="B C D"><g clip-path="url(#z)"><use href="#Bp"/></g></g><g clip-path="url(#AA)" class="E"><g clip-path="url(#AB)"><path d="M916 364.49h287.48v104.84H916z"/></g></g><g clip-path="url(#AC)" class="B C D"><g clip-path="url(#AD)"><path d="M927.249 364.49h265.147a11.24 11.24 0 0 1 7.957 3.297c2.109 2.109 3.293 4.969 3.293 7.953v82.335c0 2.984-1.184 5.844-3.293 7.953s-4.973 3.297-7.957 3.297H927.249c-2.984 0-5.844-1.187-7.953-3.297a11.25 11.25 0 0 1-3.297-7.953V375.74c0-2.984 1.187-5.844 3.297-7.953a11.23 11.23 0 0 1 7.953-3.297z"/></g></g><g clip-path="url(#AE)" class="F"><g clip-path="url(#AF)"><path d="M968.33 53.805h188.03V94.84H968.33z"/></g></g><g clip-path="url(#AG)" class="B C D"><g clip-path="url(#AH)"><path d="M979.589 53.805h165.54a11.25 11.25 0 0 1 7.953 3.293c2.109 2.109 3.293 4.969 3.293 7.953v18.531c0 2.984-1.184 5.844-3.293 7.953s-4.973 3.297-7.953 3.297h-165.54c-2.984 0-5.844-1.187-7.953-3.297a11.25 11.25 0 0 1-3.297-7.953V65.051c0-2.984 1.187-5.844 3.297-7.953s4.969-3.293 7.953-3.293z"/></g></g><g class="E"><path d="M1045.813 81.23c-.812 0-1.543-.141-2.187-.422a4.48 4.48 0 0 1-1.656-1.234c-.457-.543-.812-1.211-1.062-2.016s-.375-1.723-.375-2.766.125-1.957.375-2.75c.25-.801.602-1.473 1.063-2.016a4.28 4.28 0 0 1 1.656-1.234c.645-.281 1.375-.422 2.188-.422.789 0 1.508.141 2.156.422a4.31 4.31 0 0 1 1.672 1.234c.457.543.813 1.215 1.063 2.016.25.793.375 1.711.375 2.75s-.125 1.965-.375 2.766-.605 1.477-1.062 2.016a4.47 4.47 0 0 1-1.672 1.234c-.648.281-1.367.422-2.156.422zm0-1.344a3.77 3.77 0 0 0 1.469-.281 3.25 3.25 0 0 0 1.156-.812c.332-.363.586-.789.766-1.281.176-.5.266-1.062.266-1.687v-2.062a5.02 5.02 0 0 0-.266-1.672 3.66 3.66 0 0 0-.766-1.281 3.29 3.29 0 0 0-1.156-.812 3.64 3.64 0 0 0-1.469-.297c-.543 0-1.039.102-1.484.297a3.4 3.4 0 0 0-1.172.813 3.69 3.69 0 0 0-.75 1.281c-.176.5-.266 1.059-.266 1.672v2.063c0 .625.086 1.188.266 1.688.176.492.426.918.75 1.281.332.355.723.625 1.172.813s.941.281 1.484.281zm17.631-9.344h-.094l-1.047 2.078-2.969 5.422-2.984-5.422-1.047-2.078h-.094v10.469h-1.453V68.573h2l3.563 6.703h.078l3.594-6.703h1.922v12.438h-1.469z"/><use href="#Bq"/><use href="#Br"/><use href="#Bs"/></g><g clip-path="url(#AI)" class="F"><g clip-path="url(#AJ)"><path d="M966.76 198.88h188.03v41.035H966.76z"/></g></g><g clip-path="url(#AK)" class="B C D"><g clip-path="url(#AL)"><path d="M978.019 198.882h165.54c2.984 0 5.844 1.184 7.953 3.293s3.293 4.969 3.293 7.953v18.531c0 2.984-1.184 5.844-3.293 7.953s-4.969 3.297-7.953 3.297h-165.54c-2.984 0-5.844-1.187-7.953-3.297s-3.297-4.969-3.297-7.953v-18.531c0-2.984 1.187-5.844 3.297-7.953s4.969-3.293 7.953-3.293z"/></g></g><g class="E"><use href="#Bt"/><use href="#Bu"/><use href="#Br" x="-25.3" y="144.759"/><use href="#Bv"/><path d="M1075.8 225.77v-4.922l-4.266-7.516h1.703l3.313 5.984h.063l3.313-5.984h1.703l-4.328 7.469v4.969zm10.672-7.594l-1.5-2.75h-.062v10.344h-1.453v-12.438h1.734l4.531 7.594 1.5 2.766h.047v-10.359h1.469v12.438h-1.734z"/></g><g clip-path="url(#AM)" class="F"><g clip-path="url(#AN)"><path d="M966.76 343.35h188.03v41.035H966.76z"/></g></g><g clip-path="url(#AO)" class="B C D"><g clip-path="url(#AP)"><path d="M978.019 343.352h165.54c2.984 0 5.844 1.184 7.953 3.293s3.293 4.969 3.293 7.953v18.531c0 2.984-1.184 5.844-3.293 7.953a11.25 11.25 0 0 1-7.953 3.297h-165.54c-2.984 0-5.844-1.187-7.953-3.297a11.25 11.25 0 0 1-3.297-7.953v-18.531c0-2.984 1.187-5.844 3.297-7.953s4.969-3.293 7.953-3.293z"/></g></g><g class="E"><use href="#Bt" x="-7.7" y="145.1"/><use href="#Bu" x="-7.6" y="145.1"/><use href="#Br" x="-32.9" y="289.859"/><use href="#Bw"/><path d="M1065.056 370.87h-1.5v-12.438h4.953c1.094 0 1.941.309 2.547.922.613.605.922 1.477.922 2.609 0 .918-.215 1.672-.641 2.266-.418.586-1.031.969-1.844 1.156l2.844 5.484h-1.687l-2.687-5.344h-2.906zm3.453-6.625c.594 0 1.051-.148 1.375-.453.332-.312.5-.754.5-1.328v-.922c0-.57-.168-1.008-.5-1.312-.324-.312-.781-.469-1.375-.469h-3.453v4.484zm14.129 6.625l-1.25-3.672h-5.016l-1.25 3.672h-1.516l4.344-12.438h1.906l4.359 12.438zm-3.719-11.047h-.094l-2.094 6.063h4.281z"/><use href="#Bq" x="18.1" y="289.859"/><use href="#Bw" x="40"/><use href="#Bs" x="17.3" y="289.859"/></g><g clip-path="url(#AQ)" class="E"><g clip-path="url(#AR)"><path d="M917.25 505.84h286.25v104.84H917.25z"/></g></g><g clip-path="url(#AS)" class="B C D"><g clip-path="url(#AT)"><path d="M928.5 505.839h263.895c2.984 0 5.844 1.187 7.953 3.297s3.297 4.969 3.297 7.953v82.335c0 2.984-1.187 5.848-3.297 7.957s-4.969 3.293-7.953 3.293H928.5c-2.984 0-5.844-1.184-7.953-3.293a11.24 11.24 0 0 1-3.297-7.957v-82.335a11.23 11.23 0 0 1 3.297-7.953c2.109-2.109 4.969-3.297 7.953-3.297z"/></g></g><g clip-path="url(#AU)" class="F"><g clip-path="url(#AV)"><path d="M968.33 482.7h188.03v41.035H968.33z"/></g></g><g clip-path="url(#AW)" class="B C D"><g clip-path="url(#AX)"><path d="M979.589 482.7h165.54a11.25 11.25 0 0 1 11.246 11.246v18.536a11.25 11.25 0 0 1-11.246 11.246h-165.54c-2.984 0-5.844-1.184-7.953-3.293s-3.297-4.973-3.297-7.953v-18.536c0-2.981 1.187-5.844 3.297-7.953s4.969-3.293 7.953-3.293z"/></g></g><g class="E"><path d="M1055.103 507.778h-.047c-.156.586-.539 1.07-1.141 1.453-.594.383-1.367.578-2.312.578-.762 0-1.461-.141-2.094-.422a4.49 4.49 0 0 1-1.641-1.234c-.449-.539-.805-1.211-1.062-2.016-.25-.801-.375-1.723-.375-2.766 0-1.031.125-1.945.375-2.75s.602-1.473 1.063-2.016a4.64 4.64 0 0 1 1.672-1.234c.656-.281 1.383-.422 2.188-.422 1.113 0 2.039.25 2.781.75a4.92 4.92 0 0 1 1.734 1.969l-1.219.75c-.293-.664-.719-1.187-1.281-1.562-.562-.383-1.234-.578-2.016-.578-.555 0-1.055.102-1.5.297a3.61 3.61 0 0 0-1.172.828c-.324.355-.574.781-.75 1.281s-.266 1.059-.266 1.672v2.016c0 .617.086 1.18.266 1.688.176.5.426.934.75 1.297.332.355.734.633 1.203.828.477.188 1.016.281 1.609.281.426 0 .832-.051 1.219-.156.383-.113.723-.285 1.016-.516s.52-.508.688-.844c.164-.344.25-.742.25-1.203v-1.234h-2.75v-1.312h4.203v6.391h-1.391z"/><use href="#Bx"/><use href="#Bq" x="2.8" y="428.579"/><path d="M1078.056 509.59v-12.438h7.406v1.328h-5.906v4.156h5.391v1.328h-5.391v5.625z"/></g><use href="#By"/><use href="#Bz"/><use href="#CA"/><use href="#CB"/><use href="#CC"/><use href="#CD"/><use href="#CE"/><use href="#CF"/><use href="#CG"/><use href="#CH"/><use href="#CI"/><use href="#CG" x="23.1"/><use href="#CJ"/><use href="#CG" x="36.9"/><use href="#CK"/><use href="#CL"/><use href="#CG" x="58.6"/><use href="#CE" x="82.85"/><use href="#CM"/><use href="#CJ" x="53.5"/><use href="#CG" x="90.4"/><use href="#CK" x="53.5"/><use href="#CL" x="53.5"/><use href="#CG" x="112.1"/><use href="#CN"/><use href="#CE" x="144.05"/><use href="#CO"/><use href="#CE" x="155.85"/><use href="#Bz" x="206.11"/><use href="#CB" x="196.36"/><use href="#CI" x="146"/><use href="#CA" x="-12.83" y="18"/><use href="#CB" x="-12.83" y="18"/><use href="#CC" x="-12.83" y="18"/><use href="#CP"/><use href="#CB" x="15.65" y="18"/><use href="#CC" x="15.65" y="18"/><use href="#CQ"/><use href="#CN" x="-127.8" y="18"/><use href="#CQ" x="14.54"/><use href="#CR"/><path d="M1020.441 549.749h1.063v6.266h.047l1.063-1.172 1.953-2.094h1.297l-2.562 2.719 2.813 4.172h-1.297l-2.281-3.516-1.031 1.063v2.453h-1.062z"/><use href="#CG" x="19.7" y="18"/><use href="#CO" x="-107.3" y="18"/><use href="#CB" x="74.46" y="18"/><use href="#CJ" x="15.1" y="18"/><use href="#CG" x="52" y="18"/><use href="#CG" x="59.4" y="18"/><use href="#CR" x="60.5"/><use href="#CK" x="28.9" y="18"/><use href="#CO" x="-53.6" y="18"/><use href="#CD" x="109.94" y="18"/><use href="#CG" x="96.2" y="18"/><use href="#CS"/><use href="#CT"/><use href="#CU"/><use href="#CV"/><use href="#CC" x="177.18" y="18"/><use href="#CM" x="76.5" y="18"/><use href="#CJ" x="-89.46" y="36"/><path d="M957.784 577.796c-.48 0-.906-.086-1.281-.25a2.86 2.86 0 0 1-.984-.719 3.36 3.36 0 0 1-.625-1.141c-.148-.445-.219-.945-.219-1.5 0-.539.07-1.031.219-1.469.145-.445.352-.828.625-1.141.281-.32.609-.566.984-.734s.801-.25 1.281-.25a2.99 2.99 0 0 1 1.234.25 2.77 2.77 0 0 1 .938.703c.258.293.457.648.594 1.063a4.31 4.31 0 0 1 .203 1.344v.516H955.8v.313a2.41 2.41 0 0 0 .141.828 2.05 2.05 0 0 0 .391.656 1.8 1.8 0 0 0 .641.438c.258.105.551.156.875.156.438 0 .816-.098 1.141-.297.32-.207.57-.504.75-.891l.766.547c-.219.48-.57.867-1.047 1.156-.469.281-1.027.422-1.672.422zm0-6.312a2.05 2.05 0 0 0-.812.156c-.242.105-.449.25-.625.438a2.05 2.05 0 0 0-.406.656c-.094.25-.141.527-.141.828v.094h3.813v-.141c0-.613-.168-1.102-.5-1.469-.336-.375-.777-.562-1.328-.562z"/><use href="#CE" x="-31.47" y="36"/><use href="#CI" x="-56.28" y="36"/><use href="#CL" x="-85.08" y="36"/><use href="#CD" x="-5.12" y="36"/><use href="#CH" x="-26.12" y="36"/><use href="#CQ" x="0.87" y="18"/><use href="#CG" x="-4.3" y="36"/><use href="#CE" x="16.75" y="36"/><use href="#CJ" x="-20.3" y="36"/><use href="#CG" x="16.6" y="36"/><use href="#CN" x="-95.5" y="36"/><use href="#CG" x="34.9" y="36"/><use href="#CH" x="31.8" y="36"/><use href="#CB" x="89.56" y="36"/><use href="#CJ" x="27" y="36"/><use href="#CR" x="54.6" y="18"/><use href="#CO" x="-70.2" y="36"/><use href="#CA" x="121.33" y="36"/><use href="#CB" x="121.36" y="36"/><use href="#CC" x="121.38" y="36"/><use href="#CI" x="78.7" y="36"/><use href="#CN" x="-17.7" y="36"/><use href="#CE" x="126.45" y="36"/><use href="#CO" x="-17.7" y="36"/><use href="#CE" x="138.25" y="36"/><use href="#CP" x="168.97" y="18"/><use href="#CR" x="135.7" y="18"/><path d="M1157.656 577.64c-.375 0-.664-.102-.859-.312-.187-.207-.281-.484-.281-.828v-4.812h-1.125v-.937h.641c.227 0 .383-.047.469-.141s.125-.254.125-.484v-1.281h.969v1.906h1.5v.938h-1.5v5.016H1159v.938z"/><use href="#CD" x="174.44" y="36"/><path d="M954.821 594.281h-.047c-.117.438-.398.805-.844 1.094-.449.281-1.027.422-1.734.422-.574 0-1.102-.105-1.578-.312s-.891-.516-1.234-.922c-.336-.406-.594-.906-.781-1.5-.187-.602-.281-1.297-.281-2.078s.086-1.469.266-2.062c.188-.602.453-1.109.797-1.516a3.44 3.44 0 0 1 1.266-.922c.488-.219 1.035-.328 1.641-.328.832 0 1.531.188 2.094.563s.992.871 1.297 1.484l-.922.563c-.219-.5-.543-.891-.969-1.172-.418-.289-.918-.437-1.5-.437a2.91 2.91 0 0 0-1.141.219c-.336.148-.625.355-.875.625a2.9 2.9 0 0 0-.562.969c-.125.367-.187.781-.187 1.25v1.5c0 .469.063.898.188 1.281a2.86 2.86 0 0 0 .563.969c.25.262.551.465.906.609.363.148.766.219 1.203.219.32 0 .629-.039.922-.125a2.26 2.26 0 0 0 .766-.375 1.91 1.91 0 0 0 .516-.641c.125-.25.188-.551.188-.906v-.922h-2.062v-.984h3.156v4.797h-1.047z"/><use href="#CT" x="-164.57" y="36"/><use href="#By" x="18.01" y="54"/><path d="M972.15 595.64v-9.328h5.547v.984h-4.437v3.141h4.047v.984h-4.047v4.219z"/><use href="#CW"/><use href="#CX"/><use href="#CD" x="-33.32" y="-276.2"/><use href="#CG" x="-47.07" y="-276.2"/><use href="#CL" x="-88.49" y="-276.2"/><use href="#CD" x="-8.53" y="-276.2"/><use href="#CB" x="17.28" y="-276.2"/><use href="#CJ" x="-45.2" y="-276.2"/><use href="#CG" x="-8.29" y="-276.2"/><use href="#CK" x="-45.3" y="-276.2"/><use href="#CI" x="-8.4" y="-276.2"/><path d="M1025.034 265.596c-.48 0-.906-.086-1.281-.25a2.86 2.86 0 0 1-.984-.719 3.36 3.36 0 0 1-.625-1.141c-.148-.445-.219-.945-.219-1.5 0-.539.07-1.031.219-1.469.145-.445.352-.828.625-1.141.281-.32.609-.566.984-.734s.801-.25 1.281-.25a2.99 2.99 0 0 1 1.234.25 2.77 2.77 0 0 1 .938.703c.258.293.457.648.594 1.063a4.31 4.31 0 0 1 .203 1.344v.516h-4.953v.313a2.41 2.41 0 0 0 .141.828 2.05 2.05 0 0 0 .391.656 1.8 1.8 0 0 0 .641.438c.258.105.551.156.875.156.438 0 .816-.098 1.141-.297.32-.207.57-.504.75-.891l.766.547c-.219.48-.57.867-1.047 1.156-.469.281-1.027.422-1.672.422zm0-6.312a2.05 2.05 0 0 0-.812.156c-.242.105-.449.25-.625.438a2.05 2.05 0 0 0-.406.656c-.094.25-.141.527-.141.828v.094h3.812v-.141c0-.613-.168-1.102-.5-1.469-.336-.375-.777-.562-1.328-.562z"/><use href="#CJ" x="-8.4" y="-276.2"/><use href="#CH" x="18.1" y="-276.2"/><use href="#CB" x="75.86" y="-276.2"/><use href="#CJ" x="13.4" y="-276.2"/><use href="#CR" x="41" y="-294.2"/><use href="#CO" x="-83.9" y="-276.2"/><use href="#CB" x="97.86" y="-276.2"/><use href="#CI" x="47.6" y="-276.2"/><use href="#CA" x="116.93" y="-276.2"/><use href="#Bz" x="134.21" y="-276.2"/><use href="#CB" x="124.36" y="-276.2"/><use href="#CI" x="74.1" y="-276.2"/><use href="#CF" x="107.02" y="-276.2"/><use href="#CG" x="106.9" y="-276.2"/><use href="#CL" x="62.4" y="-276.2"/><use href="#CO" x="-16.5" y="-276.2"/><use href="#CB" x="165.26" y="-276.2"/><use href="#CI" x="115" y="-276.2"/><use href="#CE" x="-48.55" y="-258.2"/><use href="#CM" x="-131.37" y="-258.2"/><use href="#CC" x="-15.34" y="-258.2"/><use href="#CK" x="-84.13" y="-258.2"/><use href="#CN" x="-154.85" y="-258.2"/><use href="#CE" x="-10.75" y="-258.2"/><use href="#CK" x="-61.66" y="-258.2"/><use href="#CL" x="-61.68" y="-258.2"/><use href="#CG" x="-3.1" y="-258.2"/><use href="#CN" x="-115.2" y="-258.2"/><use href="#CE" x="28.95" y="-258.2"/><use href="#CO" x="-115.2" y="-258.2"/><use href="#CE" x="40.75" y="-258.2"/><use href="#CW" x="62.34" y="-312.2"/><use href="#CS" x="-167.09" y="-152.94"/><path d="M958.084 406.856c-.48 0-.906-.086-1.281-.25a2.86 2.86 0 0 1-.984-.719 3.36 3.36 0 0 1-.625-1.141c-.148-.445-.219-.945-.219-1.5 0-.539.07-1.031.219-1.469.145-.445.352-.828.625-1.141.281-.32.609-.566.984-.734s.801-.25 1.281-.25a2.99 2.99 0 0 1 1.234.25 2.77 2.77 0 0 1 .938.703c.258.293.457.648.594 1.063a4.31 4.31 0 0 1 .203 1.344v.516H956.1v.313a2.41 2.41 0 0 0 .141.828 2.05 2.05 0 0 0 .391.656 1.8 1.8 0 0 0 .641.438c.258.105.551.156.875.156.438 0 .816-.098 1.141-.297.32-.207.57-.504.75-.891l.766.547c-.219.48-.57.867-1.047 1.156-.469.281-1.027.422-1.672.422zm0-6.312a2.05 2.05 0 0 0-.812.156c-.242.105-.449.25-.625.438a2.05 2.05 0 0 0-.406.656c-.094.25-.141.527-.141.828v.094h3.813v-.141c0-.613-.168-1.102-.5-1.469-.336-.375-.777-.562-1.328-.562z"/><use href="#CL" x="-96.82" y="-134.94"/><use href="#CX" x="24.1" y="141.26"/><use href="#CI" x="-48.76" y="-134.94"/><use href="#CE" x="-11.9" y="-134.94"/><use href="#CR" x="-27.82" y="-152.94"/><use href="#CO" x="-152.68" y="-134.94"/><use href="#CJ" x="-40.89" y="-134.94"/><use href="#CR" x="-10.1" y="-152.94"/><use href="#CJ" x="-27.9" y="-134.94"/><use href="#CO" x="-125.3" y="-134.94"/><use href="#CD" x="38.24" y="-134.94"/><use href="#CG" x="24.4" y="-134.94"/><use href="#CD" x="56.24" y="-134.94"/><use href="#CB" x="82.06" y="-134.94"/><use href="#CY"/><use href="#CG" x="61.7" y="-134.94"/><use href="#Bz" x="125.81" y="-134.94"/><use href="#CB" x="116.06" y="-134.94"/><use href="#CI" x="65.8" y="-134.94"/><use href="#CM" x="15.8" y="-134.94"/><use href="#CR" x="90.5" y="-152.94"/><use href="#CB" x="142.66" y="-134.94"/><use href="#CQ" x="119.44" y="-152.94"/><use href="#CB" x="153.76" y="-134.94"/><use href="#CZ"/><use href="#CR" x="119.5" y="-152.94"/><use href="#CL" x="80.2" y="-134.94"/><use href="#CE" x="152.55" y="-134.94"/><use href="#CQ" x="154.74" y="-152.94"/><use href="#CO" x="15.2" y="-134.94"/><use href="#CI" x="139.2" y="-134.94"/><use href="#CE" x="176.05" y="-134.94"/><use href="#CR" x="160.2" y="-152.94"/><use href="#CO" x="35.3" y="-134.94"/><use href="#CN" x="-182.99" y="-116.94"/><use href="#CE" x="-38.89" y="-116.94"/><use href="#CO" x="-183.01" y="-116.94"/><use href="#CE" x="-27.07" y="-116.94"/><use href="#CA" x="15.7" y="-116.94"/><use href="#CB" x="15.7" y="-116.94"/><use href="#CC" x="15.7" y="-116.94"/><use href="#CD" x="15.74" y="-116.94"/><use href="#CE" x="15.65" y="-116.94"/><use href="#CF" x="15.72" y="-116.94"/><use href="#CG" x="15.7" y="-116.94"/><use href="#CB" x="65.66" y="-116.94"/><use href="#CK" x="-10.7" y="-116.94"/><use href="#CA" x="90.63" y="-116.94"/><use href="#CB" x="90.56" y="-116.94"/><use href="#CC" x="90.58" y="-116.94"/><use href="#CI" x="47.9" y="-116.94"/><use href="#CL" x="22.3" y="-116.94"/><use href="#CD" x="102.24" y="-116.94"/><use href="#CB" x="128.06" y="-116.94"/><use href="#CJ" x="65.5" y="-116.94"/><use href="#CG" x="102.4" y="-116.94"/><use href="#CK" x="65.5" y="-116.94"/><use href="#CN" x="-2.1" y="-116.94"/><use href="#CR" x="119" y="-134.94"/><use href="#CJ" x="101.2" y="-116.94"/><use href="#CG" x="138.1" y="-116.94"/><use href="#CE" x="159.25" y="-116.94"/><use href="#CJ" x="122.2" y="-116.94"/><use href="#CG" x="159.1" y="-116.94"/><use href="#CF" x="-53.77" y="-98.94"/><use href="#CG" x="-53.82" y="-98.94"/><use href="#CL" x="-98.38" y="-98.94"/><use href="#CO" x="-177.26" y="-98.94"/><use href="#CB" x="4.49" y="-98.94"/><use href="#CI" x="-45.79" y="-98.94"/><use href="#CW" x="5.55" y="-152.94"/><g clip-path="url(#AY)" class="E"><g clip-path="url(#AZ)"><path d="M917.25 651.36h286.25V756.2H917.25z"/></g></g><g clip-path="url(#Aa)" class="B C D"><g clip-path="url(#Ab)"><path d="M928.5 651.36h263.895a11.23 11.23 0 0 1 7.953 3.297c2.109 2.109 3.297 4.969 3.297 7.953v82.335c0 2.984-1.187 5.844-3.297 7.953a11.23 11.23 0 0 1-7.953 3.297H928.5a11.23 11.23 0 0 1-11.25-11.25V662.61a11.23 11.23 0 0 1 11.25-11.25z"/></g></g><g clip-path="url(#Ac)" class="F"><g clip-path="url(#Ad)"><path d="M968.33 628.22h188.03v41.035H968.33z"/></g></g><g clip-path="url(#Ae)" class="B C D"><g clip-path="url(#Af)"><path d="M979.589 628.221h165.54a11.25 11.25 0 0 1 7.953 3.293c2.109 2.109 3.293 4.969 3.293 7.953v18.531c0 2.984-1.184 5.844-3.293 7.953s-4.973 3.297-7.953 3.297h-165.54c-2.984 0-5.844-1.187-7.953-3.297a11.25 11.25 0 0 1-3.297-7.953v-18.531c0-2.984 1.187-5.844 3.297-7.953s4.969-3.293 7.953-3.293z"/></g></g><g class="E"><use href="#Bt" x="1.3" y="429.34"/><use href="#Bx" x="-18.4" y="145.52"/><use href="#Bv" x="-8.5" y="429.34"/><path d="M1076.438 649.485h-6.281v5.625h-1.5v-12.438h1.5v5.484h6.281v-5.484h1.5v12.438h-1.5zm6.225-6.813v7.703c0 1.188.219 2.09.656 2.703.438.605 1.207.906 2.313.906s1.875-.301 2.313-.906c.445-.613.672-1.516.672-2.703v-7.703h1.5v7.344c0 .906-.086 1.695-.25 2.359-.156.656-.418 1.211-.781 1.656-.355.438-.82.766-1.391.984-.574.207-1.277.313-2.109.313s-1.531-.105-2.094-.312a3.13 3.13 0 0 1-1.359-.984c-.344-.445-.594-1-.75-1.656-.148-.664-.219-1.453-.219-2.359v-7.344z"/><use href="#Bx" x="33.9" y="145.52"/></g><use href="#CS" x="-165.76" y="135.28"/><use href="#CT" x="-165.72" y="135.28"/><use href="#CU" x="-165.8" y="135.28"/><use href="#CV" x="-165.78" y="135.28"/><use href="#CC" x="11.45" y="153.28"/><use href="#CM" x="-89.25" y="153.28"/><use href="#CP" x="32.07" y="135.28"/><use href="#CR" x="-1.2" y="135.28"/><use href="#CQ" x="20.34" y="135.28"/><use href="#CQ" x="23.94" y="135.28"/><use href="#CM" x="-54.3" y="153.28"/><use href="#CG" x="29.6" y="153.28"/><use href="#CO" x="-97.4" y="153.28"/><use href="#CD" x="66.14" y="153.28"/><use href="#CG" x="52.4" y="153.28"/><use href="#CD" x="84.24" y="153.28"/><use href="#CB" x="110.06" y="153.28"/><use href="#CY" x="27.9" y="288.22"/><use href="#CG" x="89.6" y="153.28"/><use href="#CB" x="139.66" y="153.28"/><use href="#Bz" x="161.31" y="153.28"/><use href="#CG" x="-59.06" y="171.28"/><use href="#CH" x="-62.12" y="171.28"/><use href="#CR" x="-53.27" y="153.28"/><use href="#CN" x="-163.23" y="171.28"/><use href="#CG" x="-32.89" y="171.28"/><use href="#CY" x="-75.55" y="306.22"/><use href="#CR" x="-23.19" y="153.28"/><use href="#CB" x="29.01" y="171.28"/><use href="#CQ" x="5.74" y="153.28"/><use href="#CB" x="40.16" y="171.28"/><use href="#CZ" x="-113.7" y="306.22"/><use href="#CR" x="5.8" y="153.28"/><use href="#CL" x="-33.5" y="171.28"/><use href="#CE" x="38.95" y="171.28"/><use href="#CQ" x="41.14" y="153.28"/><use href="#CN" x="-83.5" y="171.28"/><use href="#CE" x="60.55" y="171.28"/><use href="#CO" x="-83.5" y="171.28"/><use href="#CE" x="72.45" y="171.28"/><use href="#CE" x="82.65" y="171.28"/><use href="#CK" x="31.8" y="171.28"/><use href="#CN" x="-38.9" y="171.28"/><use href="#CE" x="108.35" y="171.28"/><use href="#CK" x="57.4" y="171.28"/><use href="#CA" x="155.53" y="171.28"/><use href="#CN" x="-3.5" y="171.28"/><use href="#CE" x="140.65" y="171.28"/><use href="#CO" x="-3.5" y="171.28"/><use href="#CE" x="152.45" y="171.28"/><use href="#CO" x="11.5" y="171.28"/><use href="#CD" x="175.04" y="171.28"/><use href="#CE" x="174.95" y="171.28"/><path d="M1177.656 712.92c-.375 0-.664-.102-.859-.312-.187-.207-.281-.484-.281-.828v-4.812h-1.125v-.937h.641c.227 0 .383-.047.469-.141s.125-.254.125-.484v-1.281h.969v1.906h1.5v.938h-1.5v5.016H1179v.938z"/><use href="#CN" x="-181.66" y="189.28"/><use href="#CB" x="-11.75" y="189.28"/><use href="#CG" x="-43.83" y="189.28"/><use href="#CJ" x="-66.89" y="189.28"/><use href="#CK" x="-71.13" y="189.28"/><use href="#CB" x="20.31" y="189.28"/><use href="#CO" x="-149.26" y="189.28"/><path d="M1008.247 729.795h-.062c-.418.855-1.09 1.281-2.016 1.281-.43 0-.812-.086-1.156-.25s-.641-.406-.891-.719c-.242-.312-.43-.691-.562-1.141a5.55 5.55 0 0 1-.187-1.5c0-.551.063-1.047.188-1.484.133-.445.32-.828.563-1.141a2.58 2.58 0 0 1 .891-.719c.344-.164.727-.25 1.156-.25.477 0 .891.105 1.234.313s.602.531.781.969h.063v-1.125h1.063v9.563h-1.062zm-1.781.328c.238 0 .469-.031.688-.094s.406-.148.563-.266c.164-.125.297-.273.391-.453s.141-.375.141-.594v-2.562a1.07 1.07 0 0 0-.141-.531c-.094-.164-.227-.305-.391-.422-.156-.113-.344-.203-.562-.266a2.24 2.24 0 0 0-.687-.109c-.605 0-1.086.195-1.437.578-.344.375-.516.871-.516 1.484v1.172c0 .617.172 1.117.516 1.5.352.375.832.563 1.438.563z"/><use href="#CC" x="35.88" y="189.28"/><use href="#CR" x="2.1" y="171.28"/><use href="#CO" x="-122.7" y="189.28"/><use href="#CG" x="19.4" y="189.28"/><use href="#Bz" x="83.61" y="189.28"/><use href="#CR" x="25" y="171.28"/><use href="#CO" x="-99.9" y="189.28"/><path d="M1054.656 730.92c-.375 0-.664-.102-.859-.312-.187-.207-.281-.484-.281-.828v-4.812h-1.125v-.937h.641c.227 0 .383-.047.469-.141s.125-.254.125-.484v-1.281h.969v1.906h1.5v.938h-1.5v5.016H1056v.938z"/><use href="#CD" x="71.44" y="189.28"/><use href="#CG" x="57.7" y="189.28"/><use href="#CM" x="-8" y="189.28"/><use href="#CB" x="115.56" y="189.28"/><path d="M1090.281 730.92l2.547-3.469-2.437-3.422h1.25l1.75 2.563h.047l1.813-2.562h1.188l-2.437 3.344 2.5 3.547h-1.266l-1.781-2.703h-.047l-1.937 2.703z"/><use href="#CG" x="90.2" y="189.28"/><use href="#CJ" x="67.1" y="189.28"/><use href="#CE" x="120.95" y="189.28"/><use href="#CM" x="38.1" y="189.28"/><use href="#CB" x="161.66" y="189.28"/><use href="#CF" x="136.22" y="189.28"/><use href="#CG" x="136.1" y="189.28"/><use href="#CW" x="171.74" y="135.28"/><g clip-path="url(#Ag)" class="F"><g clip-path="url(#Ah)"><use href="#Ca"/></g></g><g clip-path="url(#Ai)" class="B C D"><g clip-path="url(#Aj)"><use href="#Cb"/></g></g><g clip-path="url(#Ak)" class="F"><g clip-path="url(#Al)"><path d="M903.42 536.65h27.621v27.402H903.42z"/></g></g><g clip-path="url(#Am)" class="B C D"><g clip-path="url(#An)"><path d="M914.665 536.652h5.172c2.984 0 5.844 1.184 7.953 3.293s3.293 4.969 3.293 7.953v4.902c0 2.984-1.184 5.844-3.293 7.953s-4.969 3.297-7.953 3.297h-5.172c-2.981 0-5.84-1.187-7.949-3.297s-3.297-4.969-3.297-7.953v-4.902c0-2.984 1.187-5.844 3.297-7.953a11.24 11.24 0 0 1 7.949-3.293z"/></g></g><g clip-path="url(#Ao)" class="F"><g clip-path="url(#Ap)"><path d="M903.42 395.8h27.621v27.406H903.42z"/></g></g><g clip-path="url(#Aq)" class="B C D"><g clip-path="url(#Ar)"><use href="#Cc"/></g></g><g clip-path="url(#As)" class="F"><g clip-path="url(#At)"><path d="M903.42 250.21h27.621v27.406H903.42z"/></g></g><g clip-path="url(#Au)" class="B C D"><g clip-path="url(#Av)"><path d="M914.665 250.209h5.172c2.984 0 5.844 1.187 7.953 3.297s3.293 4.969 3.293 7.953v4.902c0 2.984-1.184 5.844-3.293 7.953s-4.969 3.293-7.953 3.293h-5.172a11.24 11.24 0 0 1-7.949-3.293c-2.109-2.109-3.297-4.969-3.297-7.953v-4.902c0-2.984 1.187-5.844 3.297-7.953s4.969-3.297 7.949-3.297z"/></g></g><path d="M748.79 136.368l154.628-.113" class="B C G"/><g clip-path="url(#Aw)" class="F"><g clip-path="url(#Ax)"><path d="M903.42 122.54h27.621v27.406H903.42z"/></g></g><g clip-path="url(#Ay)" class="B C D"><g clip-path="url(#Az)"><path d="M914.665 122.54h5.172c2.984 0 5.844 1.184 7.953 3.293a11.25 11.25 0 0 1 3.293 7.953v4.906a11.25 11.25 0 0 1-3.293 7.953c-2.109 2.109-4.969 3.293-7.953 3.293h-5.172a11.24 11.24 0 0 1-7.949-3.293c-2.109-2.109-3.297-4.973-3.297-7.953v-4.906c0-2.98 1.187-5.844 3.297-7.953a11.24 11.24 0 0 1 7.949-3.293z"/></g></g></svg>