<svg xmlns="http://www.w3.org/2000/svg" width="960" height="960" fill="none" xmlns:v="https://vecta.io/nano"><style><![CDATA[.B{fill:#171717}.C{fill-opacity:.96}.D{stroke-linecap:round}]]></style><g clip-path="url(#A)"><g fill-rule="evenodd"><path d="M460.474 302.119c56.078-36.173 105.506-83.429 141.078-139.837l5.405-8.818c5.099-8.582 9.985-17.659 10.962-27.582 1.537-15.596-6.503-29.379-14.636-43.32-6.246-10.705-12.546-21.505-14.606-33.291-.489 25.282-62.453 99.196-148.61 175.532-90.26 79.979-174.687 133.913-195.369 125.658 6.972 11.967 13.323 21.792 22.361 32.367l13.15-3.328c63.532-16.7 125.079-41.8 180.265-77.381zM591.891 82.476a1.5 1.5 0 1 0-2.342 1.875c9.102 11.368 15.962 24.36 20.217 38.287a1.5 1.5 0 1 0 2.869-.876c-4.366-14.291-11.405-27.622-20.744-39.286z" class="B"/><g fill="#fff" class="C"><path d="M463.324 778.353c79.694-1.079 159.562 4.325 238.116 17.669-3.023-55.41-14.039-100.967-29.286-138.31l-2.5.712c-32.621 11.237-64 27.045-90.239 49.445-3.685 3.156-7.267 6.433-10.819 9.761l-1.608-1.73c-24.178 3.268-48.789-.172-71.145-9.944-5.776-2.534-11.363-5.476-16.948-8.416-7.29-3.839-14.575-7.675-22.269-10.597-13.587-5.16-27.246-7.216-40.346-.926l-.051-.01c-11.603 40.794-20.295 79.002-25.689 104.661a102.12 102.12 0 0 1 17.506-6.524c17.924-4.906 36.703-5.537 55.278-5.791zm211.64-89.672a1.5 1.5 0 0 0-2.875.856c8.906 29.915 13.358 60.978 13.211 92.189a1.5 1.5 0 1 0 3 .014c.148-31.506-4.346-62.862-13.336-93.059zm-328.608-249.06c41.964 31.312 99.409 62.4 158.89 58.6l-.194.167a27.5 27.5 0 0 0 11.735-.244l.672.071c42.514-45.445 65.506-100.55 77.455-152.885l-2.381-.53c-10.738 35.267-37.345 64.325-69.232 82.3s-68.711 25.578-105.2 26.83c-15.012.509-30.29-.173-44.885-4-4.814-1.261-18.402-5.18-26.423-10.9l-.437.591zm219.584-30.374a1.5 1.5 0 1 0-2.815-1.039c-8.908 24.15-21.876 46.599-38.345 66.381a1.5 1.5 0 0 0 .193 2.112 1.5 1.5 0 0 0 2.112-.193c16.688-20.044 29.828-42.792 38.855-67.261z"/></g></g><path d="M702 811.942c-.417-11.634-71.806-18.535-159.45-15.41-86.025 3.063-155.735 14.656-157.893 26.076l-.427-.081c.478-2.657 2.625-14.331 6.31-31.858a102.12 102.12 0 0 1 17.506-6.524c17.924-4.906 36.7-5.537 55.278-5.791 79.694-1.079 159.562 4.325 238.116 17.669.296 5.252.509 10.592.641 16.02H702v-.101z" fill="#fff" class="C"/><path d="M544.056 838.658c-87.654 3.125-159.033-3.776-159.45-15.41-.009-.215.008-.43.051-.641 2.158-11.42 71.868-23.013 157.893-26.076 87.644-3.125 159.033 3.776 159.45 15.41v.1c.001 11.594-70.555 23.503-157.944 26.617z" fill="#fff" class="C"/><path d="M384.606 823.248c.417 11.634 71.8 18.535 159.45 15.41 87.389-3.114 157.945-15.023 157.945-26.616h.081c-.134-5.435-.347-10.775-.641-16.02l20.845 3.725c3.644.682 7.542 1.527 10.036 4.275a8.54 8.54 0 0 1 1.567 2.5l.224-.1c6.687 15 12.55 35.216 9.761 47.98-2.911 13.312-5.1 27.43-14.351 37.435-12.866 13.9-32.835 18.218-51.573 21.017-89.222 13.315-180.214 8.458-267.511-14.279-20.682-5.4-43.114-13.375-53.353-32.143-8.906-16.3-5.7-37.486 5.068-52.631 7.166-10.086 17.191-17.72 28.387-23.135l-6.31 31.858.427.081c-.043.211-.06.427-.052.643h0z" class="B"/><g stroke="#171717" stroke-width="3" stroke-linejoin="round"><path d="M244.7 350.465c-1.081-.415-2.05-1.077-2.83-1.933-14.218-16.051 51.451-97.476 146.7-181.853S572.534 26.9 586.752 42.954c1.429 1.782 2.118 4.045 1.924 6.321-.489 25.282-62.453 99.2-148.61 175.532-90.26 79.979-174.687 133.913-195.366 125.658z"/><g class="D"><path d="M244.4 349.967l.3.5c6.972 11.97 13.323 21.792 22.361 32.367m-.002-.002l13.15-3.328c63.532-16.7 125.079-41.8 180.265-77.385 56.081-36.173 105.506-83.429 141.078-139.837l5.4-8.814c5.1-8.58 9.985-17.659 10.962-27.582 2.717-27.573-24.5-49.476-29.242-76.611-.183-1.059-.336-2.127-.448-3.206m-82.977 452.152l-.193.173c-37.527 32.081-67.9 114.056-88.825 187.613-11.6 40.794-20.3 79-25.689 104.661l-6.41 32.438"/><path d="M601.552 162.262v.02c.275 1.548 15.166 87.685-6.636 183.054-11.949 52.335-34.941 107.44-77.455 152.885M280.208 379.5s25.985 30.167 66.148 60.122c41.964 31.307 99.409 62.391 158.89 58.6m12.215-.001s102.32 31.2 154.7 159.491c15.247 37.343 26.259 82.9 29.282 138.31a504.3 504.3 0 0 1 .641 16.02 10.25 10.25 0 0 1 .021.58"/><path d="M559.4 442.292c17.317-12.356 36.569-21.743 56.967-27.776m3.291-14.249c3.585-19.021 12.577-36.605 25.9-50.646a63.67 63.67 0 0 1-8.254 38.157 128.54 128.54 0 0 1 74.432-42.656c-11.827 16.52-27.82 29.612-46.351 37.944 10.535-4.265 21.161-8.57 32.346-10.6s23.125-1.638 33.4 3.207c-17.342 10.192-36.701 16.476-56.723 18.412 17.854-1.379 35.677 3.028 50.83 12.57 2.351 1.486 4.916 4.224 3.5 6.615-1.008 1.71-3.389 1.853-5.374 1.8l-99.277-2.84 2.565.214m-272.744 93.197c19.038-9.32 39.657-14.984 60.784-16.7m-74.036 12.852a63.83 63.83 0 0 0-43.664.784c-5.913 2.29-12.2 6.606-12.4 12.947l23.115.417c-17.087 15.65-31.658 33.842-43.2 53.934-.906 1.567-1.72 3.725-.438 4.987 1.394 1.394 3.735.244 5.313-.926l34.636-25.669a106.27 106.27 0 0 0-25.181 46.473c-.559 2.259-.478 5.5 1.812 5.934 1.568.305 2.9-1.089 3.888-2.351a336.28 336.28 0 0 0 23.461-34.392c-6.443 13.313-13 27.063-13.893 41.832-.123 1.934.346 4.488 2.259 4.763 1.761.255 2.952-1.7 3.644-3.338L339.4 513.05"/></g><path d="M346.793 439.035c8.021 5.72 21.609 9.639 26.423 10.9 14.595 3.827 29.873 4.509 44.885 4 36.489-1.252 73.313-8.855 105.2-26.83s58.494-47.033 69.232-82.3l-29.791 22.219C537.308 386 510.417 405.59 479.1 409.905c-22.9 3.156-46-2.218-69.049-3.989s-48.356.906-65.221 16.885a13.17 13.17 0 0 0-3.878 5.445c-1.222 4.031 1.485 7.675 5.841 10.789z"/><g class="D"><path d="M416.279 686.017c13.1-6.29 26.759-4.234 40.346.926s25.9 13.171 39.217 19.013c22.356 9.772 46.967 13.212 71.145 9.944M470.2 758.1c19.318 9.089 42.768 3.023 60.743-8.488 13.893-8.9 25.567-20.692 37.649-31.98 3.552-3.328 7.134-6.605 10.819-9.761 26.239-22.4 57.618-38.208 90.239-49.445M515.669 509.417a76.46 76.46 0 0 0 2.1 32.091m-6.969 4.326l-.651 47.42m15.128-22.015l6.107 46.951m-16.245 10.495l-3.847 42.147m-6.279-172.448c.01 0 .031.01.041.01 3.883.765 7.886.681 11.735-.244"/></g><path d="M384.657 822.607c2.158-11.42 71.868-23.013 157.893-26.076 87.644-3.125 159.033 3.776 159.45 15.41v.1c0 11.593-70.555 23.5-157.944 26.616-87.654 3.125-159.033-3.776-159.45-15.41a2.65 2.65 0 0 1 .051-.64z"/><g class="D"><path d="M714.224 827.167c5.761-1.456 11.807-3.063 16.1-7.164 3.552-3.41 5.333-9.111 3.562-13.477a8.54 8.54 0 0 0-1.567-2.5c-2.494-2.748-6.392-3.593-10.036-4.275l-20.845-3.725c-78.554-13.344-158.422-18.748-238.116-17.669-18.575.254-37.354.886-55.278 5.792a102.17 102.17 0 0 0-17.506 6.523c-11.2 5.415-21.221 13.05-28.387 23.136-10.768 15.145-13.974 36.325-5.068 52.63 10.239 18.768 32.671 26.738 53.353 32.143 87.297 22.737 178.289 27.594 267.511 14.279 18.738-2.8 38.707-7.113 51.573-21.016 9.252-10.005 11.44-24.123 14.351-37.435 2.789-12.764-3.074-32.979-9.761-47.981-.071-.173-.153-.345-.224-.508M202.35 415.479c10.7 37.314 21.339 77.629 8.182 114.147-3.179 8.824-7.968 17.47-15.664 22.831s-18.787 6.617-26.326 1.036-8.836-18.632-1.256-24.154c9.6-7 24.128 3.594 24.665 15.464s-7.928 22.221-17.034 29.854-19.6 14.164-25.857 24.265c-5.287 8.533-6.914 19.722-2.5 28.738s15.556 14.747 25.048 11.479 14.556-16.384 8.522-24.406m523.096-125.955c-4.34 21.3-8.629 43.748-1.9 64.42s28.657 38.112 49.484 31.882c9.681-2.9 18.3-13.963 13.3-22.741-5.1-8.938-20.64-5.9-24.577 3.608s1.478 20.791 9.713 26.959 18.638 8.467 28.649 10.839 20.392 5.188 28.04 12.069c12.744 11.466 13.836 33.283 2.858 46.449-5.726 6.868-14.748 11.482-23.578 10.074s-16.485-10-15.145-18.838M236.101 237.628l-12.914-8.65"/><path d="M224.163 240.721a21.05 21.05 0 0 1 2.724-8.52 21.04 21.04 0 0 1 6.017-6.618m-49.527 269.486l-9.7-8.622"/><path d="M172.219 498.087l7.789-13.872m593.887 58.276c-.186-2.023-.866-3.97-1.981-5.668s-2.631-3.097-4.414-4.072"/><path d="M765.324 542.487l10.777-8.622M759.937 720.3l-7.544-11.855"/><path d="M748.081 720.3l11.855-9.7M330.159 455.83c-18.516-9.173-34.197-23.197-45.372-40.579m339.477-104.444a344.09 344.09 0 0 0 .256-120.787m42.88-34.387l9.8-42.256m5.222 88.655l102.119-86.523m-91.375 119.629l39.827 8.834M379.515 730a122.47 122.47 0 0 1 16.165-44.185"/></g></g><g class="B"><path d="M271.701 189.044l5.37 6.7c.162.203.258.449.276.708a1.26 1.26 0 0 1-.179.738 1.27 1.27 0 0 1-1.322.593l-8.436-1.6c-.247-.047-.502-.02-.734.078a1.27 1.27 0 0 0-.566.472l-4.713 7.178c-.142.217-.348.385-.588.481a1.27 1.27 0 0 1-.758.059c-.253-.058-.481-.193-.655-.385a1.27 1.27 0 0 1-.317-.691l-1.078-8.517c-.032-.248-.136-.482-.3-.671a1.27 1.27 0 0 0-.623-.392l-8.282-2.264c-.25-.068-.474-.211-.64-.41a1.27 1.27 0 0 1-.29-.702c-.022-.258.035-.517.164-.742s.324-.404.559-.515l7.765-3.665c.226-.107.416-.279.545-.493a1.27 1.27 0 0 0 .18-.714l-.406-8.576c-.013-.259.054-.515.192-.735a1.28 1.28 0 0 1 .578-.493c.239-.101.503-.126.757-.073s.484.183.662.372l5.885 6.252a1.27 1.27 0 0 0 1.372.317l8.031-3.037c.243-.092.508-.107.76-.044a1.28 1.28 0 0 1 .649.399c.17.197.276.441.303.699s-.026.519-.151.746l-4.128 7.529a1.27 1.27 0 0 0-.152.717c.021.249.115.486.27.681h0zm400.028 352.21l3.531 4.406a.83.83 0 0 1 .182.466c.012.17-.029.339-.117.485a.84.84 0 0 1-.871.389l-5.546-1.052c-.162-.03-.329-.012-.481.052a.84.84 0 0 0-.372.31l-3.1 4.719c-.093.143-.228.253-.386.316a.84.84 0 0 1-.498.039c-.166-.039-.316-.127-.431-.253a.84.84 0 0 1-.209-.454l-.714-5.6a.83.83 0 0 0-.197-.442.84.84 0 0 0-.41-.258l-5.446-1.488c-.164-.045-.311-.139-.42-.27a.83.83 0 0 1-.083-.95c.085-.148.213-.266.367-.339l5.105-2.409c.149-.07.274-.183.359-.324s.126-.305.118-.47l-.267-5.639a.84.84 0 0 1 .508-.807c.156-.066.33-.083.497-.048a.83.83 0 0 1 .435.244l3.869 4.111c.113.12.259.204.419.241a.83.83 0 0 0 .481-.032l5.281-2c.16-.06.334-.07.499-.028a.83.83 0 0 1 .625.719c.018.17-.016.341-.098.49l-2.714 4.95c-.079.145-.113.311-.099.476s.079.322.183.45z"/></g><g opacity=".1" class="B"><path d="M506.11 496.164c-4.694 2.684-7.61 6.7-11.062 10.782a156.27 156.27 0 0 0-10.486 14.473 407.62 407.62 0 0 0-16.84 27.627c-10.582 19.081-19.936 38.818-28.006 59.091-17.313 43.138-29.525 87.885-39.3 133.268l-8.107 39.719-3.652 18.957c-1.336 7-3.656 14.488-3.008 21.63.739 8.153 12.565 13.415 16.946 4.59 2.732-5.507 3.527-11.113 4.642-17.107l3.385-18.029 6.894-35.054c4.721-22.992 9.9-45.9 15.979-68.573 11.29-42.086 24.947-83.23 45.132-121.987 5.523-10.604 11.476-20.968 17.857-31.094 3.12-4.928 6.512-9.668 9.679-14.561 3.405-5.261 7.45-10.634 9.107-16.692.297-1.19.24-2.441-.164-3.599a6.3 6.3 0 0 0-2.109-2.921c-.973-.748-2.142-1.195-3.366-1.287s-2.446.174-3.52.767h-.001z"/></g><g opacity=".1" class="B"><path d="M285.334 382.141c3.644 7.924 9.51 14.184 15.417 20.484 5.8 6.187 11.872 12.179 18.062 17.969 12.522 11.713 26.911 21.887 41.352 31.069 28.998 18.415 60.555 32.451 93.651 41.652a346.65 346.65 0 0 0 57.239 10.638c5.018.516 9.328-4.657 9.328-9.329 0-5.473-4.295-8.81-9.328-9.328-64.294-6.615-125.917-33.481-175.7-74.5-7-5.767-13.927-11.5-20.552-17.712-7.007-6.566-13.322-13.7-21.39-19.018-5.389-3.553-10.332 3.186-8.081 8.08l.002-.005z"/></g></g><defs><clipPath id="A"><path fill="#fff" transform="translate(142 38)" d="M0 0h676v884H0z"/></clipPath></defs></svg>