<svg xmlns="http://www.w3.org/2000/svg" width="294" height="300" xmlns:v="https://vecta.io/nano"><path fill="#00a990" d="M0 287.089h5.28V0H0zm0 0"/><path d="M112.005 80.394l-.444 2.927-.81-.144c-.014.014.496-2.365.614-2.888-.275-.065-.614-.027-.941.091v-.013l.327-.68 2.195.406.157.745c-.183-.183-.784-.38-1.098-.445m-1.92.144c-.079.627-.38 1.895-.262 2.483l-.81-.118c.353-.915.6-2.457.549-3.45l.81.118a3.37 3.37 0 0 0-.287.967m-2.17 2.065c-2.09.392-2.09-3.123-.418-3.62 2.09-.431 2.104 3.136.418 3.62m-1.803-2.77c-.091.391-.392.666-.876.81.21.692.34.927.693 1.672v.014l-.562-.079c-.104-.065-.797-1.045-1.006-1.568-.118.431-.248.98-.196 1.372l-.928-.143c.17-.262.902-3.124.875-3.424.81.091 2.261.235 2 1.346m-4.038 1.607c-.484.17-1.176-.013-1.686-.118l.68-3.502c2.273-.157 3.214 2.797 1.006 3.62m-3.215-.3c-.261-.053-1.633-2.836-1.633-2.836l-.418 2.313-.615-.091.706-3.398.693.091c0 .091 1.084 2.392 1.084 2.392l.405-2.039.523.157zm-2.862-2.196c-.745 2.51-3.646 1.137-2.783-1.098.732-2.443 3.646-1.15 2.783 1.098m-3.031-2.705c-.118.104-.562 3.176-.536 3.476l-.823-.17c.156-.261.352-2.391.352-2.391l-1.411 2.195-.836-2.483-.353 2.352-.81-.104c.26-.418.77-3.58.77-3.58l.837.17c.027.156.653 2.3.653 2.3l1.176-1.96.98.182zm20.307 2.156c-1.032 0-2-.013-2.47-.052-5.41-.523-10.755-2.065-16.139-2.927-1.555-.235-2.822-.47-3.92-.47-2.287 0-3.842.993-5.685 4.913-.784 1.49 1.843 2.914 2.418 2.98-2.156-1.843-1.411-2.392.3-2.392 2.353 0 6.534 1.045 7.345 1.15 4.94.784 9.931 2.195 14.95 2.731a6.22 6.22 0 0 0 .496.027c3.698 0 3.515-4.025 6.05-6.024-.457.039-1.947.065-3.345.065m-18.322-1.373c-1.293-.34-1.777 2.3-.705 2.758 1.307.34 1.777-2.287.705-2.758m9.84 1.947l-.365 1.36c1.045.195 1.49-1.19.366-1.36m3.214.484c-1.228-.3-1.62 2.248-.6 2.666 1.254.287 1.633-2.248.6-2.666m-6.298-1.098c-.17.693-.445 1.973-.523 2.679 1.607.327 2.104-2.352.523-2.679m-39.44-1.986l.615 3.123-.706.118-.64-3.097c-.431.078-.68.078-1.28.34l-.028-.693 3.097-.405.21.588c-.275-.105-1.268.027-1.268.027m-2.248 3.659l-2.143.483c.04-.326-.68-3.32-.862-3.594l2.247-.522-.17.758c-.313-.079-.68-.079-1.097.013l.26 1.085 1.242-.288.21.523c-.249-.039-1.007.157-1.347.222l.275 1.137c.614-.144 1.124-.353 1.529-.627l.013.013zm-6.22 1.11c-1.555.027-1.79-2.208-2.143-3.306l.745-.144c.366.967.26 3.215 1.868 2.914 1.176-.522.223-2.365.105-3.266l.745-.105c.287 1.49.954 4.051-1.32 3.907m-2.196.327l-2.143.484c.04-.327-.653-3.333-.823-3.607l2.248-.496-.183.757c-.3-.09-.68-.09-1.098-.013l.261 1.098 1.242-.275.209.523c-.248-.039-1.006.144-1.346.21l.261 1.136c.614-.13 1.124-.34 1.516-.614l.013.013zm-4.025.876c.066-1.059-.3-2.731-.77-3.672l1.045-.222c-.052 1.058.3 2.73.784 3.672zm-1.045-.64c-.444 1.058-1.777 1.293-2.823 1.476.053-.327-.588-3.384-.784-3.672 1.804-.77 4.378-.013 3.607 2.196m17.237-6.796c-8.194.014-16.348 3.502-24.542 3.502-.98 0-1.96-.039-2.94-.156 2.535 1.999 2.352 6.024 6.05 6.024.157 0 .327-.014.497-.027 5.018-.536 10.01-1.947 14.936-2.731.85-.13 4.94-1.137 7.331-1.137.863 0 1.503.13 1.7.483.26.47-1.373 1.843-1.386 1.895 0 .014.014.027.027.027.157 0 1.058-.523 1.738-.967 2.666-1.92-2.927-6.913-3.41-6.913m-18.596 5.017c-.327-.196-.745-.261-1.216-.183.105.732.366 2.091.575 2.797 1.36-.196 1.778-1.895.64-2.614m32.278-6.076c1.033-.902 1.739-1.229 3.058-1.542l-1.084 2.43-1.974-.888m-.26-19.746h14.465c1.19 11.056-5.292 14.754-14.466 18.609zm21.365-5.92c-.327-.718-1.097-4.717-2.221-3.855 5.11 9.553 1.699 22.111-7.175 28.175-2.613 1.568-5.84 4.181-8.925 2.43 1.986-7.736 11.526-4.469 13.604-19.249-.262-.117-.366-.196-.588-.248a25.709 25.709 0 0 1-1.595 5.96c.824-2.196.3-9.083.458-9.462-.092-.118-.183-.157-.458-.497.053.824-.013 1.124 0 2.222H77.192v-15.08h14.205v8.507c-.013.052.052.457.078.6.21-.313.223-.3.366-.404v-9.148H62.06l-.027 7.71h.43v-7.266H76.76v15.08H62.974c-.04.04.013-.234-.04-.195 0-.04-.09.235-.09.196h-.38c-.013-.693 0-1.137 0-1.15l-.431-.027c-.327 1.137.614 10.611 2.17 12.27-3.11-3.018-4.091-8.376-3.503-12.4 0 0-.287-.223-.614-.51-.967 5.671 1.176 11.277 5.162 15.341.34.366.718-.026 1.15-.13-.092-.092-.275-.235-.405-.418.156.156.287.3.405.418l-.222-.615c-3.124-2.391-3.646-9.212-3.712-12.336h14.297l-.027 18.962c-3.045-.144-5.097-3.45-8.024-3.476 4.208 2.496 11.918 8.52 16.792 5.88.04.04.027.04.066.079-.51.64-2.314 1.855-3.124 1.542-1.32-.797-3.371.653-2.43 2.143.13.17.196.327.052.549-5.267-.497-9.997-3.633-14.427-6.325-.052.039-.04.039-.078.078 1.698 2.3 7.775 5.149 7.775 5.149l-.013 3.424.653.418v-3.685c1.594.549 4.822 1.555 4.822 1.555v2.3l.614-.392-.027-1.725.863-.235c.536-.144.889-.68.823-1.229a.638.638 0 0 1-.353-.745c.131-.68.941-.692 1.268-.287.666.3 1.307-.497 1.96-.68.915-.562 2.052-1.058 2.47-2.104a.86.86 0 0 1 .444-.548c1.843-1.059 3.633-2.222 5.149-3.725 6.442-5.462 8.703-14.819 6.547-22.842m-13.55 9.514c-.065-.052-.234.013-.248.052 0 .353-.365.248-.47.483.065.144.17.262.327.249.196-.014.183.235.366.248.836-.392 1.842-.3 2.574-.954-.274-.235-.34-.549-.405-.876-.483.027-.954-.039-1.385.196-.04.223.118.34.222.536-.34.144-.653.222-.98.065m-.967-10.99c-.628-.026-1.124-.078-.941.68.039.183.104.732.209.863.052.065.039.144-.014.196-.26.144-1.228-.249-1.11-.575 0-.288-.275-.34-.366-.144-.04.078-.105.078-.21-.027-.17-.261-.417.091-.326.274a.13.13 0 0 1-.091.183c-.275.105-.262.47.117.484.81.379 1.516.77 2.457.627l-.013.014c1.019-.079.496-.275.444-.994-.17-.77 1.137-1.267-.157-1.58m1.935-1.438l.353.719s.744.327.836.431c.418.3.353 1.15-.027 1.059-.614-.262-.98-1.124-1.411-1.673-.118-.078-.405-.967-.601-.745-2.536.575.457 1.228 0 2.17-.092.13-.38.796-.262.888.223.261.693.457.954.784.405.405.04.876-.47.497-.3-.223-.64.104-.34.392.013.052-.183.13-.222.17-.3.405.209.392.47.183.144-.079 0 .365.249.287.457-.104 1.176-.34 1.306-1.059.288-.666-.379-.561-.548-1.136-.157-.249-.17-1.124.183-.798.34.419.797.667 1.202.288.379-.353.039-1.229-.157-1.608-.38-.77-.797-1.515-.771-2.43.523-.601 1.124.483 1.477-1.216-1.203.079-2.379.89-1.79 2.235.365.771.287.706-.432.562m-2.6.51c.131-.131.562-.549.614-.654.04-.09.066-.09.366-.117.837-.118 1.255-.458 1.49-1.36.118-.26-.04-.849-.21-.966-.064-.053-.09-.144-.051-.17.157-.027.483-.144.535-.327-.09-.17-.3-.04-.6-.144-.21-.091-.785-.274-1.02-.144-.17.196-1.137.222-.967.51.04.104.118.353.118.353l.444.052v.313l-.418.105c-.261.379.627.418.862.104.157-.183.406-.21.406 0-.131.248-.55.379-.81.51-.367.052-.471.797-.759 1.032-.81.157-1.11.13-1.908-.523-.3-.34-.535-.078-.313.183-.144.052-.889-.379-.549.353l.052.065c-.366.523.183.353.484.51.666.261 1.385.457 2.234.313m-2.287-3.265c.248.144.418.862.575.967.275.366.85 1.333 1.425 1.137V44.6c.17-.078.327-.562.34-.64-.014-.013-.105-.104-.21-.183-.535-.457-.862-.928-.875-1.346-.014-.144.313-.327.287-.457-.013-.484-.418.065-.575-.027-.091-.131-.392-.536-.575-.34-.118.052.027.34-.065.405-.04.065-.065.065-.196.065-.431 0-.484.262-.13.432m-16.218 8.05c-.078-.065-.13-.143-.183-.209-.013.196.091.445.052.64a8.48 8.48 0 0 1-.117.55c.26.248.405.274.692.17-.027-.392-.13-.863-.444-1.15m6.286 1.019c-.052.248.183.366.235.562-.3.196-.627.196-.941.248-.17-.17-.235-.47-.523-.379-.17.04-.078.21-.196.274-.327-.026-.327-.026-.379.3.105.066.21.118.3.184-.234 1.137 2.889-.052 3.346-.392-.144-.249-.34-.432-.405-.732-.13-.497-1.059-.091-1.437-.065m-5.41-1.973c-.497.914-.353 1.738.235 2.509 1.11.039 1.568-1.477 1.385-2.392.118-.078.222-.157.34-.235a4.257 4.257 0 0 1-.092-.327c-.196-.013-.379-.027-.562-.027-.392-.522-.64-.522-1.11-.065-.327-.118-.327-.118-.55.17a.738.738 0 0 0 .354.366m9.082 1.36c-.327.157-.758.313-1.02-.079.562-.235 1.268-.183 1.647-.705.287-.353.261-1.046-.287-1.242-1.425-.392-2.927.327-4.365.458-2.705.731-.784-.588-2.927-.575.77 2.195 3.07.784 4.678.627-.118.261-.379.353-.483.588.562-.118 1.306.104 1.725-.34.222-.6 1.66-.666 1.32.157-1.36 1.307-5.58.078-7.462.928-.275.85-.784 1.424-1.608 1.66-.666-.419-.967.052-1.646-.131-.065-.065-.131-.144-.196-.21-.027 0-.04-.013-.052-.026-.027-.027-.053-.04-.079-.04 0 0 .014.014.014.028.013.392-.092.77-.249 1.136.889.34 1.843-.078 2.705-.313.353-.104.55-.457.928-.457.915.078 1.438-.693 2.222-.915.967-.183 1.947-.34 2.94-.314 1.137 1.542 1.346.223 2.365.758a10.72 10.72 0 0 1-.09.458c.103.027.182.065.273.091-.104.379.47.601.55.118 0-.065-.028-.131.064-.144.602-.327-.326-1.934-.967-1.516m-9.631-3.92c-.04-.406-.144-.876-.458-1.164-.352-.366-.47-.862-.104-1.254-.183-.17-.418-.04-.601-.275-.222-.26-.366.04-.418.314-.64.091-.275.3-.131.64.222.588.967 2 1.712 1.738m5.841-.143c-.052.248.183.366.235.562-.3.196-.627.209-.94.248-.17-.17-.236-.47-.523-.38-.17.04-.079.21-.196.275-.327-.027-.327-.027-.38.3.105.066.21.118.301.184-.235 1.15 2.888-.053 3.359-.392-.157-.249-.353-.432-.406-.732-.13-.497-1.058-.092-1.45-.065m-5.41-1.974c-.497.915-.353 1.739.235 2.51 1.111.039 1.568-1.477 1.385-2.392.118-.078.223-.157.34-.235a3.297 3.297 0 0 1-.091-.34c-.21 0-.38-.013-.562-.013-.405-.523-.64-.536-1.124-.065-.327-.118-.327-.118-.549.17a.765.765 0 0 0 .366.365m9.082 1.36c-.327.156-.758.313-1.02-.079.576-.235 1.269-.183 1.66-.705.288-.353.262-1.059-.287-1.242-1.424-.392-2.94.327-4.378.458-2.705.731-.784-.589-2.927-.575.771 2.195 3.071.784 4.679.627-.118.261-.38.353-.484.588.575-.105 1.32.104 1.738-.34.222-.601 1.647-.666 1.307.144-1.346 1.333-5.58.091-7.462.94-.287.85-.784 1.425-1.607 1.66-.575-.352-.876-.065-1.372-.078.026.157.078.314.117.47s.053.327.066.484c.575-.065 1.136-.274 1.685-.431.34-.104.55-.458.928-.444.915.065 1.438-.706 2.222-.928.967-.183 1.96-.34 2.953-.314 1.137 1.542 1.333.235 2.365.758-.039.144-.065.288-.091.458.104.039.183.065.261.09-.104.38.47.615.55.119.013-.053-.014-.131.064-.144.615-.327-.313-1.934-.967-1.516m-9.37-4.248c-.026-.392-.13-.862-.444-1.136-.353-.366-.47-.863-.104-1.255-.183-.17-.418-.04-.601-.274-.222-.262-.353.039-.405.313-.64.091-.275.3-.131.627.209.588.954 1.987 1.686 1.725m5.802-.143c-.04.261.183.366.222.562-.288.196-.601.209-.915.248-.17-.17-.235-.47-.523-.379-.17.04-.078.21-.196.287-.327-.026-.327-.026-.366.288.092.065.196.13.288.183-.235 1.137 2.862-.052 3.332-.392-.157-.249-.353-.418-.405-.719-.13-.497-1.059-.091-1.438-.078m-5.37-1.947c-.497.901-.353 1.725.235 2.496 1.11.027 1.555-1.477 1.372-2.379.118-.078.222-.157.34-.235a4.257 4.257 0 0 1-.091-.327c-.197-.013-.38-.013-.55-.026-.404-.51-.64-.523-1.123-.066-.314-.117-.314-.117-.536.17a.739.739 0 0 0 .353.366m-2.326 3.333c.144 0 .274-.157.418-.013l-.04.222c.89.392 1.856-.052 2.732-.288.353-.104.549-.457.94-.444.903.065 1.412-.692 2.196-.915.967-.183 1.947-.34 2.927-.313 1.124 1.529 1.333.222 2.34.745a6.02 6.02 0 0 1-.092.457c.105.04.183.065.275.091-.105.38.457.602.535.118.014-.052-.013-.13.066-.144.614-.326-.314-1.92-.954-1.502-.327.156-.758.3-1.007-.079.562-.235 1.255-.17 1.634-.705.287-.34.261-1.046-.287-1.229-1.412-.392-2.915.327-4.339.458-2.692.718-.771-.575-2.901-.575.771 2.182 3.058.784 4.64.627-.105.248-.367.353-.471.588.562-.118 1.293.091 1.711-.34.223-.601 1.647-.666 1.307.144-1.346 1.307-5.54.091-7.41.928-.274.85-.77 1.411-1.593 1.646-.667-.405-.968.066-1.634-.117-.183-.21-.379-.445-.666-.223v.314c-.314-.091-.667.34-.327.549m14.4 17.42c.366.561.471 1.463 1.098 1.79.288 0 .732.261.902-.079-.183-.679-1.02-1.058-.902-1.829.052-.183-.027-.353-.17-.51-.313.092-.993-.64-.745.236-.209.065-.326.196-.183.392m1.948-2.954c-.053-.875-1.059-1.437-.758-2.313a.39.39 0 0 0-.105-.483c-.3.078-.3.078-.522-.066-.38-.183-.432.236-.392.51a1.806 1.806 0 0 0-.249.104c.262.745 1.046 2.627 2.026 2.248m0 10.376c-.327-.627-.837-1.202-1.072-1.869.287-.405.157-.927-.379-.588-.13-.274-.34-.327-.588-.261-.065.183-.104.34.078.484.014 0 0 .052 0 .078-.065.013-.117.039-.17.052-.143.353.196.549.327.823.38.588.928 2.026 1.804 1.281m3.698-5.305c-.21 0-.261.274-.104.392.13.156.274-.014.444.039 0 .091 0 .157.013.235.863.052 2.183-.732 2.653-1.438-.196-.274-.366-.548-.549-.836-.47.157-1.006.144-1.294.575l.484.51c-.314.17-.693.47-1.032.183-.144-.131-.536-.066-.445.183.014.039 0 .091-.013.144-.065 0-.104.013-.157.013m1.32 3.515c-.484.118-.954.157-1.255.653.118.157.235.3.353.47-.222.589-.81.484-1.359.51.052.196.078.3.118.418-.235.131-.327.327-.275.628.053.013.131.039.196.065.157-.196.432-.38.497-.027 1.006-.327 1.895-.928 2.365-1.869-.274-.222-.522-.47-.64-.849m3.685-3.959c-1.62-.536-4.182 2.993-5.253 1.947-.262-.562-1.072-.496-1.582-.353.615.445.941 1.412 1.87 1.098 1.045-.209 1.868-1.045 2.77-1.437.026.3-.288.43-.419.718.628-.196 1.176-.365 1.634-.758-.065-1.711 2.365-.51.027.536.418.014.705.196.98-.144.549-.483.575-1.176-.027-1.607M82 59.707c-.17-.091-.379-.104-.562-.091-.3-.797-.85-.484-1.293-.013-.667-.262-.562.326-.21.653-.34.797-.104 2 .758 2.352.902-.379 1.15-1.476 1.098-2.365.274-.052.51-.366.21-.536m-2.353 7.58c.862 2.038 2.143-.562 1.816-1.66.588-.497.432-.784-.274-.823-.261-.536-.797-.601-1.176-.144-.13.17-.327.104-.497.13-.366.17-.157.563.157.654-.17.614-.261 1.229-.027 1.843m.236-11.552c-.287.823 0 1.92.771 2.378.876-.392 1.437-1.542 1.124-2.496.222-.183.47-.274.392-.562-.131-.34-.654-.091-.784-.47-.327-.458-.771-.092-1.033.209-.209.027-.405-.079-.588.027-.196.352.34.561.118.914m8.194 8.73c-1.804-.236-1.53 1.018-2.431.718.17-.196.614-.3.47-.601-1.333.575-2.73.993-4.064 1.594-.666.706-.444 2.143-1.96 2.274-.065.732-1.098 1.241-1.738.901-.261.249-.157.3-.118.536-.209.196-.51.654-.039.654.144-.04.261-.262.418-.183a6.83 6.83 0 0 0-.039.3c.131 0 .3.04.34-.013.21-.262.51-.053.745-.262.77-.522 1.895-1.006 1.83-2.09 1.385-.615 2.182-2.836 3.972-2.052.889.483 1.137-.954 1.921-.993.235.535.34.483.627.313.497.38.418-.222.614-.51a.62.62 0 0 0-.548-.588M77.872 58.82c.17.052.104.261.183.366.914.065 1.83-.183 2.744-.3.692 0 .666-.602 1.176-.68 1.215.065 1.973-1.02 3.11-1.19.928-.26 2.156-.6 2.98.04.183.222.47.26.758.209.392-.066.862-.144 1.058.3-.065.065-.13.13-.222.235a4.77 4.77 0 0 1 .13.275c.197-.014.223.143.301.26.104.17.34.184.38 0 .051-.208.273-.104.339-.287.039-.561-.078-1.267-.64-1.542-.275-.26-1.373.275-1.399-.274.81.183 2.366-.875 1.294-1.555-1.816-.418-3.803.457-5.645.667-.72.156-.366-1.02-1.96-.706 1.032 2.143 3.253.627 4.978.614 0 .183-.327.17-.248.418.497-.157 1.346.105 1.634-.392.156-.614 1.45-.47 1.071.235-.967.615-2.404.34-3.541.47-1.372.119-2.888.145-4.195.628-.248.797-.614 1.634-1.529 1.83-.653-.64-1.594.104-2.287-.536-.235.052-.274.183-.366.366-.34.117-.457.313-.104.549m9.578 1.712c1.059-.027 3.516-1.19 1.725-2.144-.993-.17-1.986.314-2.953.536-3.881 1.542-1.607-.34-4.012-.13.81 2.051 2.862.993 4.404.509.04.222-.235.287-.196.51l1.49-.314c.209-1.006 2.051-1.02 1.215-.013-2.13.928-4.626.758-6.848 1.385-1.49 3.894-4.064 1.241-4.038 2.365-.588.053-.575.601.027.562.014 1.124 2.875-.183 3.398-.536.13-.26.248-.522.366-.77.875.418 1.49-.837 2.234-1.06.745-.143 1.738-.875 2.366-.195.718.784 1.777-.418 2.404.379-.235.614.079.34.183.719 0 .352.575.352.575 0 0-.157.014-.249.17-.314.314-.483-.366-1.006-.601-1.411-.51-.51-1.385.457-1.908-.079M48.103 21.248c-.327.34-.863-.17-.523-.51.314-.339.85.17.523.51m-.98 2.091l-.222.105c-.21-.419-.536-1.216-.55-1.921 0-.157.25-.17.25-.014 0 .497.182 1.137.522 1.83m2.757-.705l-.313.026c-.797-.64-1.778-.94-2.731-.77-.014-.092-.027-.17-.027-.262 1.071-.17 2.195.21 3.07 1.006m-.861-1.19c-.327.353-.863-.156-.536-.496.327-.353.862.157.536.496m-1.83-.183c-.327.34-.862-.17-.536-.51s.863.17.536.51m3.398 1.19c-.327.352-.863-.157-.536-.51.327-.34.862.17.536.51m-.732-.615c-.327.353-.876-.156-.536-.496.314-.353.863.157.536.496m-6.965 1.582c.47.013.483-.732 0-.732-.47-.014-.484.732 0 .732m2.13.81l.235-.091c-.157-.432-.497-1.229-.98-1.725-.118-.118-.3.052-.183.156.34.353.666.928.928 1.66m-2.392 1.424l.249-.196c.091-1.019.575-1.934 1.346-2.496l-.157-.196c-.876.64-1.399 1.712-1.438 2.888m42.08 14.388h5.109v11.918H78.72V40.04zm6.18 11.905c0-.222-.261-.392-.47-.314v.053c-.405 1.816-.21-5.685-.248-5.41l.379.143v-.862l-.38.144V40.17c.053-.274.484-.04.249.144v.052c.51.157.653-.653.118-.666l.34-.588-.079-.079c-.013 0-.614.34-.614.327-.014-.497-.863-.379-.706.118h.052c.183-.222.445.17.144.222h-5.096l.157-.34h-.928l.157.34h-5.097c-.3-.04-.052-.457.144-.222h.052c.17-.497-.692-.614-.705-.118 0 .013-.602-.327-.615-.327l-.078.079.34.588c-.549.013-.392.823.118.666v-.052c.392-1.83.209 5.645.235 5.384l-.353-.144v.862l.353-.143c-.027-.131.157 7.187-.235 5.41v-.052c-.51-.157-.667.653-.118.653l-.34.588.078.078c.014 0 .615-.327.615-.327.013.51.875.38.705-.104h-.052c-.078.118-.287.052-.287-.091 0-.065.065-.131.144-.144h5.096l-.157.353h.928l-.157-.353h5.097c.078.013.13.078.13.144.014.144-.196.209-.287.091h-.052c-.157.497.705.614.705.104.014 0 .615.327.615.327l.09-.078-.352-.588c.21 0 .366-.144.366-.34m-11.383-5.462v.117c.027-.209.353-.065.183.079l.052.052c.34.039.392-.47.052-.484v-.013l.406-.183v-.118l-.406-.183c.34-.026.288-.535-.052-.496l-.052.052c.17.144-.157.3-.183.091v.118-4.39h.353v-.328h3.776c.223.04.04.327-.09.17l-.066.053c-.04.326.523.352.523.026l.196.406h.13l.197-.406c0 .327.561.3.522-.026l-.052-.053c-.13.157-.313-.13-.104-.17h3.79v.327h.352c-.039-.078.131 5.397-.183 4.182l-.065-.052c-.327-.04-.379.47-.039.496v.014l-.405.17v.118l.405.183v.013c-.34.013-.287.523.04.483l.064-.052c.314-1.241.144 4.352.183 4.195h-.353v.327h-3.79c-.208-.027-.038-.34.105-.183l.052-.04c.04-.326-.51-.365-.522-.038l-.196-.392h-.131l-.183.392H84c-.013-.327-.548-.288-.522.039l.065.039c.144-.157.313.157.091.183h-3.777v-.327h-.352zm5.253-5.685zm4.274 4.717zm-5.28 5.685zm1.032 0h-.013.013m3.895.327h.705V40.472H79.152v11.055zM82.04 37.91c.248-1.006.588-2.718 1.15-3.568l-1.084-.365c.013 1.084-.575 2.77-.928 3.79l.862.143m-5.946-2.012c-.013-.68.079-1.87-.209-2.457h1.398c-.222.627-.627 3.528.575 3.384.47 0 .941-.326.928-.823-.013-.693.092-1.96-.209-2.561h1.398c-.326 1.084-.326 2.992 0 4.09h-1.189c.027-.092.04-.222.04-.405-1.216.862-2.85.431-2.732-1.228m-2.992 1.11c1.58-.614.209-3.058-1.19-2.483-1.568.602-.222 3.071 1.19 2.483m2.404.64v.014c-.627.51-1.424.3-2.104-.065-1.96 1.11-4.077-1.477-2.509-3.136 1.66-1.974 4.953.274 3.359 2.443.522.405.94.654 1.254.745m-9.213.549c0-.014 1.294 0 1.307 0l-.888-1.425c.444-.274 1.41-.653 1.842-.627l-1.032-.784-3.15 1.895.366 1.202.014.013c.26-.496.64-.901 1.058-1.137a24.42 24.42 0 0 0 .484.863m-4.692 5.776c-1.895-.118-2.287-3.385 0-2.888v-.798c-2.966-.183-2.927 4.522 0 4.43zm-.85 1.241c-.666-.536-1.541.431-2.221.588-1.19.065-.248-1.411.457-1.516l.014-.013-.562-.418c-1.072.548-1.882 2.861-.157 2.9.366.027 1.294-.627 1.607-.692.81-.157.55.928.066 1.19.235 0 .483-.04.718.026.458-.64.745-1.555.079-2.065M86.039 73.86l2.26-1.307c-.287-.222-2.05-3.11-2.116-3.463l-2.143 1.242.09.888h.014c.34-.431.824-.81 1.438-1.176l.666 1.098c-.34.183-1.097.64-1.372.692l.392.47 1.255-.718.64 1.046c-.418.235-.81.365-1.19.378zm8.99-7.985l.393-.758-3.254-2.182-.366.68c.13.157 2.248 1.411 2.248 1.411s-3.49.457-3.66.732l3.254 2.234.38-.548-1.948-1.268 2.954-.3m1.672-3.254l.72-2.457c-.367.027-3.66-.928-3.96-1.15l-.68 2.326.68.588.013-.014c-.04-.535.027-1.136.222-1.803l1.255.366c-.131.366-.353 1.19-.523 1.411l.627.092.405-1.36 1.202.353a2.749 2.749 0 0 1-.6 1.059zm-6.965 8.82c2.535-1.11 1.973-3.633-.901-2.483-1.203-.34.313-1.555 1.123-1.293l.014-.014-.601-.718c-.902.392-2.34 1.607-1.582 2.64.536.679 1.608-.04 2.313-.04 1.163.222-.09 1.425-.81 1.36l-.013.013M59.563 53.5l.066-.902c-1.19.236-3.11.236-4.287 0l-.065.89c1.19-.223 3.11-.223 4.286.012m.405 14.492l.693.968c.745-.915 2.287-2.026 3.385-2.444l-.693-.98c-.274.444-.875.888-1.346 1.215l-1.072-1.49c.458-.34 1.059-.77 1.569-.888l-.706-.98c-.745.914-2.287 2.025-3.385 2.456l.706.967c.274-.444.863-.875 1.32-1.202l1.085 1.49c-.458.34-1.059.77-1.556.888m-2.56-6.69c.875-1.595 3.815-.64 2.6 1.176-.915 1.542-3.79.68-2.6-1.176m-.236 2.156c2.012 1.92 5.175-1.163 3.097-3.136-2.012-1.948-5.227 1.15-3.097 3.136m-1.477-5.332l.235.902 4.156-.523-.209-.81c-.21-.052-2.797.431-2.797.431s2.457-2.875 2.392-3.214l-4.182.47.078.732c.21-.04 2.47-.353 2.47-.353l-2.143 2.365m53.736 5.96c-.118.13-.863 2.247-1.111 2.168a.493.493 0 0 0-.523-.222c-.118-.052-.157-.209-.091-.353.13-.143.823-2.313 1.15-2.156a.5.5 0 0 0 .549.275.317.317 0 0 1 .026.287m-2.025 7.396c.078-.535-.614-.836-.902-.379.078-.196-.183-2.234.196-2.234.157.118.366.144.536.013.104.027.21.144.21.275v2.195a.225.225 0 0 1-.04.13m1.098 3.817c-.654 3.724-5.437.039-2.013-1.542a.48.48 0 0 0 .863.013 1.6 1.6 0 0 1 1.15 1.529m.496-12.48c-1.058-.653-1.633 2.235-2.025 2.731-.183.431-.014.889.366 1.02l-.771 1.607c-.419-.065-.771.248-.771.732.157.614-.47 3.332.627 3.371v.745c-2.653.47-2.26 4.665.483 4.6 2.719.065 3.137-4.09.497-4.6v-.719c.418.066.784-.248.784-.731-.144-.601.418-3.215-.562-3.346l.588-1.228c1.006.549 1.594-2.287 1.96-2.77.183-.393.04-.837-.3-.98l.444-.928c-.13-.17-.379-.55-.627-.954zm.614-1.569h.013a4.696 4.696 0 0 1-.235-.418.607.607 0 0 0 .222.418M76.931 3.293C76.8 4.34 76.25 5.15 75.57 5.28v.26h1.32a.883.883 0 0 0-.156.158c-2.366.536-2.614 4.142-.353 4.979-.876-.85-.196-2.483 1.045-2.444 1.242-.04 1.921 1.594 1.033 2.444 2.26-.837 2.012-4.443-.34-4.98-.052-.051-.105-.117-.17-.156h1.32V5.28c-.68-.131-1.216-.941-1.36-1.987 1.046.144 1.856.68 1.987 1.36h.261v-3.7h-.261c-.13.68-.94 1.229-1.986 1.36.144-1.046.68-1.856 1.359-1.974V.066h-3.698V.34c.68.118 1.228.928 1.359 1.973-1.046-.13-1.856-.68-1.974-1.359h-.274v3.698h.274c.118-.68.928-1.215 1.974-1.359m1.137 6.874c.914-1.686-2.209-1.686-1.294 0a1.34 1.34 0 0 1 1.294 0m-1.229 1.725a1.3 1.3 0 0 1 1.163 0c1.163-1.803-2.326-1.803-1.163 0m.588 2c1.059.013 1.059-1.66 0-1.634-1.058-.027-1.058 1.646 0 1.633m0 2.039c1.059.013 1.059-1.647 0-1.634-1.058-.013-1.058 1.647 0 1.634m0 2.052c1.059.013 1.059-1.647 0-1.634-1.058-.013-1.058 1.647 0 1.634m-2.313.013h1.007c0-1.934-.183-5.554-1.373-8.167-.274-.602-1.202-.183-.914.418.823 1.816 1.28 4.56 1.28 7.749m3.607 0h1.006c0-3.189.458-5.933 1.294-7.75.274-.587-.653-1.019-.915-.417-1.202 2.613-1.385 6.233-1.385 8.167m-8.141-7.004c.98.013.98-1.516 0-1.503-.98-.014-.98 1.516 0 1.503m-6.417 4.639c.98.013.98-1.53 0-1.516-.967-.014-.967 1.529 0 1.516m8.285-5.319c.98.014.98-1.516 0-1.503-.98-.013-.98 1.516 0 1.503m-10.624 8.547c.98.013.98-1.516 0-1.503-.98-.014-.98 1.516 0 1.503m1.085-1.673c.98.013.98-1.53 0-1.516-.98-.013-.98 1.529 0 1.516m5.88-5.306c.98.014.98-1.529 0-1.516-.967-.013-.967 1.53 0 1.516m-7.88 8.756c.98.013.98-1.53 0-1.516-.98-.014-.98 1.529 0 1.516m4.666-6.417c.98.014.98-1.529 0-1.515-.98-.014-.98 1.528 0 1.515m1.542-1.254c.98.013.98-1.53 0-1.516-.98-.013-.98 1.529 0 1.516m24.058 3.463c-.014.98 1.529.98 1.516 0 .013-.98-1.53-.98-1.516 0m-.497-.797c.98.013.98-1.53 0-1.516-.98-.014-.98 1.529 0 1.516m1.594 2.47c-.013.98 1.516.98 1.503 0 .014-.967-1.516-.967-1.503 0m.902 1.777c-.013.98 1.53.98 1.516 0 .013-.98-1.529-.98-1.516 0m-3.907-5.659c.98.014.98-1.529 0-1.515-.967-.014-.967 1.528 0 1.515m-3.215-2.339c.98.014.98-1.529 0-1.516-.98-.013-.98 1.53 0 1.516m-3.659-1.568c.98.014.98-1.516 0-1.503-.98-.013-.98 1.516 0 1.503m1.869.68c.98.013.98-1.516 0-1.503-.967-.014-.967 1.516 0 1.503m3.463 1.973c.98.013.98-1.53 0-1.516-.98-.013-.98 1.529 0 1.516m-25.104 7.37l1.373-.444c2.117-3.842 5.658-6.69 9.84-7.75-.092-.352-.21-.692-.314-1.019-4.77 1.229-8.73 4.652-10.898 9.213m28.24-.444l1.358.444c-2.156-4.56-6.116-7.984-10.885-9.213-.118.327-.222.667-.327 1.02 4.195 1.058 7.723 3.907 9.853 7.749M63.6 73.756c.523 1.006 3.62 3.737 4.457 2.457-1.503-.771-4.064-2.653-3.084-5.045-2.222-1.372-.262-3.541 1.476-1.698 1.843-1.137 3.881-.314 5.698.94.653-1.41-2.51-2.378-3.254-2.81-.928-.3-3.868.367-4.861.406-.667.078-1.15.68-1.085 1.359.144.719.118 3.816.653 4.39m3.411-.626c2.418.013 2.104-3.803-.274-3.398 1.098.588 2.052 2.156.353 2.613-.654.131-1.307-.561-1.778-.901a1.71 1.71 0 0 0 1.7 1.686m.287-1.595c.614-.745-1.568-1.725-1.882-2.13-.261-.157-.575-.118-.745.105-.627.705 1.516 1.698 1.803 2.09.262.21.628.183.824-.065m13.394 10.768c-.81.079-1.228.628-1.646 1.19-.392-.236-.889-.471-1.36-.471-.248 0-.483.065-.692.248 1.49.588.954 2.823-.483 2.836-1.451-.013-1.987-2.248-.497-2.836a1.017 1.017 0 0 0-.706-.248c-.457 0-.967.235-1.333.47-.43-.561-.849-1.11-1.66-1.189.445 4.117 2.314 6.168 4.196 6.168 1.868 0 3.737-2.051 4.181-6.168m-.666.889c-.588 3.267-2.143 4.73-3.515 4.73-1.386 0-2.94-1.463-3.516-4.73.17.17.34.379.536.64l.3.392.432-.261c.183-.118.353-.21.522-.274-.196.379-.248.823-.17 1.293.184.98.954 1.66 1.895 1.66.928 0 1.7-.68 1.882-1.66.078-.47.027-.914-.17-1.293a2.53 2.53 0 0 1 .523.274l.431.261.3-.392c.197-.261.366-.47.55-.64M72.2 74.357c.196-.915-1.215-1.202-1.385-.287-.21.901 1.215 1.189 1.385.287m4.861 2.404c.196-.901-1.228-1.189-1.398-.287-.196.902 1.229 1.19 1.398.287M76.03 81.14c-.157.719.993.954 1.124.222.157-.718-.98-.954-1.124-.222m.17-23.025c-.536-.053-1.11-.157-1.634-.21-1.032.89.118 1.399.89 1.333.653.17 1.528-.692.744-1.123m-8.494 2.391l3.332 4.325a5.23 5.23 0 0 1 .458.079l-3.973-5.267s-.065.536.183.863m4.887 4.286l-4.874-6.455-.13.43 4.664 6.182zm-.483 2.588c-.079-.04-.157-.052-.262-.092-.13.353-.326 1.007-.013 1.229l1.581.68 2.026-1.517.562-8.154-.614.04c-.157.013-1.268 9.421-1.843 8.872.118-.614 1.477-8.873 1.477-8.873l-.601-.078c-.04.183-.079.431-.079.431l-2.247-2.953-.288.144 2.405 3.162-.157.562c-.222-.144-2.548-3.358-2.784-3.672l-.47-.027 3.123 4.077-.157.536-3.502-4.6h-.457l3.802 4.992-.209.719-4.155-5.659-.562.014 4.613 6.076-.17.562-5.084-6.638-.09.51 5.03 6.638c-.248.758-.052.823.275 1.464.183.705-.314 1.803-1.15 1.555m-5.463-2.94l1.778 1.032c-1.412 1.712 1.123 2.456.98.77.954.419 4.678 1.556 3.188-.666-4.887.157-7.383-4.966-4.678-8.886 1.646.745 7.423-2.065 6.939.797.3.314.392.34 1.072.34 1.672-3.842-4.078-2.692-6.155-2.248-1.83.55-3.529-2.143-5.162-.666-.64.575-.222 1.842.653 1.895.784.013 1.006-1.059.314-1.385 1.516-.523.784 1.92.235 2.548-1.738-.902-2.026 1.895-.3 1.163.078.496.09.993-.027 1.476-1.882-.405-1.373 2.287.026 1.203.419.392.602.993.654 1.568-1.895.261-.392 2.679.483 1.058m-19.81-39.321c-.027-.366.235-1.085.235-1.085l-1.503.602s.692.34.928.627c-.314.104-.628.157-1.059-.04l.575 1.164c.13-.51.392-.824.601-.863.627.967-.94 2.039-1.62 1.202-.196-.34.039-.718.444-.43-.065-.72-.692-.72-.875-.184.013-.732-.17-1.176-.941-1.398-.21.732.039 1.176.784 1.49-.418-.052-.876.366-.3.875 0-.457.378-.51.6-.196.327.863-.68 1.19-1.515.314.183-.065.392-.04.653.027l-.797-.994c.039.353.013.602-.052.758-.17-.196-.223-.366-.3-.758l-.602.536c.575.366 1.228.928 2.013 2.065 1.045-1.032 5.279-2.81 6.912-2.757-.196-1.36-.117-2.222.053-2.875l-.81.026c.222.327.3.484.3.745-.157-.065-.353-.222-.562-.51l.118 1.268c.144-.222.274-.379.444-.457 0 1.202-.954 1.66-1.307.797-.065-.366.248-.601.575-.261.065-.771-.549-.758-.823-.432.327-.731.196-1.228-.457-1.62-.406.693-.236 1.137.274 1.66-.497-.249-.954.17-.497.731.092-.483.523-.365.614.014.079 1.071-1.803 1.372-1.999.235.17-.104.562-.065 1.006.222l-.366-1.241a1.26 1.26 0 0 1-.744.745m-4.444-.904c.47.014.484-.744.014-.744-.484 0-.484.744-.014.744m1.15-1.45c.47.013.484-.732 0-.732-.47 0-.47.732 0 .732m-1.529 3.267c.47.013.484-.732 0-.732-.457-.013-.47.732 0 .732m.079-.954c.47.013.483-.732 0-.732-.47-.013-.47.732 0 .732m2.104-5.044l-.745.052.392.967.51-.601c.038.027.065.039.104.039l.065 1.294c.144 1.124 1.856.43 1.163-.47l-.823-.98c.027-.04.027-.066.052-.105l.784.091-.392-.967-.562.47a.139.139 0 0 0-.091-.039l-.065-.94-.954.378.6.72c-.013.026-.038.064-.038.09m2.117 3.843c.313-.288-.157-.758-.445-.47-.313.287.144.77.445.47m-.405-.85c.313-.287-.157-.758-.445-.47-.313.287.144.77.445.47m55.878-9.97c.157-.589-.667-1.36-1.268-1.124.079.64.758 1.215 1.268 1.123M94.39 45.674c.575-.327 1.164-.588 1.673-.993-.118-.17-.209-.288-.34-.484-.496.484-1.646.64-1.333 1.477m3.215-1.294l.85 1.464c1.11 0 .17-.928-.092-1.32-.144-.157-.457-.157-.692-.235a.388.388 0 0 0-.065.091m5.527-29.834c-.431-.915-.653-1.045-1.555-.94.379.9.915 1.24 1.555.94m-.588.549c.313 1.085.732 1.307 1.843 1.15-.353-.876-.928-1.241-1.843-1.15m-2.313 12.82c-1.202-.562-2.196.157-3.41-.118.352 1.699 2.351.47 3.41.118m3.489-11.108c-.065 1.058.836 1.686 2.313 1.607-.379-1.084-1.15-1.672-2.313-1.607m3.947 3.737c.026-.039.065-.078.09-.13-.875-1.255-1.24-1.503-2.796-1.516.027 1.516 1.595 1.516 2.705 1.646M92.155 43.36c.313-.81 1.869-2.81 1.02-3.45-.38.235-1.203.13-1.125.745v2.679c.04.013.079.027.105.027m-4.757-5.607l.954-.079c.327-1.24-.379-1.372-1.215-2.038-.353 1.032-1.255 1.529-1.764 2.391.823-.052 1.306-.327 1.79-.967l.235.693m9.644 9.239c-2.064 2.535-2.09 2.9 1.072 3.986-.027-.288-.052-.47-.078-.693-.615-.183-1.216-.405-1.765-.784l1.15-1.425-.379-1.084m1.307 7.422l-1.764-.13.065.784.967.248c.091 1.83-.915 1.869-2.274 1.098-.418 2.326 3.333 2.09 3.006-2m7.723-31.768c.706 0 1.712.445 2.287.04.027-2.235-2.692-1.935-4.234-1.974.457.823 1.045 1.66 1.947 1.934m5.92 2.77c.653 1.53 1.686 1.164 2.352 2.17l-1.542-.51c-.039 1.634 2.013 1.804 3.163 2.43-.196-2.639-1.477-3.645-3.973-4.09m.418 8.416c-.039.014-.078.014-.118.027-.34 1.49.706 2.797 1.36 4.077 1.123-2.012 1.071-4.286-.732-5.867-.55 1.058.222 2.078.496 3.084l-.118.039-.888-1.36m.431-9.735c-.013.052-.013.091-.026.13l-1.425-.078c.523 1.686 2.483.876 3.725 1.647-.72-1.36-1.229-2.68-2.875-2.954.183-.797-.04-1.555-.536-1.855 0 .706-.288 1.215-.941 1.49-.314 1.398 1.15 1.32 2.078 1.62m-61.693 12.91c-1.49.092-1.28-1.776-1.712-2.835-.275.3-.497.562-.732.836l.94 3.202.68-.483c1.046.731 2 .222 2.34-.928.313.078.588.222.81-.014a639.013 639.013 0 0 0-1.438-2.966c-.3.052-.575-.366-.94-.027.34.928 1.568 2.784.052 3.215m61.98-8.232c-.535 1.032 1.007 1.464 1.033 2.444l-1.15-.915c-.496 1.92 1.764 2.535 2.47 4.038.902-2.797.405-4.482-2.352-5.567M62.765 72.449c.627-.588-.235-.928-.562-1.385-5.645-5.254-7.75-12.075-7.253-19.654-.13-.066-.3-.157-.588-.288-.94 8.037 2.157 16.14 8.403 21.327m-18.778-34.8c.34.823.862 1.777 1.698 2.13-.43-1.633.667-3.058 1.19-4.534 0 3.41-1.935 5.253 2.744 6.507-1.242-2.012-.418-4.443-1.216-6.507-.744-.432-1.594-.536-2.103-1.163-.144-.301-.392-.406-.667-.47-.875-.184-1.686-.484-2.13-1.203-.64.196-1.032.17-1.62-.078-.053.731.562 1.463 1.385 1.189-.654.954-.288 1.803-.052 2.783.47-.98 1.189-1.568 1.986-2.064-.614 1.045-1.712 2.09-1.215 3.41m9.173-6.77c.222 1.125-.091 2.079-.836 2.954 1.11 1.987 2.992 3.49 3.829 5.633 1.842-3.45-.131-4.613-2.68-6.508 1.634.575 3.28 1.137 4.196 2.692.196-2.967-1.124-4.443-4-4.9 0-.04.014-.08.028-.119 1.202-.065 2.391-.052 3.515.68-.3-.928-1.046-2.287-2.13-2.17.392-.823.379-1.358-.014-1.842-.183.562-.548.915-1.136.941.13 1.032-.21 1.882-.771 2.64m-9.789.758l.079-1.19c-.445-.065-.85-.143-1.307-.221.536-.392 1.176-.497 1.699-.3-.445 1.907.353 3.24 2.391 3.345.614-.928 1.163-1.059 1.764-.419-2.666-.274-.68 2.562.68 1.595.366-.523 1.516-.98 1.189-1.725-2.117-1.555-1.973.745-2.378-3.097-.079 0-.183-.014-.262-.014-.196.719-.914 1.28-1.502.601-.196-.235-.38-.444-.706-.496 1.45-1.163 3.175.51 3.07-2.222 1.621 2.026 1.765-.222 3.36-.261-.066 1.607-.406 1.49-1.791 1.398.457.34 2.182 2.065 1.176 2.235-.418-1.085-1.124-2.13-2.326-2.352-.954.967-.483 2.051-.34 3.162.863-.287 1.595-.85 2.496-.784.3.889-1.124 1.385-.313 2.26 1.385.223 2.888.236 2.443-1.724-.444-.262-.901-.445-1.359.039.027-.758.758-.889 1.346-.745 1.281-1.346.85-3.15-.522-4.234.366-.536.745-.902 1.398-1.032-.222.457-.68.627-.784 1.045l.862 1.072c.732-.327.928-1.477.405-2.653-.901.235-2.496.98-2.496.98-.784-.3-.444.091-.34.47-2.495.458-4.939 1.111-6.925 2.77-.353.249-.51.092-.628-.404-.235-.366-.34.26-.379.418 0 0-1.502.366-2.143.915.458.77 1.111 1.96 2.143 1.568m59.29 24.136c-.706.118-.85.405-.732 1.085-.771 1.673-.797 3.711-2.117 5.122 2.848-.797 2.221-1.881 2.914-4.05-.144 2.94.013 2.9 1.071 4.913-2.195 1.542-5.789.248-6.99 3.254.339.379.77 0 1.214.091-.287.353-.405.758-.862 1.059l.222-.64c-.823-.275-1.503 1.607-2.117 2.208 5.868-1.176-.706-2.901 10.873-4.247 2.038-.967-1.948-2.483 2.077-5.018.353-1.386.575-2.823 1.333-4.078.17-.418-.104-.993-.483-1.28-1.764 1.241-2.6-.758-6.404 1.581M56.82 68.894c.55.105 1.163.21 1.686-.039l-2.47-4.208c-1.463 1.804-4.012.706-5.606-.405-1.307-.954 1.503-2.456.601-5.658 1.255 2.025-1.02 3.763 2.483 4.9-1.006-1.516-.875-3.463-1.254-5.188-.04-.3-.197-.588.052-.901.117-.405.144-.967-.418-1.033-3.934-2.247-3.137-1.15-6.966-1.672-.927 1.646 1.059 3.123.745 4.743-.274.797.928.771.915 1.542.261 1.203.13 2.888-1.241 3.359-.693.418-.144 1.28.457 1.49-1.215 2.195-.287 2.548 1.581 3.645.014-.849.027-1.58.38-2.313 2.56 1.712-1.268 2 3.828 4.065-.523-.863-.51-1.778-.588-2.627l1.437.327c.55 2.352 1.817 2.561 4.065 2.352-.798-.797-1.033-1.83-1.608-2.666.68.222 1.346-.235 1.921.287m52.808-7.644c.013.039.039.078.065.117l.027-.052zm.784-.353a.512.512 0 0 1 .274.274c.078.013.183-.039.248-.13.04-.118 1.386-1.882 1.229-2.013a.466.466 0 0 1-.34-.3c-.118-.131-.314-.184-.431 0-.053.222-1.555 1.92-1.163 2.13.065 0 .117.013.183.039m16.243-12.924c-.954.287-1.333 1.071-1.686 1.96-2.365-3.698-6.873-6.247-7.553-10.755.523-3.62 5.306-2.797 4.339.98 2.483-1.346 1.28-3.829-1.059-4.26 2.548.196 3.934 2.352 5.672-1.229-1.503.55-3.79.157-4.587.053 3.175-.432 4.887-.405 4.796-4.339-1.085 2.352-4.064 2.405-6.234 3.163.144-1.046-.183-1.686-1.032-2.026.863 5.75-10.023 3.868 1.934 16.27-1.464-.81-3.175-.55-4.587-1.438 1.098 2.98 2.98 2.47 5.423 3.502-2.626-.013-3.436 2.549-1.502 3.777-.497-1.973 2.208-3.345 3.58-1.79 3.097 3.985-2.587 9.526-7.631-.47.039.548-.34 1.045-.876.875l-.575 1.594c1.15.418-.614 2.653-.732 3.293-.209.431-.653.562-.993.327l-.549 1.15c.693.64-1.189 2.47-1.398 3.032-.222.313-.614.43-.889.26l-.196.42c.04.051.065.077.079.077 1.267 1.516 1.855 2.68 1.515 4.274 1.033-.876 1.49-3.346.667-4.679.928.967 2.3 1.673 2.823 2.914.548 2.274.13 4.522-1.412 6.312-.653.654-.47 1.006-.562 1.804-.43 1.28-1.96 1.385-2.535 2.47-.405.953-1.071 1.724-1.372 2.718 1.738-.262 1.437-2.692 3.084-3.176-.666 1.006-1.307 1.934-1.764 3.11 1.372-.353 3.96-.719 3.528-2.666-.327-.888.536-1.476.497-2.326 1.084-.392.836-.836 1.346-1.672.248.51.261.94.235 1.502-.144-.287-.222-.457-.314-.653-.77 1.045-.13 2.052-.235 3.175 3.777-3.397-1.254-3.371 2.68-10.885.9-1.503-2.562-1.333-2.823-4.718-.249-1.463 1.032-2.652 1.306-4.05 1.516 2.691 6.809 2.6 6.077 6.037 1.072-.797 1.02-2.274.601-3.385 5.462-1.96 1.15-6.978 2.914-10.533m-12.885 8.652c.027-.21 1.163-2.091.863-2.248a.49.49 0 0 1-.523-.261c-.274-.118-.993 1.92-1.124 2.051.366-.222.823.144.706.562.027-.027.065-.052.078-.104m1.137-5.397c-.013.09.027.156.078.222.21-.183.536-.105.68.104.235-.065.157-.797.196-.967a9.962 9.962 0 0 0-.836-.823zm-29.52 35.218c3.672-.732.418-5.11-4.104-3.32-.392 1.738-.744 3.372-2.208 4.666 2.901.13 5.724-.053 8.429-1.203 1.346-.81 1.346-3.737 2.81-5.318-1.673-.327-.89 5.344-4.927 5.175M71.638 83.19c-4.508-1.79-7.775 2.574-4.103 3.306-4.038.183-3.254-5.502-4.914-5.162 1.451 1.568 1.451 4.508 2.797 5.319 2.705 1.15 5.528 1.333 8.429 1.202-1.45-1.307-1.817-2.94-2.209-4.665m23.967-44.836c-.118-.144-.157-.353-.052-.51-.183-.04-.51 1.751-.575 1.856.13.117.248.248.352.366.17.052.458.156.51-.092l.405-1.581c-.183.17-.483.183-.64-.04m19.223 7.737c-.34-.027-.628.274-.51.64a.12.12 0 0 1-.091-.039l-1.595-1.084c-.104-.079-.143-.21-.078-.327.3-.014.614-.17.575-.536.131.157 1.843 1.071 1.699 1.346m-5.854-5.528l-.288.366c-1.764-2.012-7.723-4.325-10.297-3.946 0 0 .027-.3.052-.47l-.027.012.98-.614-.836-.692c.013-.105-.536-3.49-.536-3.49l1.477-.052s-.523.628-.55 1.111a.784.784 0 0 1 .21.248c.287-.13.601-.744.601-.744l.144 2.012s-.405-.588-.706-.68c-.027.066-.052.144-.104.196.418 1.333 2.365 1.399 2.365.262-.065-.588-.719-.497-.68.13-1.058-.836.367-2.195.968-.836-.079-.784-.014-1.215.6-1.607.393.51.34.98-.09 1.751 1.293-1.215 1.803.836.575 1.137.6-1.085-1.124-.732-.497.392.588.889 1.986.758 2.47-.21a.727.727 0 0 1-.065-.182c-.497-.091-1.216.327-1.216.327l.68-1.843s.274.784.692 1.032a.567.567 0 0 1 .262-.143c.078-.484-.406-1.242-.406-1.242l2.261.863s-.888.235-1.176.64a.53.53 0 0 1 .091.274c.47.105 1.242-.287 1.242-.287l-.823 1.803s-.236-.797-.654-1.045c-.052.027-.118.052-.183.078-.327 1.046.627 2.052 1.647 1.804 1.254-.392.261-1.804-.079-.615-.666-1.045 1.15-2.195 1.229-.444.222-.85.523-1.228 1.176-1.333.17.68-.104 1.046-.706 1.568 1.399-.588 1.464 1.36.105 1.255.483-.444.065-.941-.405-.549-.81.836.705 2.052 1.894 1.45 0-.078.014-.156.053-.222-.3-.196-.994-.222-.994-.222l1.451-1.071s-.17.653-.027.98c.105-.014.21 0 .314.039.313-.314.326-1.15.326-1.15l1.085 1.346s-2.718 1.254-3.202 1.62l-.757-.078.379 1.059zm-8.011-9.84c.457.17.889.405 1.346-.052-.444 0-.575-.314-.706-.601-.209-1.503 2.235-.967 3.15-.863 2.3 1.398 6.194.51 4.848-2.822 1.058.653.692 2.482-.118 3.188-2.117 1.15-4.13.287-6.246 2.535-.327-1.032-1.542-.967-1.974.157l-.901.052c-.066-.6.405-1.032.6-1.594m5.672-5.763c-.68.47-1.28 1.15-1.973.222-.157.04-.287.065-.457.092 1.019-1.595.94-1.32 2.43-.314m2.313-3.633c.51.562.732 1.176.732 1.856-.496-.157-.706-.693-.732-1.856M87.803 30.33l2.575-.915.94 1.895-1.777 1.137zm-1.646-.444c-.327 1.96-4.718 1.11-4.3-.824.327-1.96 4.731-1.123 4.3.824m-8.743.85l-2.744-1.935 2.758-1.934 2.744 1.934zm-6.285.247c-2.784.562-3.385-2.509-.588-3.018 2.783-.562 3.384 2.509.588 3.018m-5.815 1.464l-1.778-1.137.928-1.895 2.575.915zm33.832-6.155l.64-.078c-.417-.3-.013-.732.354-.432.836.654-.85 1.725-.994.51m17.002 21.98l-.235-.026-.628-1.712c.288-.38.458-.98-.013-1.281-.614-.248-2.34-2.235-2.849-.954-.222.091-1.594.157-1.699.418a15.484 15.484 0 0 1-1.633-3.371c.274-1.438 4.05-3.215 4.05-3.215s-1.07-1.542-1.502-2.418c-.183.432-.366.249-.771.432 2.09-3.725 2.535-8.638-.235-12.167-.288-.614-.157-1.424-.431-2.012-.497-.64-.824-1.895-1.673-2.026 0 1.111-.118 2.196.418 3.228.575.706-.784 1.32-1.202.745.81-.091.94-.248.666-.706-3.476-.77-5.41 1.66-8.716 2.052-.3-.013-.549.091-.719.366-2.038 2.744 2.535.876 2.94 2.692-.77.627-.875.21-1.594.027-1.019.039-2.025.366-.745 1.241-.784 1.229-.744 1.66-2.339 1.764.693.98.55 2.392.719 3.503-1.137.209-1.908.758-1.934 1.973-.51.118-1.059-.144-1.424.405-.706-.601-1.53-.706-2.392-.719-.418-.313-1.424-1.032-2.522-1.594l.614-2.274 1.764-1.124c-.157-.3-.758-1.529-.928-1.855 2.052-7.03 2.719-7.436 3.75-7.58l.053-.196-3.776-1.215-.066.248c.954.693 1.255 1.843.824 3.189-1.007-.432-1.582-1.385-1.477-2.248-.013 0-.248-.065-.248-.065l-1.268 4.195s.183.065.21.065c.496-.719 1.358-1.124 2.364-.954-1.176 3.724-6.442 2.561-5.501-.601.68-1.307 1.947-.47 1.333.901 2.953-1.045 1.215-5.292-1.32-2.757.836-1.712 1.32-3.058.261-4.704-1.346.875-1.699 2.456-1.437 4.56-1.673-3.815-4.574.118-2.222 2.104-.418-2.822 3.071-.954.706 1.32-2.248 1.594-5.031-.235-5.11-3.045 1.307.105 2.3.889 2.431 1.843a14.45 14.45 0 0 1 .248.013l.157-4.809-.3-.013c-.196.98-1.255 1.803-2.588 1.83.092-1.477.941-2.64 2.039-2.823v-.275h-5.541v.275c1.098.183 1.947 1.346 2.026 2.822-1.333-.026-2.392-.849-2.588-1.83-.027 0-.3.014-.3.014l.17 4.81.235-.014c.13-.954 1.124-1.738 2.43-1.843-.078 2.81-2.848 4.64-5.11 3.045-2.364-2.287 1.138-4.142.707-1.32 2.365-1.986-.55-5.906-2.209-2.104.248-2.104-.091-3.685-1.45-4.56-1.046 1.646-.575 2.992.26 4.704-2.534-2.535-4.272 1.725-1.319 2.757-.614-1.372.653-2.208 1.333-.901.94 3.162-4.326 4.325-5.489.6.994-.17 1.87.236 2.366.955.013 0 .196-.065.196-.065l-1.268-4.195s-.222.065-.248.065c.118.862-.47 1.816-1.477 2.248-.431-1.346-.118-2.496.837-3.189l-.066-.248-3.79 1.215.053.196c1.045.144 1.712.55 3.75 7.58l-.927 1.855 1.764 1.124.562 2.065c0-.014.013-.014.026-.014-.013.027-.026.04-.026.014-5.097 2.378-3.934 3.986-7.854 3.528-.353.81-.68 1.608-1.477 2.156-.144-1.241-.706-2.195-1.424-3.07-.366-.432-.863.039-1.399.078-1.058 2.313-1.803.222-3.672 1.437.079 1.085.236 2.156.837 3.15-1.399-.092-2.549-.47-3.463-1.124-4.169 4.652-8.508 9.108-12.075 14.23-1.895 2.51-6.978 1.046-5.645-2.417.614-2.522 4.26-1.986 4.038.523 1.803-2 .64-3.999-2.117-3.555 2.535-1.097 4.05.98 6.338-1.868-1.752.039-3.228-.51-4.953-.105 2.182-1.32 5.214.628 7.083-3.005-1.634.183-3.11.862-4.81 1.11 10.167-9.683.393-10.153 1.634-14.348-.797.68-1.254 1.359-.889 2.26-2.273-.953-5.645-.679-6.56-3.436-.222 3.933 1.503 3.659 4.47 4.469-1.372-.17-2.719-.183-4-.653.262 1.764 1.595 2.143 3.176 1.973-1.542.85-1.189 3.045.38 3.803-1.007-5.698 7.513-3.738 3.632 1.49-1.816 2.691-4.43 4.704-6.625 7.056-.418-.719-.85-1.437-1.804-1.333 1.673 1.934-.222 4.025-.666 6.024-.64 2.457 1.529 4.561 3.868 4.849-.928 1.097-1.006 2.077-.287 2.98.705-3.62 5.946-2.797 6.442-6.718.091-.457.314-.823.823-1.032-2.365 2.679 3.333 8.337-2.025 8.99-.758.027-.941.837-.523 1.399-2.208-.105-2.822.732-3.15 2.822l2.797-.731c-.967 2.522-3.149-.144-2.796 4.338a27.747 27.747 0 0 0 2.548-1.385c.797 2.51-3.999 1.424-.405 5.436.235-.745 1.19-2.287 1.686-2.626-.445 1.267-.34 2.73 1.071 3.293l.183-.928h.118c.21.836.235 2 1.045 2.483.275.104.419.248.51.536.144.457.575.588.993.64.536.118.667-.497 1.059-.732.118.667.888.771 1.28 1.333.288-3.267-4.038-2.078-3.044-4.234.379 1.307 1.607 1.02 2.47 1.568.326.536 1.136.993 1.555.235l1.123.85c-.836-3.881-2.848-1.49-4.116-3.515.876.039 1.83 1.346 2.77.444.51.536.915 1.15 1.294 1.777.157-1.241-.3-2.195-1.28-2.875-1.098-.68-2.588.523-3.542-.823-1.28-1.594-1.241-3.816-.575-5.659.614-1.41 2.326-1.947 3.123-3.28-.222 1.176-.117 3.241 1.229 3.62-.327-2.195 1.228-4.168 1.555-6.299.392-.535.418-.953.052-1.528-.667-1.098-.85-2.405-1.581-3.477-1.15-1.607-2.549-1.646-.222-3.332-1.412 2.196-.262 1.398.967 3.463.222-.706 1.254-1.607-.04-1.607-2.051-1.006 2.666-3.62 3.725-3.685 1.058-.079 2.535.039 3.32-1.007-.497-.94-.981-1.071-.132-2.064-.575-.327-1.071-.732-1.176-1.477l-1.594.549c.523-.588 2.038-1.764 2.195-.458.04.732.771.863 1.333 1.046-.405.601-1.097 1.215-.47 1.92.431.458.705 1.32 1.385 1.438l.536-2.012c1.49 1.568-1.503 2.444 2.6 3.842-.144-.85-.287-1.66-.17-2.535 1.974 1.646-.862 2.692 3.699 3.227-.51-.6-.628-1.267-.81-1.947.757.131 1.371.863 1.855 1.399.47.718.81 1.097 1.882.405.052.13.065.3.157.366.483.366.287.81.274 1.293h.13c.641-.627.68-1.372.484-2.169-.444-1.503-2.274-.3-2.927-1.842.876.588 1.738.94 2.692.444.536.496.758.862 1.02 1.581.43-1.62-.066-3.28-1.79-2.796-.524.196-.746.143-1.282-.314.798.274 1.32-.13 1.83-.497.104.144.17.3.248.3.484.04.797.328 1.098.68.157-1.385-1.229-2.509-2.614-2.156-.353 1.699-1.777.745-2.914.51-1.751-1.032-2.679-3.006-4.234-4.286.157-1.908-1.437-3.424-3.345-3.32 1.725-.745 3.763.732 3.894 2.522.065.732.523 1.203.98 1.752 5.828-11.696 24.607-14.767 35.388-7.332.915.837 1.92 1.53 2.875 2.405.366-1.11.144-2.444 1.816-1.764l.314-.21a1.59 1.59 0 0 1 1.359-2.077v.732a.845.845 0 0 0-.706.94c.327-.065.627.366.458.654.313.183.744.104.993-.144.274.014.549.04.823.065-.379.902-1.699 1.203-2.43.55h-.014c.144.195-.484 2.182-.523 2.417a.605.605 0 0 1-.627.47l.327.536c.47-.261 1.124-.248 1.071-.915.079-.379-.156-2.13.38-1.973.222.666-.197 1.424.3 2.078 1.555-.38.875-1.79 2.757-2.156.745-.066 2.326-.432 2.731.313-1.646-.431-3.776.013-4.142 1.895-1.712.405-3.15 1.633-4.98 1.633-1.45.079-1.842 1.817-1.894 3.019-.248 1.372-.313 2.784-.928 4.064-.3.484-.052 1.033.118 1.49.549.287.954 2.221 1.032 2.901-.013 1.268 2.144 1.686 3.02 2.47.247-1.581-2.732-1.124-2.314-3.333.536 1.464 1.686 1.765 2.953 2.47-.392-1.463-.51-3.92-2.574-3.606-.784-1.111.366-1.177 0-2.483.588.183.863.379 1.032.758l-.6-.196c.064.927.875 1.15 1.489 1.79-.091-1.53-.235-2.496-1.66-3.228-.797-.745.131-2.444.079-3.463-.027-.3 1.895-1.254 2.195-1.176 1.424.196 2.927-.04 4.313.327 1.372.431.183-2.561 2.417-.993-1.62-.47-.64 1.293-1.803 1.385-.81 0-1.503-.078-2.353-.104 2.928 6.52 9.422 4.612 11.213 10.428 1.49-1.32.483-1.294.065-2.68 3.371 2.248-3.15 4.862-.706 8.809-.144-.445 1.385-2.3 1.555-2.68.288-.404.758-.43 1.059-.13l.496-1.02c-.914-.496.732-2.626.85-3.227.17-.366.562-.55.862-.392l.458-1.268c-.863-.222-.222-2.313-.288-2.888-1.202-1.098-2.195-2.457-3.136-3.724l.575-.105c-.052.288.04.602.287.771.419.157 2 1.686 2.496 1.32l.249.68c-.392.118-.47.68-.47 1.058.208.183.443.34.653.536.026-.144.013-.758.13-.85.183.249.536.249.745.053.183.104-.052 1.45-.027 1.62.223.248.445.51.654.784-.079-.614.68-2.98-.38-3.097m95.175 243.051c-2.391 6.22-4.547 8.494-9.226 8.494-1.228 0-2.457-.13-3.62-.562v-4.783c.98.3 2.026.732 3.071.732 2.157 0 3.32-1.045 4.3-2.888l2.156-5.41-12.61-31.611h5.906l9.291 26.005h.118l8.912-26.005h5.541zM188.74 265.5c-.797-3.999-3.568-6.338-7.867-6.338-7.566 0-9.906 5.972-9.906 12.427 0 5.842 2.64 11.618 9.292 11.618 5.03 0 8.05-2.954 8.73-7.75h5.344c-1.163 7.75-6.024 12.363-14.022 12.363-9.71 0-14.884-6.756-14.884-16.23 0-9.527 4.926-17.041 15.015-17.041 7.187 0 12.976 3.384 13.708 10.95zm-54.872-10.206h4.913v5.044h.131c2.208-3.934 5.776-5.79 10.337-5.79 8.363 0 10.938 4.797 10.938 11.631v20.909h-5.228v-21.523c0-3.881-2.456-6.403-6.455-6.403-6.338 0-9.409 4.247-9.409 9.97v17.956h-5.227zm-10.363 12.845c-.235-4.978-3.986-8.977-9.16-8.977-5.476 0-8.73 4.13-9.096 8.977zm5.044 8.86c-1.411 7.018-6.456 10.82-13.59 10.82-10.141 0-14.937-7.004-15.25-16.726 0-9.527 6.272-16.544 14.949-16.544 11.251 0 14.688 10.52 14.388 18.203h-23.797c-.183 5.541 2.953 10.455 9.892 10.455 4.313 0 7.331-2.091 8.246-6.208zm-39.243-6.455c0-5.593-2.457-11.382-9.043-11.382-6.704 0-9.409 5.475-9.409 11.565 0 5.724 2.091 12.114 8.978 12.114s9.474-6.338 9.474-12.297m5.162 13.839c0 10.323-4.73 15.616-14.754 15.616-5.972 0-12.859-2.405-13.16-9.344h5.228c.248 3.816 4.796 5.162 8.233 5.162 6.834 0 9.54-4.926 9.54-12.048v-2.091h-.131c-1.725 3.868-5.907 5.776-9.906 5.776-9.461 0-14.205-7.436-14.205-16.113 0-7.5 3.699-16.792 14.702-16.792 3.998 0 7.566 1.79 9.474 5.292h.065v-4.547h4.914zm-57.603-15.446h14.87l-7.304-20.465h-.13zm4.364-25.757h6.456l17.158 43.908h-6.456l-4.796-13.225H35.01l-4.914 13.225h-6.024zm188.897-18.02c-2.392 6.206-4.548 8.48-9.226 8.48-1.228 0-2.457-.118-3.62-.549v-4.796c.98.3 2.026.732 3.071.732 2.156 0 3.32-1.045 4.3-2.888l2.156-5.41-12.61-31.611h5.906l9.291 26.018h.118l8.925-26.018h5.528zm-24.868-36.042h6.325v4.613h-6.325v19.732c0 2.405.68 2.836 3.933 2.836h2.392v4.613h-3.986c-5.41 0-7.567-1.11-7.567-6.952v-20.23h-5.41v-4.612h5.41v-9.527h5.228zm-19.628 0h5.227v31.794h-5.227zm5.227-5.724h-5.227v-6.39h5.227zm-25.522 5.724h4.927v6.704h.118c2.522-5.11 6.024-7.632 11.682-7.45v5.542c-8.415 0-11.5 4.796-11.5 12.859v14.139h-5.227zm-6.795 31.794h-4.927v-5.044h-.117c-2.209 3.933-5.776 5.776-10.337 5.776-8.364 0-10.938-4.796-10.938-11.618V189.12h5.227v21.523c0 3.868 2.457 6.39 6.456 6.39 6.338 0 9.409-4.234 9.409-9.958V189.12h5.227zm-36.8-21.588c-.797-3.999-3.567-6.338-7.866-6.338-7.567 0-9.906 5.972-9.906 12.427 0 5.842 2.653 11.618 9.292 11.618 5.044 0 8.05-2.94 8.729-7.75h5.358c-1.176 7.75-6.038 12.363-14.035 12.363-9.71 0-14.871-6.756-14.871-16.23 0-9.527 4.913-17.041 15.002-17.041 7.2 0 12.976 3.384 13.708 10.95zm-32.16 2.64c-.248-4.98-3.998-8.978-9.16-8.978-5.476 0-8.73 4.13-9.095 8.978zm5.045 8.86c-1.412 7.017-6.456 10.82-13.59 10.82-10.142 0-14.938-7.005-15.251-16.727 0-9.527 6.272-16.544 14.95-16.544 11.251 0 14.688 10.52 14.387 18.204H71.325c-.183 5.54 2.953 10.454 9.892 10.454 4.312 0 7.318-2.091 8.246-6.207zM54.689 189.85c-.666-6.273-4.848-8.978-10.872-8.978-4.927 0-9.84 1.79-9.84 7.514 0 5.41 7.004 6.207 14.074 7.802 7.017 1.594 14.022 4.064 14.022 12.675 0 9.344-9.161 13.094-17.159 13.094-9.84 0-18.138-4.795-18.138-15.498h5.528c0 7.383 6.155 10.572 12.793 10.572 5.293 0 11.134-1.66 11.134-7.985 0-6.024-7.004-7.082-14.022-8.611-7.004-1.542-14.087-3.568-14.087-11.618 0-8.925 7.932-12.859 15.93-12.859 8.978 0 15.812 4.247 16.178 13.892zm212.955-79.022h5.227v16.792h.118c1.725-3.816 6.207-5.41 10.023-5.41 8.363 0 10.95 4.796 10.95 11.617v20.91h-5.226v-21.524c0-3.868-2.457-6.403-6.456-6.403-6.338 0-9.409 4.247-9.409 9.97v17.956h-5.227zm-10.794 12.114h6.338v4.613h-6.338V147.3c0 2.392.68 2.823 3.933 2.823h2.405v4.613h-4c-5.41 0-7.565-1.11-7.565-6.952v-20.23h-5.41v-4.612h5.41v-9.527h5.227zm-19.628-12.114h5.227v43.908h-5.227zm-12.885 27.495c-2.026 1.463-5.96 1.529-9.474 2.143-3.437.614-6.39 1.843-6.39 5.724 0 3.437 2.953 4.678 6.154 4.678 6.874 0 9.71-4.312 9.71-7.2zm8.48 16.296c-.914.548-2.09.849-3.75.849-2.705 0-4.417-1.477-4.417-4.914-2.9 3.385-6.769 4.914-11.199 4.914-5.776 0-10.52-2.574-10.52-8.912 0-7.2 5.358-8.73 10.769-9.775 5.776-1.111 10.702-.745 10.702-4.679 0-4.547-3.75-5.279-7.07-5.279-4.43 0-7.697 1.346-7.945 6.024h-5.214c.3-7.88 6.39-10.637 13.46-10.637 5.724 0 11.931 1.28 11.931 8.73v16.36c0 2.457 0 3.568 1.66 3.568.43 0 .927-.065 1.594-.313zm-38.484-18.818c-.248-4.992-3.999-8.978-9.16-8.978-5.476 0-8.73 4.116-9.096 8.978zm5.044 8.847c-1.411 7.017-6.455 10.82-13.59 10.82-10.141 0-14.937-7.004-15.25-16.727 0-9.527 6.272-16.544 14.949-16.544 11.251 0 14.688 10.52 14.388 18.204h-23.797c-.196 5.54 2.953 10.454 9.892 10.454 4.313 0 7.318-2.078 8.246-6.207zm-69.756-33.82h5.841v18.883h23.117V110.83h5.841v43.908h-5.84v-20.111h-23.118v20.111h-5.841zm-56.898 0h5.841v21.889l22.255-21.89h7.566l-18.517 17.708 19.249 26.201h-7.37l-15.865-22.202-7.318 6.821v15.381h-5.841zm-8.377 28.044c0 11.068-6.324 16.91-17.275 16.91-11.317 0-18.021-5.228-18.021-16.91v-28.044h5.841v28.044c0 7.749 4.43 11.983 12.18 11.983 7.383 0 11.434-4.234 11.434-11.983v-28.044h5.841zm0 0"/></svg>